<?xml version="1.0" standalone="no"?>
<!DOCTYPE svg PUBLIC "-//W3C//DTD SVG 20010904//EN"
 "http://www.w3.org/TR/2001/REC-SVG-20010904/DTD/svg10.dtd">
<svg version="1.0" xmlns="http://www.w3.org/2000/svg"
 width="1200.000000pt" height="1200.000000pt" viewBox="0 0 1200.000000 1200.000000"
 preserveAspectRatio="xMidYMid meet">
<metadata>
Created by potrace 1.16, written by Peter Selinger 2001-2019
</metadata>
<g transform="translate(0.000000,1200.000000) scale(0.100000,-0.100000)"
fill="#000000" stroke="none">
<path d="M0 11171 c0 -654 3 -830 13 -834 9 -4 9 -7 0 -14 -17 -12 -16 -148 2
-163 10 -8 15 -7 22 4 10 18 123 35 123 19 0 -6 9 -13 21 -16 12 -3 18 -10 15
-16 -4 -5 -2 -12 4 -16 16 -10 12 -25 -5 -19 -8 4 -22 1 -30 -6 -14 -12 -35
-6 -35 10 0 5 9 10 19 12 19 3 19 3 0 27 l-19 23 -13 -28 c-8 -19 -21 -30 -37
-32 -13 -1 -28 -8 -32 -15 -6 -9 -12 -9 -26 -1 -16 10 -18 8 -19 -27 -2 -28 2
-39 13 -39 7 0 14 -4 14 -10 0 -5 -7 -10 -15 -10 -13 0 -15 -33 -15 -238 l0
-238 138 -12 c176 -16 184 -18 169 -43 -9 -15 -19 -18 -47 -13 -19 4 -43 13
-52 22 -14 12 -34 14 -95 9 -43 -3 -85 -1 -95 4 -17 9 -18 3 -18 -84 0 -54 5
-98 11 -104 8 -8 8 -13 0 -17 -7 -5 -11 -74 -11 -206 0 -190 1 -200 20 -210
23 -12 18 -32 -5 -23 -13 4 -15 -16 -15 -138 l0 -143 29 28 c28 27 42 31 251
76 25 6 78 15 118 20 73 11 85 12 272 25 68 5 119 14 144 26 22 11 50 19 63
19 14 0 23 6 23 15 0 14 -8 16 -72 19 -31 2 -63 25 -38 27 8 1 25 0 38 -1 29
-2 28 8 -5 36 -22 18 -25 26 -15 36 9 9 20 8 49 -6 26 -12 33 -20 24 -26 -20
-12 -4 -30 27 -30 15 0 52 -7 82 -15 79 -21 81 -21 74 21 -4 25 -2 34 5 29 6
-3 11 -13 11 -20 0 -16 43 -31 60 -20 12 8 3 46 -14 57 -6 5 4 5 22 2 20 -4
32 -2 32 4 0 6 9 14 21 17 11 4 18 12 16 18 -4 13 -56 10 -74 -4 -7 -7 -14 -6
-18 1 -4 7 7 25 24 42 24 24 35 28 43 20 7 -7 20 -12 30 -12 15 0 17 5 12 25
-5 21 -3 25 15 25 12 0 21 6 21 15 0 8 5 15 10 15 6 0 10 -7 10 -15 0 -9 10
-15 26 -15 17 0 23 4 18 12 -5 8 -2 9 9 5 10 -3 17 -3 17 1 0 5 30 14 66 21
42 9 61 17 53 22 -7 4 -11 10 -9 12 14 12 75 37 90 37 10 0 23 7 30 15 8 9 21
13 35 9 23 -6 145 24 145 35 -1 3 -14 17 -30 31 -17 13 -30 27 -30 30 0 3 45
4 99 2 74 -3 113 0 153 13 44 13 59 14 83 4 l30 -12 -25 -6 c-24 -7 -24 -7 -5
-16 11 -5 37 -9 57 -10 21 -1 45 -8 55 -16 15 -13 40 -15 130 -11 62 2 110 8
107 13 -3 5 -16 9 -30 9 -15 0 -24 6 -24 15 0 17 16 20 25 5 3 -5 17 -10 30
-10 27 0 41 -15 23 -24 -7 -3 -2 -4 12 -1 14 2 37 -2 51 -9 14 -7 50 -14 80
-14 145 -4 250 -11 304 -21 33 -6 63 -11 68 -11 4 0 7 -7 7 -15 0 -18 16 -19
60 -4 41 15 226 -5 247 -27 9 -8 34 -14 64 -14 27 0 49 -4 49 -9 0 -4 25 -11
55 -15 31 -3 65 -12 75 -19 16 -9 24 -9 42 2 16 10 23 11 26 2 3 -9 8 -9 20 1
12 10 16 10 19 1 6 -16 103 -18 103 -2 0 5 -4 8 -9 4 -5 -3 -17 3 -27 12 -30
31 5 27 38 -3 25 -25 38 -29 86 -30 31 0 90 -6 129 -14 61 -12 75 -12 85 -1 7
8 8 11 2 8 -12 -7 -51 29 -42 38 3 3 17 1 32 -4 21 -8 26 -8 26 4 0 8 -9 20
-20 27 -11 7 -20 18 -20 25 0 18 17 16 24 -2 9 -25 26 -17 26 14 0 16 7 34 15
41 8 7 15 19 15 26 0 18 31 54 46 54 6 0 17 6 23 14 10 12 39 14 154 10 78 -2
170 -6 204 -9 44 -4 63 -2 66 7 4 9 6 9 6 -2 1 -12 21 -15 114 -16 236 -1 983
-30 997 -39 5 -3 10 0 12 6 6 17 47 15 198 -10 89 -15 155 -21 195 -17 108 11
458 9 550 -2 50 -6 185 -14 300 -17 116 -4 235 -11 265 -17 30 -6 123 -12 206
-12 103 -1 156 -5 166 -13 11 -10 17 -10 27 0 9 9 73 12 239 12 343 1 1039 16
1107 25 34 4 61 4 63 -1 2 -5 21 -9 42 -9 21 0 40 -4 42 -9 2 -5 50 -5 108 -1
58 4 186 8 285 9 104 1 181 6 183 11 2 6 8 10 13 10 6 0 7 -4 4 -10 -6 -10 20
-3 40 10 6 3 60 8 120 9 120 3 135 4 305 20 63 6 184 11 268 11 94 0 152 4
152 10 0 6 48 10 125 10 77 0 125 -4 125 -10 0 -5 8 -10 19 -10 24 0 111 -77
111 -99 0 -9 6 -23 13 -30 14 -14 15 -158 3 -284 -6 -60 -12 -80 -24 -83 -54
-17 -62 -36 -22 -51 16 -6 30 -17 29 -25 0 -8 -2 -9 -5 -2 -3 7 -13 10 -23 7
-12 -3 -25 4 -34 18 -21 29 -7 55 31 64 29 6 29 7 36 97 14 206 6 264 -45 318
-53 56 -69 60 -211 60 -189 0 -357 -16 -377 -34 -15 -14 -19 -14 -34 1 -13 13
-19 14 -31 4 -8 -7 -20 -10 -25 -7 -6 4 -19 1 -30 -6 -15 -9 -25 -9 -45 0 -30
13 -259 8 -391 -9 -44 -6 -170 -15 -280 -20 -110 -5 -234 -12 -277 -15 l-76
-7 4 -51 c3 -43 2 -48 -9 -32 -45 69 -71 98 -93 106 -29 11 -88 13 -123 3
l-23 -6 23 -13 c22 -11 22 -13 6 -20 -17 -6 -17 -8 -1 -25 9 -10 22 -15 31
-12 9 4 16 -2 20 -16 3 -11 12 -21 21 -21 32 0 -3 -19 -41 -22 -20 -2 -37 -7
-38 -13 0 -15 53 -18 63 -3 6 9 7 6 3 -9 -3 -12 -2 -24 4 -27 15 -10 43 5 37
20 -3 8 -1 14 4 14 13 0 13 -47 0 -55 -5 -3 -30 3 -54 14 l-45 19 -16 -24
c-14 -22 -14 -26 1 -49 11 -17 23 -24 34 -20 10 3 20 0 23 -9 4 -9 -4 -16 -24
-20 -16 -3 -29 -10 -29 -16 0 -23 36 -63 67 -76 18 -8 34 -19 34 -24 1 -6 2
-15 3 -22 1 -15 26 -23 26 -8 0 6 5 8 11 5 7 -5 4 -14 -7 -26 -10 -11 -12 -19
-6 -19 7 0 12 3 12 8 0 4 18 6 40 4 51 -5 47 -21 -8 -41 -23 -8 -42 -21 -42
-28 0 -7 7 -10 16 -6 9 3 20 0 25 -8 8 -12 10 -12 18 0 8 13 12 13 27 0 13
-11 56 -14 198 -14 148 0 187 -3 211 -16 17 -9 64 -20 105 -23 144 -13 281
-37 331 -56 27 -11 61 -20 74 -20 14 0 25 -4 25 -10 0 -5 -10 -10 -23 -10 -13
0 -27 -4 -33 -9 -5 -5 -22 -11 -37 -13 -56 -6 -19 -22 58 -25 44 -1 91 -5 105
-9 14 -5 33 -8 42 -8 10 -1 18 -5 18 -11 0 -6 -38 -11 -88 -13 -115 -4 -376
-20 -592 -37 -36 -3 -94 -7 -130 -10 -278 -19 -260 -16 -260 -39 0 -20 5 -21
103 -23 56 -2 107 -2 112 -2 6 0 33 2 61 4 29 1 57 6 64 10 17 11 25 -2 10
-20 -10 -12 -10 -15 3 -15 9 0 19 9 22 20 5 17 14 20 63 18 31 -2 100 1 153 6
70 6 103 5 119 -4 12 -6 45 -13 73 -15 70 -4 69 -4 62 -15 -6 -10 -10 -11
-125 -10 -41 1 -105 -4 -141 -9 -37 -6 -125 -13 -195 -16 -125 -5 -293 -19
-344 -29 -14 -2 -28 -5 -32 -5 -5 -1 -8 -18 -8 -39 0 -38 0 -38 40 -37 21 0
42 4 46 8 4 4 44 7 89 7 50 0 86 5 93 12 8 8 75 13 219 14 115 2 253 7 308 12
55 5 102 8 106 6 3 -1 63 -5 135 -9 71 -3 140 -7 154 -9 138 -21 212 -27 261
-22 48 6 59 4 59 -8 0 -8 24 -26 53 -40 28 -14 72 -37 97 -51 25 -13 57 -25
72 -25 28 0 27 -2 42 90 3 14 5 43 6 65 1 30 3 35 9 20 9 -22 8 -55 -3 -102
-4 -17 -8 -45 -8 -62 -1 -17 -4 -31 -8 -31 -5 0 -8 -10 -7 -22 1 -33 -11 -107
-23 -148 -5 -19 -10 -70 -10 -114 0 -86 -19 -206 -32 -206 -4 0 -8 -24 -8 -53
0 -29 -4 -57 -9 -62 -6 -6 -11 -32 -12 -60 -2 -66 -19 -175 -31 -198 -5 -10
-11 -44 -14 -75 -13 -176 -17 -211 -23 -208 -3 2 -7 -19 -9 -46 -2 -28 -8 -60
-15 -72 -6 -12 -15 -57 -19 -101 -9 -99 -12 -117 -21 -132 -11 -17 3 -43 23
-43 19 0 43 -23 34 -33 -3 -3 33 -17 80 -31 47 -15 86 -30 86 -34 1 -24 35
-45 97 -58 37 -8 77 -14 89 -14 18 0 43 -19 153 -117 20 -18 41 -33 47 -33 7
0 24 -16 38 -35 33 -42 63 -59 137 -74 38 -8 66 -21 90 -44 l34 -32 -50 -5
-49 -5 26 -17 c15 -10 28 -14 31 -10 2 4 3 2 1 -5 -5 -22 33 -44 73 -42 54 4
80 -14 33 -22 l-35 -5 32 -20 c37 -22 44 -39 12 -29 -19 6 -21 4 -17 -24 5
-34 -6 -39 -36 -16 -10 8 -23 12 -28 9 -11 -7 1 -55 21 -78 9 -10 15 -20 13
-23 -2 -3 -1 -7 2 -11 3 -3 6 2 6 11 0 19 9 21 43 8 19 -7 28 -22 37 -62 14
-58 47 -99 80 -99 12 0 37 -16 56 -35 57 -60 70 -43 30 40 -24 49 -24 50 -4
58 11 4 24 5 28 2 5 -3 13 2 18 12 8 14 14 15 35 6 20 -9 25 -19 25 -47 0 -24
-5 -36 -14 -36 -8 0 -14 4 -14 9 0 10 -30 24 -37 17 -9 -9 31 -74 42 -69 7 2
16 0 20 -6 3 -6 -2 -11 -12 -11 -15 -1 -14 -4 7 -21 14 -11 33 -27 43 -34 15
-13 17 -12 17 10 0 16 -6 25 -16 25 -14 0 -14 2 0 22 14 20 16 349 16 3295 l0
3273 -6000 0 -6000 0 0 -829z m3770 -151 l40 -20 12 20 c7 11 21 20 31 20 16
0 17 -9 15 -97 -2 -58 -7 -98 -14 -100 -6 -2 -19 16 -29 39 -30 69 -60 103
-103 117 -73 24 -142 -16 -142 -83 0 -46 31 -69 122 -91 152 -36 203 -83 195
-178 -5 -54 -28 -91 -77 -124 -45 -31 -136 -32 -198 -2 l-43 21 -15 -21 c-8
-11 -24 -21 -35 -21 -19 0 -20 6 -17 102 3 85 6 103 19 106 11 2 18 -7 22 -27
15 -73 100 -151 164 -151 65 0 123 48 123 101 0 41 -42 75 -118 94 -151 39
-178 56 -192 122 -17 72 23 158 85 183 37 16 114 11 155 -10z m445 -2 c4 -13
18 -48 31 -78 13 -30 52 -129 88 -220 60 -154 66 -166 95 -175 17 -5 31 -15
31 -22 0 -10 -27 -13 -110 -13 -91 0 -110 3 -110 15 0 10 10 15 29 15 38 0 46
13 32 51 -6 16 -16 43 -22 59 l-12 31 -101 -3 -100 -3 -19 -49 c-17 -46 -17
-50 -1 -67 10 -11 28 -19 41 -19 14 0 23 -6 23 -15 0 -12 -17 -15 -95 -15 -74
0 -95 3 -95 14 0 8 11 17 25 20 13 3 30 16 37 29 13 23 147 350 174 425 18 47
48 57 59 20z m3180 -88 c23 -58 63 -159 89 -226 53 -137 69 -164 97 -164 10 0
19 -7 19 -15 0 -12 -18 -15 -105 -15 -87 0 -105 3 -105 15 0 9 9 15 24 15 41
0 46 19 22 80 l-22 55 -101 3 -100 3 -17 -44 c-27 -70 -17 -97 36 -97 18 0 28
-5 28 -15 0 -13 -31 -15 -220 -15 -189 0 -220 2 -220 15 0 10 10 15 28 15 50
0 52 8 52 230 l-1 205 -63 -175 c-35 -96 -72 -200 -83 -230 -21 -63 -45 -76
-61 -33 -30 80 -77 202 -121 318 l-50 130 0 -190 c-1 -212 4 -234 57 -250 17
-5 32 -15 32 -22 0 -10 -26 -13 -105 -13 -82 0 -105 3 -105 14 0 7 12 16 28
19 58 13 57 8 57 239 l0 213 -42 3 c-29 2 -43 8 -43 18 0 11 19 14 93 14 l92
0 52 -137 c29 -76 62 -164 74 -196 11 -32 23 -57 24 -55 2 2 31 80 65 173 33
94 65 180 70 193 9 20 16 22 100 22 72 0 90 -3 90 -14 0 -10 -13 -16 -37 -18
l-38 -3 0 -225 0 -225 47 -3 c56 -4 83 9 102 46 7 15 48 113 90 217 42 105 81
200 86 213 19 44 41 21 85 -88z m1013 68 c10 -24 52 -128 92 -233 76 -198 91
-225 122 -225 10 0 18 -7 18 -15 0 -12 -18 -15 -105 -15 -87 0 -105 3 -105 15
0 9 9 15 24 15 41 0 46 19 22 80 l-22 55 -101 3 -100 3 -17 -44 c-9 -23 -16
-50 -16 -59 0 -20 29 -38 59 -38 12 0 21 -7 21 -15 0 -12 -18 -15 -100 -15
-82 0 -100 3 -100 15 0 8 9 15 20 15 32 0 56 44 141 255 43 110 84 210 89 223
15 34 37 26 58 -20z m522 22 l40 -20 12 20 c7 11 21 20 31 20 16 0 17 -9 15
-97 -3 -114 -19 -129 -49 -48 -34 87 -112 133 -180 105 -37 -16 -59 -46 -59
-81 0 -47 28 -68 138 -99 125 -37 146 -49 167 -103 32 -80 -5 -171 -82 -203
-48 -21 -132 -18 -178 6 l-39 20 -22 -21 c-14 -13 -30 -19 -39 -15 -13 5 -15
22 -13 103 3 84 6 98 21 101 11 2 17 -3 17 -13 0 -50 60 -127 118 -151 63 -26
122 -10 156 40 37 57 3 114 -82 136 -110 28 -151 43 -176 65 -68 58 -52 182
30 236 39 26 123 25 174 -1z m-4220 -4 c0 -10 -13 -16 -37 -18 l-38 -3 0 -225
0 -225 50 -3 c65 -4 108 4 134 27 23 20 60 96 61 124 0 11 8 17 21 17 20 0 21
-4 15 -52 -3 -29 -6 -74 -6 -100 l0 -48 -220 0 c-189 0 -220 2 -220 15 0 10
11 15 35 15 28 0 36 5 40 23 3 12 4 114 3 227 l-3 205 -37 3 c-25 2 -38 8 -38
18 0 11 22 14 120 14 98 0 120 -3 120 -14z m798 -5 c84 -43 126 -125 125 -246
0 -88 -14 -131 -59 -184 -51 -61 -88 -71 -276 -71 -143 0 -168 2 -168 15 0 11
11 15 39 15 26 0 41 5 45 16 3 9 6 109 6 224 0 228 2 220 -61 220 -19 0 -29 5
-29 15 0 13 26 15 170 15 148 0 176 -3 208 -19z m632 -18 c0 -21 3 -62 6 -90
6 -49 5 -53 -15 -53 -14 0 -21 6 -21 20 0 32 -36 95 -65 114 -19 13 -43 16
-98 14 l-72 -3 -3 -97 -3 -98 34 0 c40 0 73 28 82 70 4 16 13 30 21 30 11 0
14 -24 14 -125 0 -100 -3 -125 -14 -125 -8 0 -17 15 -20 36 -10 48 -38 74 -81
74 l-36 0 3 -107 3 -108 55 -3 c30 -2 69 -1 87 3 47 8 89 55 103 115 7 30 17
50 26 50 11 0 14 -18 14 -77 0 -135 22 -123 -226 -123 -179 0 -214 2 -214 14
0 9 12 16 33 18 l32 3 0 225 0 225 -32 3 c-21 2 -33 9 -33 18 0 12 34 14 210
14 l210 0 0 -37z m1828 23 c50 -26 75 -62 76 -110 1 -60 -26 -97 -87 -116 -45
-14 -62 -30 -34 -30 25 0 58 -48 74 -106 8 -32 19 -67 24 -76 15 -28 38 -21
47 14 10 40 32 49 32 13 0 -86 -89 -137 -144 -82 -17 17 -26 43 -35 101 -6 43
-16 86 -22 97 -13 24 -49 39 -95 39 l-35 0 3 -107 3 -108 38 -3 c24 -2 37 -8
37 -18 0 -11 -22 -14 -120 -14 -98 0 -120 3 -120 14 0 10 13 16 38 18 l37 3 0
225 0 225 -37 3 c-25 2 -38 8 -38 18 0 20 318 21 358 0z m-4673 -1606 c3 -5
14 -10 23 -10 9 0 23 -13 30 -30 9 -19 21 -30 33 -30 11 0 52 -27 90 -60 52
-45 76 -59 90 -55 21 7 24 -2 10 -24 -8 -12 -13 -12 -35 2 -36 24 -48 21 -40
-9 7 -26 6 -26 -37 -20 -46 7 -139 46 -139 59 0 15 42 6 62 -13 23 -21 51 -29
30 -8 -18 18 -15 31 6 26 10 -3 24 2 32 10 13 14 12 15 -3 9 -11 -4 -17 -1
-17 8 0 8 -6 15 -14 15 -8 0 -22 10 -30 22 -9 12 -19 19 -22 15 -4 -3 -14 8
-23 26 -9 18 -25 33 -37 35 -12 2 -24 12 -27 23 -5 20 7 26 18 9z"/>
<path d="M4124 10817 l-41 -102 80 -3 c44 -2 82 -1 84 2 5 5 -64 183 -76 198
-4 4 -24 -39 -47 -95z"/>
<path d="M7303 10899 c-14 -27 -73 -177 -73 -184 0 -3 38 -5 85 -5 l84 0 -25
68 c-14 37 -33 84 -42 106 -17 38 -17 38 -29 15z"/>
<path d="M8341 10895 c-7 -16 -26 -63 -42 -103 -16 -41 -29 -75 -29 -78 0 -2
38 -4 85 -4 l84 0 -25 68 c-14 37 -34 85 -44 107 l-17 40 -12 -30z"/>
<path d="M5305 10988 c-3 -7 -4 -110 -3 -228 l3 -215 65 1 c76 0 117 20 146
68 16 26 19 51 19 151 0 132 -11 166 -68 208 -35 27 -154 37 -162 15z"/>
<path d="M7783 10993 c-9 -3 -13 -33 -13 -99 l0 -94 64 0 c49 0 69 5 89 20 53
42 44 149 -15 169 -31 11 -103 14 -125 4z"/>
<path d="M4786 9205 c-15 -8 -44 -15 -62 -15 -19 0 -43 -5 -54 -12 -16 -10
-23 -9 -40 7 -18 16 -23 17 -31 5 -8 -13 -10 -13 -18 0 -9 12 -12 12 -28 -3
-13 -11 -30 -15 -53 -11 -29 4 -41 -1 -67 -26 -18 -16 -33 -39 -33 -50 0 -12
-7 -20 -16 -20 -14 0 -14 -3 -4 -15 11 -13 8 -15 -21 -15 -25 0 -30 -3 -19
-10 8 -5 11 -13 6 -17 -4 -4 -14 0 -21 10 -9 12 -15 14 -20 7 -4 -6 -2 -17 4
-24 15 -18 2 -84 -18 -89 -14 -4 -14 -5 2 -6 9 0 17 -5 17 -10 0 -4 20 -11 46
-15 50 -6 124 12 124 31 0 7 11 15 25 19 14 3 23 10 20 14 -9 15 17 23 67 21
26 -1 48 2 48 6 0 5 15 14 33 22 78 32 116 51 122 61 4 6 16 8 27 4 16 -5 20
-3 15 9 -5 13 5 17 49 23 30 3 64 4 75 1 15 -4 23 0 26 13 3 10 16 20 29 23
19 3 24 1 19 -11 -4 -12 -3 -13 10 -2 8 7 15 21 15 31 0 15 -8 19 -40 19 -33
0 -40 -3 -40 -20 0 -13 -7 -20 -20 -20 -11 0 -19 6 -17 13 1 7 -11 13 -30 15
-18 2 -33 7 -33 12 0 6 -55 41 -64 40 -1 0 -14 -7 -30 -15z"/>
<path d="M8581 9118 c-4 -13 -10 -29 -12 -37 -3 -7 7 -26 21 -41 14 -15 30
-34 36 -41 9 -12 94 -89 131 -119 17 -14 35 -12 58 6 13 10 16 18 8 21 -6 2
-25 18 -43 35 -24 23 -29 33 -20 42 8 8 15 6 25 -8 12 -16 17 -17 30 -6 10 8
12 17 6 28 -6 11 -4 26 4 43 17 33 12 39 -36 39 -21 0 -41 5 -45 11 -3 6 -17
8 -30 5 -17 -5 -24 -2 -24 9 0 17 -16 21 -22 5 -4 -12 -58 1 -57 15 1 20 -21
15 -30 -7z"/>
<path d="M1492 9055 c-18 -8 -32 -18 -31 -22 4 -25 -4 -33 -34 -33 -28 0 -33
-4 -33 -22 1 -14 9 -25 20 -28 29 -8 32 -30 4 -30 -37 0 -39 -9 -7 -41 34 -35
35 -39 9 -32 -11 3 -20 9 -20 14 0 5 -4 9 -10 9 -5 0 -10 -6 -10 -14 0 -14
-29 -26 -67 -26 -13 0 -24 -8 -28 -21 -4 -13 -14 -19 -28 -18 -30 3 -74 -16
-59 -25 27 -16 9 -24 -24 -10 -30 13 -40 13 -65 2 -28 -13 -39 -28 -19 -28 6
0 10 -4 10 -10 0 -11 -33 -14 -43 -4 -5 6 -70 15 -107 16 -18 0 -127 -15 -263
-37 -67 -11 -103 -12 -116 -6 -10 6 -21 7 -25 4 -4 -4 -45 -7 -92 -8 -63 0
-87 -4 -94 -15 -5 -8 -19 -15 -32 -15 -80 -4 -88 -6 -88 -19 0 -10 -14 -16
-42 -18 -32 -2 -45 -8 -54 -25 -12 -25 -26 -21 -17 5 5 14 3 15 -8 5 -7 -7
-23 -13 -35 -13 -12 0 -27 -7 -34 -15 -7 -8 -18 -15 -25 -15 -19 0 -25 -24
-25 -107 0 -68 2 -74 18 -68 39 16 63 12 79 -11 8 -13 25 -26 36 -30 45 -13
50 -26 17 -45 -16 -10 -30 -23 -30 -29 0 -5 -4 -10 -10 -10 -5 0 -10 6 -10 14
0 7 -9 16 -19 19 -17 4 -18 1 -11 -24 6 -18 5 -29 -1 -29 -18 0 -39 28 -39 52
0 34 -11 68 -21 68 -12 0 -12 -247 0 -254 5 -3 12 1 15 9 8 22 68 16 74 -7 7
-29 91 -51 148 -38 32 7 34 6 34 -17 0 -23 -3 -24 -27 -18 -16 5 -45 8 -65 8
-21 0 -38 4 -38 9 0 4 -5 8 -12 8 -6 0 -19 7 -29 16 -16 14 -20 14 -44 -2 -20
-13 -29 -14 -38 -5 -6 6 -14 11 -19 11 -4 0 -7 -63 -7 -140 0 -80 4 -140 10
-140 5 0 9 -7 9 -15 0 -8 -4 -15 -10 -15 -6 0 -10 -28 -10 -64 0 -55 3 -66 23
-78 44 -29 114 -38 128 -17 3 5 13 7 21 4 9 -4 19 -1 23 4 3 6 11 8 18 4 6 -3
34 -7 61 -8 37 -2 59 3 81 19 39 27 43 34 39 60 -4 16 -3 17 3 4 6 -12 12 -15
23 -8 21 13 9 20 -44 24 -26 2 -52 10 -59 18 -7 8 -27 21 -45 28 -17 7 -32 15
-32 19 0 3 -14 12 -32 20 -39 17 -56 8 -83 -45 l-19 -39 -6 37 c-3 21 -13 47
-23 58 -9 11 -17 24 -17 28 0 13 49 52 65 52 20 0 19 -17 -3 -29 -16 -10 -15
-11 3 -12 11 -1 26 -2 33 -2 6 1 12 -2 12 -6 0 -4 39 -7 88 -7 72 1 95 -3 135
-23 44 -21 48 -27 44 -50 -5 -22 0 -31 29 -50 23 -16 32 -27 25 -34 -7 -7 -15
-6 -25 2 -12 10 -20 9 -43 -3 l-28 -15 40 -2 c22 -1 53 -2 69 -3 47 -2 42 -22
-5 -24 -49 -2 -45 0 -53 -32 -5 -16 -4 -20 2 -12 7 11 13 10 27 -4 17 -17 17
-18 -2 -27 -16 -7 -27 -2 -51 22 -32 32 -55 41 -46 17 3 -8 0 -17 -6 -21 -8
-5 -8 -11 1 -21 6 -7 15 -11 20 -9 13 8 111 -44 104 -55 -9 -15 -21 -12 -61
15 -20 14 -42 25 -48 24 -7 0 -6 -3 2 -6 6 -2 12 -9 12 -15 0 -5 9 -17 21 -26
19 -16 17 -17 -52 -18 -45 -1 -75 -6 -77 -13 -5 -16 -52 -14 -86 4 -15 8 -34
15 -41 15 -6 0 -18 18 -25 41 -14 42 -28 57 -39 43 -14 -20 -53 -34 -76 -28
-23 6 -25 3 -25 -29 0 -20 5 -39 10 -42 6 -4 7 -11 4 -17 -4 -6 -3 -8 3 -5 6
4 37 2 69 -3 50 -9 61 -8 71 6 11 16 14 16 38 0 30 -20 33 -36 5 -29 -12 3
-22 -1 -26 -10 -3 -9 -13 -13 -24 -10 -11 3 -31 -4 -47 -17 -15 -12 -29 -17
-31 -11 -2 5 -9 8 -17 5 -7 -3 -16 -1 -20 5 -3 6 -1 11 4 11 22 0 10 18 -14
22 l-25 5 0 -129 c0 -71 5 -138 10 -148 7 -13 7 -21 0 -25 -22 -14 -10 -37 17
-34 16 1 36 -2 47 -6 11 -5 26 -3 37 3 14 9 25 9 44 0 22 -10 28 -8 46 10 18
20 30 22 122 22 152 1 220 21 209 62 -3 14 2 18 27 18 31 0 42 14 19 23 -9 3
-6 7 6 13 13 5 21 3 24 -4 5 -17 22 -4 22 18 0 10 -7 20 -15 24 -8 3 -15 10
-15 16 0 15 40 3 65 -21 18 -16 47 -18 303 -22 155 -2 285 -7 289 -10 3 -4 8
-30 11 -58 l5 -51 34 7 c27 5 34 3 31 -7 -3 -7 -12 -12 -22 -10 -9 2 -16 -4
-16 -12 0 -9 7 -12 19 -9 27 7 35 -14 16 -43 -9 -13 -17 -38 -18 -54 -2 -27
-3 -28 -14 -13 -7 9 -13 24 -13 34 0 9 -9 19 -20 22 -12 3 -20 0 -20 -8 0 -9
-15 -12 -50 -10 -28 2 -53 -1 -56 -6 -3 -5 -15 -9 -27 -9 -29 -1 -107 -36
-107 -50 0 -5 7 -10 15 -10 8 0 15 5 15 10 0 6 14 10 30 10 17 0 30 4 30 9 0
5 11 8 24 7 14 -2 27 2 30 9 3 10 55 13 119 6 4 -1 7 -9 7 -19 0 -10 7 -27 15
-39 8 -12 16 -30 18 -42 2 -11 6 -24 10 -27 4 -4 7 -17 7 -29 0 -16 -6 -21
-21 -21 -12 1 -24 -5 -27 -13 -4 -11 2 -13 28 -8 18 4 56 8 84 8 28 1 43 3 34
6 -10 2 -18 11 -18 19 0 16 16 19 25 4 3 -5 16 -10 28 -10 109 1 150 -2 132
-10 -15 -6 -8 -9 28 -9 27 -1 56 3 66 8 9 5 39 11 66 13 43 3 50 0 61 -20 6
-13 15 -24 20 -25 5 -1 8 -6 6 -11 -1 -4 8 -6 21 -2 21 5 27 0 40 -32 l15 -37
1 47 c1 25 -3 48 -8 50 -6 2 -12 22 -15 46 -6 52 -11 61 -42 72 -25 10 -33 29
-11 31 17 2 -63 20 -88 20 -10 0 -57 18 -103 39 -47 22 -94 40 -106 40 -11 1
-32 7 -46 15 l-25 14 25 1 c21 0 22 2 10 14 -8 8 -27 18 -42 21 -22 6 -28 4
-28 -9 0 -9 -4 -16 -10 -16 -5 0 -10 6 -10 13 0 20 -37 50 -53 44 -11 -4 -12
3 -6 36 5 23 8 45 9 48 0 4 25 10 55 14 30 3 57 11 60 16 4 5 35 7 71 5 77 -5
85 4 77 80 -9 86 26 154 63 123 10 -8 12 -22 8 -44 -3 -19 -1 -35 5 -39 7 -5
11 4 11 23 0 66 25 83 35 24 11 -63 15 -71 26 -50 7 12 7 39 -1 85 -6 37 -12
72 -12 77 -2 13 -50 14 -59 1 -13 -17 -29 5 -23 32 4 15 3 24 -1 20 -10 -10
-38 29 -30 41 3 5 1 12 -5 16 -5 3 -10 11 -10 16 0 18 74 -1 93 -24 18 -22 19
-21 13 38 -7 76 -29 139 -50 143 -14 3 -14 5 2 20 16 15 17 22 7 60 -6 24 -13
40 -17 37 -3 -3 -4 13 -3 37 3 45 -5 100 -26 186 -12 45 -17 52 -39 52 -19 0
-22 2 -10 10 11 7 9 11 -11 19 -28 10 -39 29 -39 66 l0 24 25 -25 c14 -14 32
-40 39 -57 l14 -32 1 32 c1 20 -5 36 -16 42 -17 10 -17 12 -2 24 12 9 16 25
13 57 -2 25 -6 98 -10 162 -4 65 -9 116 -13 114 -12 -8 -3 105 9 120 7 7 22
14 34 14 20 1 20 1 2 15 -10 8 -22 12 -26 10 -4 -3 -15 6 -24 20 -12 18 -17
54 -19 140 -1 63 -5 115 -9 115 -5 0 -8 -12 -8 -27 l-1 -28 -17 28 c-19 31
-17 31 -60 12z m-345 -392 c4 -10 12 -22 20 -26 7 -4 13 -17 13 -27 0 -11 5
-20 10 -20 6 0 10 -13 10 -29 0 -16 6 -32 13 -35 6 -3 0 -4 -16 -1 -22 5 -29
1 -37 -20 -11 -29 -19 -31 -46 -10 -32 24 -39 17 -10 -11 29 -29 33 -44 13
-44 -21 0 -78 76 -71 94 3 9 1 16 -5 16 -7 0 -17 14 -22 30 -6 17 -15 30 -20
30 -5 0 -9 7 -9 15 0 13 3 13 21 3 17 -11 22 -10 34 7 28 39 36 45 66 45 19 0
32 -6 36 -17z m198 -1183 c21 0 45 -29 38 -46 -5 -13 1 -14 28 -10 19 3 61 8
94 11 l60 5 14 -47 c7 -27 14 -66 14 -88 l2 -40 -65 0 c-41 0 -70 -5 -79 -13
-9 -9 -16 -10 -20 -3 -4 5 -19 14 -33 20 -26 10 -27 13 -21 61 l6 51 -36 -21
c-20 -12 -41 -19 -46 -16 -19 12 -41 -6 -41 -35 0 -58 -67 -89 -118 -53 -20
14 -22 14 -22 0 0 -10 -8 -16 -22 -15 -17 1 -19 2 -5 6 18 5 24 33 7 33 -5 0
-10 -4 -10 -9 0 -12 -98 -33 -112 -25 -6 4 -71 8 -144 10 -123 2 -194 15 -194
35 0 7 62 24 130 34 47 8 73 22 65 35 -9 14 15 22 30 10 9 -8 15 -8 20 0 4 6
16 8 27 5 21 -7 108 15 108 27 0 4 -4 8 -10 8 -5 0 -10 7 -10 16 0 11 6 14 21
9 38 -13 93 -12 120 1 16 8 30 9 40 3 23 -14 59 -11 59 6 0 8 -7 15 -15 15
-23 0 -22 0 -64 15 -22 7 -41 12 -43 9 -3 -2 -13 5 -23 16 -16 17 -16 20 -2
20 9 0 19 -5 23 -11 9 -15 157 -6 162 9 2 7 14 1 28 -13 14 -14 31 -25 39 -25z"/>
<path d="M3510 8353 c-17 -70 -32 -184 -26 -200 8 -19 26 -16 27 5 0 14 2 14
8 -3 5 -11 7 -23 5 -26 -5 -9 27 -21 35 -14 3 3 0 9 -7 14 -9 5 -10 21 -1 67
6 32 15 63 20 69 12 12 11 2 -5 -68 -8 -35 -10 -60 -4 -63 14 -9 16 -4 27 65
10 63 16 79 26 69 5 -4 -2 -46 -21 -137 -5 -21 -4 -22 11 -8 8 9 18 37 21 64
8 61 24 111 46 142 26 36 31 21 9 -25 -18 -37 -51 -149 -51 -173 0 -6 6 -11
14 -11 8 0 18 22 26 60 7 33 19 65 26 71 8 6 14 23 14 38 0 14 5 33 10 41 8
13 10 13 10 -2 0 -9 7 -18 15 -20 13 -3 13 -6 1 -30 -8 -15 -12 -29 -9 -32 3
-2 -3 -30 -12 -61 -9 -32 -14 -59 -11 -62 11 -11 26 10 26 37 0 32 18 86 26
78 2 -3 0 -27 -6 -53 -12 -53 -6 -85 11 -68 6 6 12 32 14 59 5 77 6 81 15 50
5 -16 6 -49 3 -73 -5 -37 -3 -43 12 -43 16 0 17 7 12 73 -6 58 -4 68 5 52 7
-11 12 -46 12 -77 0 -41 4 -58 13 -58 30 0 9 142 -28 189 -23 29 -25 48 -3 30
26 -21 65 -119 71 -176 3 -29 10 -53 14 -53 13 0 11 71 -2 109 -16 46 -6 47
19 2 12 -21 23 -59 25 -82 2 -50 19 -59 27 -14 6 30 6 30 13 5 6 -21 9 -22 17
-10 8 13 10 12 10 -2 0 -10 5 -18 10 -18 16 0 11 33 -11 74 -11 22 -22 49 -23
60 -1 12 -7 30 -13 41 -6 11 -14 37 -18 58 -9 47 -25 48 -25 1 0 -41 -19 -37
-21 4 -2 24 -2 24 -6 5 -6 -31 -21 -29 -29 2 -5 20 -9 23 -20 14 -11 -9 -15
-8 -19 4 -5 10 -19 14 -51 13 -24 -1 -54 3 -67 8 -27 11 -117 14 -123 4 -3 -4
-11 -5 -19 -1 -9 3 -15 -1 -15 -9 0 -15 -30 -48 -43 -48 -7 0 -3 25 10 73 2 9
0 17 -6 17 -5 0 -15 -21 -21 -47z"/>
<path d="M2085 8223 c-22 -2 -55 -11 -72 -21 -25 -12 -35 -14 -44 -5 -8 8 -42
10 -108 6 -93 -5 -119 -11 -93 -20 6 -3 12 -13 12 -22 0 -27 95 -71 152 -71
41 0 50 4 77 37 29 35 31 36 54 20 14 -9 62 -23 108 -31 125 -22 148 -24 153
-11 2 7 33 12 77 13 40 1 75 5 78 7 2 3 -4 12 -15 20 -18 14 -18 14 7 15 14 0
30 -5 37 -12 8 -8 15 -8 28 3 9 8 19 13 21 12 1 -2 17 -3 35 -3 30 0 34 9 6
14 -7 2 -22 6 -33 10 -11 5 -32 12 -47 18 -14 5 -50 7 -81 3 -36 -5 -57 -3
-61 4 -4 6 -18 8 -32 5 -16 -4 -24 -2 -24 6 0 10 -3 10 -15 0 -14 -12 -76 -10
-155 3 -14 2 -43 2 -65 0z"/>
<path d="M4118 8175 c-8 -8 78 -72 125 -93 15 -6 37 -12 47 -12 13 0 20 -7 20
-19 0 -11 7 -26 15 -35 8 -8 15 -24 15 -36 0 -17 4 -20 20 -15 15 5 20 2 20
-13 0 -11 -6 -23 -12 -25 -8 -4 -7 -6 3 -6 9 -1 19 -10 22 -22 5 -18 8 -19 27
-7 13 7 32 19 44 25 11 7 15 13 7 13 -8 0 -11 6 -7 16 8 21 -11 44 -35 44 -11
0 -19 5 -19 11 0 6 -8 9 -19 6 -14 -3 -17 0 -14 14 4 15 1 18 -11 13 -11 -4
-16 -1 -16 10 0 9 -7 16 -16 16 -8 0 -13 4 -10 9 4 5 1 11 -6 13 -10 4 -10 10
0 32 10 22 18 27 35 23 187 -44 220 -46 257 -17 29 22 56 26 63 8 4 -10 8 -10
14 -2 4 7 16 13 25 15 12 3 15 8 8 18 -7 12 -11 12 -24 2 -12 -10 -22 -10 -51
0 -28 11 -38 11 -44 1 -5 -9 -16 -9 -42 -2 -18 6 -81 10 -139 9 -58 0 -148 3
-200 6 -52 4 -98 4 -102 0z"/>
<path d="M7405 8110 c-22 -5 -53 -13 -68 -19 -16 -6 -41 -11 -57 -11 -16 0
-32 -5 -36 -11 -3 -6 -17 -9 -30 -6 -13 2 -24 0 -24 -4 0 -8 30 -14 52 -10 50
7 78 8 78 4 0 -4 -8 -16 -17 -27 -18 -21 -18 -21 3 -3 11 9 28 17 37 17 9 0
19 5 22 10 3 6 1 10 -5 10 -6 0 -8 5 -5 10 12 19 40 10 65 -20 18 -22 30 -28
47 -24 26 7 31 -13 11 -46 -11 -16 -9 -22 7 -34 29 -22 32 -20 39 19 4 19 10
35 15 35 4 0 13 11 19 25 11 23 10 25 -14 25 -14 0 -23 4 -19 10 3 6 -1 10
-10 10 -11 0 -15 -5 -11 -16 3 -8 2 -12 -4 -9 -5 3 -12 21 -16 40 -7 38 -10
39 -79 25z"/>
<path d="M9805 7999 c-22 -4 -61 -12 -87 -17 -33 -6 -54 -17 -69 -35 -11 -15
-29 -27 -39 -27 -20 0 -34 -25 -31 -52 1 -12 -4 -18 -16 -18 -24 0 -43 19 -43
41 0 27 -16 32 -75 24 -52 -6 -55 -8 -61 -41 -6 -30 -24 -49 -24 -24 0 6 -11
10 -25 10 -34 0 -32 18 3 23 15 3 -2 3 -38 1 -36 -2 -85 -8 -110 -13 -49 -9
-103 -29 -82 -30 6 -1 12 -10 12 -21 0 -20 -2 -26 -33 -87 -15 -31 -15 -33 1
-32 9 0 30 16 45 34 l28 33 -23 8 -23 8 25 6 c14 4 24 12 22 18 -2 14 24 16
32 3 4 -5 0 -12 -6 -15 -7 -3 -4 -4 8 -1 11 3 28 -1 37 -8 17 -11 16 -15 -12
-45 -26 -31 -30 -32 -39 -16 -9 16 -13 17 -34 6 -23 -13 -37 -54 -16 -49 6 1
13 -4 15 -10 3 -7 -2 -13 -11 -13 -9 0 -16 -4 -16 -10 0 -20 24 -9 49 23 12
15 12 17 -2 12 -8 -4 -18 -1 -23 6 -5 9 -2 10 9 6 9 -3 18 -1 21 6 3 8 5 8 5
-2 1 -11 4 -11 16 -1 20 17 19 1 -2 -22 -9 -11 -11 -18 -5 -18 7 0 12 -5 12
-11 0 -5 -4 -8 -9 -5 -17 11 -43 -6 -38 -25 3 -11 0 -19 -6 -19 -6 0 -7 -3 -4
-6 4 -4 18 1 32 10 14 9 25 12 25 7 0 -5 -8 -12 -17 -15 -12 -5 -14 -9 -5 -18
7 -7 12 -16 12 -22 0 -5 -6 -2 -13 8 -12 17 -15 17 -29 2 -9 -8 -15 -24 -14
-33 2 -10 1 -12 -1 -5 -3 6 -8 13 -11 13 -34 7 -52 4 -57 -9 -4 -10 -1 -12 11
-8 14 5 15 4 4 -9 -7 -8 -16 -13 -20 -10 -4 3 -10 -4 -13 -15 -6 -21 -2 -20
46 12 15 11 27 15 27 10 0 -5 -10 -17 -22 -26 -15 -10 -17 -14 -5 -10 24 8 21
-3 -4 -17 -15 -8 -19 -8 -15 0 10 15 -7 14 -22 -1 -15 -15 -16 -42 -1 -32 6 3
15 1 19 -6 6 -9 13 -9 31 0 23 11 23 10 4 -5 -11 -8 -25 -13 -33 -10 -14 5
-52 -15 -52 -28 0 -4 5 -5 10 -2 17 11 32 -5 19 -21 -6 -8 -8 -14 -3 -14 5 -1
-3 -8 -18 -16 -29 -15 -37 -34 -16 -34 9 0 9 -3 0 -12 -14 -14 -16 -32 -2 -23
6 3 7 -1 4 -9 -3 -9 -1 -16 5 -16 11 0 15 13 11 39 -1 11 2 10 15 -2 19 -19 9
-44 -28 -74 -25 -19 -42 -43 -32 -43 3 0 19 14 34 31 25 27 32 29 50 20 17 -9
21 -9 21 3 0 7 7 16 15 20 8 3 15 2 15 -2 0 -9 -94 -102 -103 -102 -8 0 -47
-38 -47 -45 0 -11 56 25 83 53 20 21 35 28 52 24 15 -2 25 0 25 7 0 7 -4 10
-8 7 -5 -3 -9 2 -9 10 0 20 21 12 25 -10 6 -28 -107 -124 -116 -98 -2 6 -8 12
-14 12 -6 0 -8 -7 -5 -14 4 -11 1 -13 -10 -9 -11 4 -14 3 -9 -5 4 -7 1 -15 -8
-18 -24 -9 -19 -26 6 -18 12 3 53 26 92 49 68 41 134 66 122 47 -3 -6 6 -12
21 -15 24 -4 25 -4 10 7 -20 15 -12 26 19 26 12 0 25 6 27 13 4 8 6 8 6 0 1
-15 41 -4 65 19 23 21 9 24 -18 3 -11 -8 -25 -15 -30 -15 -6 0 13 16 42 36 30
20 57 33 60 29 4 -3 0 -10 -8 -15 -8 -6 -10 -10 -4 -10 14 0 76 65 68 72 -11
11 96 137 112 131 9 -3 14 1 14 12 0 9 -4 13 -10 10 -5 -3 -10 -1 -10 4 0 14
37 14 42 1 6 -17 48 1 48 21 0 23 30 14 31 -10 0 -10 2 -11 6 -3 8 20 23 14
24 -10 1 -21 2 -21 6 -3 3 11 9 25 15 32 6 8 3 15 -11 23 -24 12 -28 38 -7 46
8 3 24 0 36 -6 12 -6 25 -8 28 -4 4 4 1 9 -5 11 -22 8 -14 33 10 33 30 0 57
33 56 68 -1 20 -2 22 -6 7 -12 -55 -20 -60 -94 -60 -56 0 -73 -4 -83 -17 -18
-24 -30 -23 -23 2 4 16 0 20 -18 20 -13 0 -25 -6 -28 -14 -4 -9 -14 -12 -26
-9 -13 3 -21 1 -21 -7 0 -7 -7 -10 -15 -7 -8 4 -17 2 -20 -3 -4 -6 -15 -10
-25 -10 -13 0 -18 6 -15 20 2 11 1 19 -3 19 -20 -3 -20 4 2 39 14 20 28 50 32
65 4 19 11 26 23 23 21 -7 46 9 37 23 -11 17 -29 13 -22 -4 6 -16 -9 -21 -18
-6 -10 16 12 59 44 88 19 18 31 40 34 62 2 27 10 37 42 55 21 11 43 27 47 34
4 6 15 12 23 12 8 0 25 7 37 15 12 8 56 19 97 26 41 6 77 13 79 15 7 7 -72 2
-114 -7z m-525 -133 c0 -3 -4 -16 -10 -31 -9 -23 -8 -25 9 -15 25 13 31 13 31
0 0 -5 -8 -10 -17 -10 -13 0 -14 -3 -5 -12 9 -9 15 -8 26 7 9 13 11 22 4 26
-7 4 -6 9 1 14 7 4 24 -1 38 -10 24 -16 27 -16 38 -1 15 20 22 20 41 2 19 -19
18 -30 -6 -51 -11 -10 -20 -22 -20 -27 0 -12 -53 -78 -63 -78 -5 0 -5 5 -2 10
3 6 2 10 -3 10 -6 0 -12 7 -15 15 -5 11 -1 12 18 5 26 -10 38 -1 30 22 -3 8 6
25 20 38 14 13 25 29 25 36 0 7 -11 2 -25 -12 -14 -14 -25 -30 -25 -36 0 -5
-7 -8 -14 -5 -10 4 -13 1 -9 -8 4 -12 -2 -14 -27 -8 -26 5 -31 3 -25 -7 6 -10
4 -12 -7 -7 -10 3 -15 0 -14 -11 0 -9 -6 -17 -14 -17 -9 0 -15 9 -15 25 0 15
5 24 13 23 6 -2 11 3 10 10 -2 6 3 11 10 9 8 -1 11 2 7 8 -3 5 -15 10 -26 10
-11 0 -18 4 -15 9 7 10 -22 24 -34 16 -4 -3 -11 2 -14 11 -4 10 4 19 27 29 32
14 57 19 57 11z"/>
<path d="M3721 7789 c-22 -20 -23 -20 -37 -3 -11 15 -10 8 3 -26 21 -56 58
-117 75 -123 7 -2 10 -8 6 -12 -4 -4 -15 -4 -25 0 -10 5 -30 8 -45 7 -16 0
-28 4 -28 10 0 23 -72 116 -86 111 -9 -3 -14 2 -14 15 0 21 -17 32 -38 25 -10
-4 -10 -10 3 -30 11 -17 13 -28 6 -36 -7 -9 -2 -19 15 -36 24 -23 32 -19 15 9
-19 29 1 29 32 0 18 -16 35 -30 40 -30 4 0 7 -6 7 -14 0 -11 -8 -12 -36 -6
-48 11 -40 -8 11 -26 22 -7 47 -14 55 -14 24 -1 98 -39 76 -40 -24 0 -16 -9
13 -15 41 -8 61 -16 61 -26 0 -5 7 -9 15 -9 18 0 20 -16 3 -23 -7 -3 4 -6 25
-6 53 -1 48 -26 -8 -40 -32 -8 -43 -15 -39 -25 13 -34 -156 -28 -291 10 -89
25 -225 119 -210 144 3 5 0 18 -7 29 -11 17 -10 23 5 38 23 23 135 21 171 -2
24 -16 76 -12 76 5 0 8 -40 22 -70 25 -9 1 -27 8 -40 15 -13 7 -25 9 -27 4 -2
-6 -40 -9 -86 -8 -53 1 -85 -2 -89 -10 -12 -17 -9 -24 10 -29 16 -4 16 -5 0
-6 -22 -1 -24 -21 -3 -21 8 0 15 -6 15 -14 0 -8 11 -28 25 -44 14 -17 25 -34
25 -40 0 -5 15 -17 33 -25 18 -9 44 -26 58 -39 14 -13 49 -29 79 -37 70 -17
92 -29 84 -43 -5 -8 2 -9 23 -5 17 3 48 3 69 0 l39 -6 -29 -12 c-16 -7 -25
-15 -19 -18 5 -3 22 1 38 8 38 18 138 44 148 38 11 -6 8 -23 -4 -23 -6 0 -23
-9 -38 -19 -17 -12 -64 -26 -122 -34 -93 -15 -122 -15 -189 -1 -29 5 -33 4
-22 -7 8 -8 46 -15 107 -17 100 -5 159 6 228 40 l39 19 41 -28 c74 -52 92 -60
144 -67 49 -6 83 6 45 16 -10 3 -19 11 -19 19 0 8 -3 34 -6 59 l-7 45 17 -35
c8 -19 18 -30 20 -23 2 7 0 20 -6 31 -7 13 -7 23 2 32 9 10 9 11 -2 5 -9 -5
-12 -3 -9 5 7 22 26 22 33 0 12 -37 26 -10 23 44 -3 51 -4 52 -35 53 -23 1
-30 -3 -26 -13 3 -8 -1 -14 -11 -14 -11 0 -16 9 -16 28 0 15 -5 34 -10 42 -8
12 -10 11 -10 -7 0 -34 -17 -28 -36 12 -23 50 -32 51 -24 5 9 -48 1 -50 -28
-10 -27 36 -49 40 -26 5 23 -35 3 -32 -54 10 -27 19 -51 33 -53 30 -3 -2 -5 4
-5 14 0 11 6 17 13 14 8 -3 -4 21 -26 54 -41 63 -49 87 -36 116 11 27 1 29
-24 6z"/>
<path d="M7585 7729 c-56 -17 -138 -21 -147 -7 -5 8 -7 2 -4 -16 8 -43 20 -51
56 -36 27 11 32 11 44 -5 9 -13 15 -15 20 -7 4 7 16 12 27 12 27 0 18 -31 -25
-85 -17 -22 -40 -53 -50 -69 l-18 -29 25 7 c35 8 41 -6 15 -39 -14 -18 -17
-26 -8 -23 8 2 29 29 47 59 17 30 37 60 43 67 6 7 8 17 5 23 -4 6 0 18 8 27 8
9 19 32 25 50 10 28 9 32 -7 32 -14 0 -17 6 -13 25 5 27 2 28 -43 14z"/>
<path d="M8753 7642 c-16 -10 -49 -90 -58 -141 -8 -49 -36 -81 -112 -130 -29
-18 -53 -39 -53 -47 0 -8 -7 -14 -15 -14 -9 0 -18 -6 -21 -14 -3 -8 -12 -12
-20 -9 -17 6 -74 -16 -74 -29 0 -5 -5 -6 -10 -3 -6 4 -18 1 -26 -6 -10 -8 -18
-9 -25 -2 -7 7 -19 6 -38 -3 -16 -8 -46 -16 -67 -18 -22 -2 -56 -13 -77 -25
-21 -11 -44 -21 -53 -21 -8 0 -36 -11 -62 -25 -26 -14 -62 -25 -79 -25 -18 0
-33 -4 -33 -9 0 -5 -26 -17 -57 -27 -32 -9 -62 -20 -66 -24 -16 -14 11 -45 57
-68 25 -13 48 -27 51 -33 4 -5 16 -9 29 -9 29 0 183 -38 221 -55 54 -23 187
-65 229 -71 28 -5 50 -17 69 -37 19 -20 39 -30 57 -30 29 0 80 27 80 42 0 11
-46 31 -70 31 -31 0 -24 37 12 71 35 31 43 34 53 19 3 -5 15 -10 26 -10 13 0
19 7 19 23 0 13 -3 17 -8 10 -5 -8 -18 -9 -42 -3 -19 4 -28 8 -19 9 9 1 22 8
29 16 10 13 9 15 -9 15 -25 0 -27 13 -5 35 13 12 14 19 5 28 -15 15 -14 37 2
37 16 0 33 32 42 78 4 17 10 32 14 32 4 0 13 28 20 63 7 34 21 80 32 103 23
50 23 54 4 54 -19 0 -19 5 4 38 10 15 24 50 31 77 6 28 16 60 22 72 12 26 7
45 -9 35z"/>
<path d="M5530 7594 c0 -6 3 -14 7 -18 10 -10 31 -95 25 -101 -3 -3 -20 -5
-38 -5 -39 0 -111 -26 -139 -50 -11 -10 -25 -19 -31 -21 -19 -7 -84 -90 -84
-108 0 -18 70 -92 70 -75 1 5 8 0 18 -12 18 -22 82 -49 82 -35 0 5 -7 11 -15
15 -8 3 -12 12 -9 21 4 9 1 15 -8 15 -30 0 -37 21 -16 46 12 13 25 21 30 18 4
-3 15 2 24 11 15 15 15 16 -7 14 -50 -4 -60 0 -50 19 6 12 32 24 68 32 32 8
50 15 40 18 -10 2 -39 -4 -64 -12 -29 -10 -50 -13 -56 -7 -13 13 0 31 22 31
30 0 78 24 74 36 -4 12 27 24 65 24 19 0 22 -4 17 -20 -5 -14 -2 -20 9 -20 18
0 21 -16 6 -25 -11 -7 12 -35 29 -35 6 0 11 -9 11 -20 0 -20 -30 -34 -66 -30
-11 1 -26 1 -34 0 -8 -2 21 -6 65 -11 101 -9 118 -13 123 -27 2 -7 8 -10 13
-6 5 3 9 -4 9 -15 0 -18 7 -21 48 -23 75 -2 79 -3 94 -15 8 -7 31 -10 54 -8
21 2 31 2 22 -1 -24 -7 -23 -24 2 -24 10 0 28 10 40 22 17 18 20 19 20 5 0
-12 7 -16 28 -14 15 2 33 7 40 11 7 4 12 1 12 -8 0 -8 -8 -17 -17 -19 -11 -3
-7 -5 10 -6 19 -1 27 3 25 13 -2 8 1 15 5 15 5 0 16 8 24 18 13 16 14 17 9 1
-4 -13 0 -18 14 -18 11 0 20 6 20 14 0 18 -26 39 -39 32 -17 -11 -154 -15
-193 -7 -24 6 -40 5 -48 -3 -8 -8 -13 -8 -18 1 -4 6 -25 14 -47 18 -22 4 -56
17 -75 29 -19 13 -54 35 -77 49 -28 18 -43 35 -43 48 0 22 0 21 59 -18 19 -13
41 -23 50 -23 9 1 0 9 -19 20 -49 27 -96 67 -88 75 4 4 13 3 20 -1 15 -10 38
-14 38 -8 0 3 -11 9 -25 14 -34 13 -32 35 5 52 36 15 40 37 6 31 -31 -6 -84
21 -118 61 -16 17 -28 26 -28 20z"/>
<path d="M4425 7373 c3 -25 10 -54 16 -64 5 -10 9 -22 8 -26 -3 -19 2 -33 11
-33 6 0 10 7 10 15 0 8 5 15 11 15 6 0 8 -7 5 -16 -4 -10 1 -25 11 -36 13 -15
14 -21 4 -31 -10 -9 -11 -9 -6 5 4 11 -1 20 -14 28 -27 14 -27 14 3 -130 62
-296 143 -618 167 -662 20 -37 11 -44 -78 -62 -49 -9 -108 -21 -133 -26 -25
-6 -59 -12 -76 -15 l-30 -5 -12 73 c-7 41 -19 82 -27 93 -7 11 -13 42 -13 68
0 63 -8 68 -22 15 -7 -24 -14 -47 -17 -52 -2 -4 -30 6 -61 23 -31 16 -59 26
-63 22 -4 -4 -9 -65 -13 -137 -3 -71 -9 -160 -12 -197 l-7 -67 -41 -6 c-23 -3
-67 -6 -99 -8 -31 -1 -57 -6 -57 -12 0 -5 10 -10 23 -10 13 0 21 -5 19 -13 -2
-10 5 -12 28 -7 36 8 40 -7 5 -23 -22 -10 -24 -15 -15 -32 13 -24 -4 -28 -18
-5 -5 10 -15 13 -25 9 -19 -7 -23 -29 -6 -39 6 -4 8 -13 5 -21 -7 -18 9 -18
39 2 23 15 24 14 39 -14 17 -34 14 -42 -15 -35 -14 4 -19 12 -16 24 7 25 2 24
-39 -8 -18 -16 -34 -36 -34 -45 0 -11 -8 -18 -20 -18 -24 0 -25 -6 -5 -26 9
-9 23 -13 35 -9 11 3 20 2 20 -3 0 -6 10 -8 22 -4 17 4 20 2 15 -11 -8 -21 7
-30 34 -22 12 4 19 14 17 23 -4 23 57 64 91 60 24 -3 26 -7 29 -65 2 -33 -1
-64 -7 -67 -11 -7 -3 -46 10 -46 5 0 9 -7 9 -15 0 -8 7 -15 15 -15 17 0 20
-16 5 -25 -14 -9 -12 -47 5 -68 14 -19 10 -51 -5 -42 -11 7 -23 -32 -15 -45 3
-5 12 -10 20 -10 14 0 23 -40 27 -120 1 -25 8 -54 15 -66 7 -12 11 -29 7 -38
-4 -10 -1 -16 7 -16 10 0 9 -4 -3 -16 -14 -14 -14 -20 -2 -42 9 -17 10 -30 4
-36 -15 -15 -12 -26 6 -26 14 0 16 -8 12 -45 -3 -25 -2 -42 3 -39 5 3 8 -18 6
-46 -2 -33 2 -55 10 -62 10 -8 10 -14 2 -25 -9 -10 -8 -18 6 -33 17 -19 17
-20 0 -20 -13 0 -16 -6 -13 -25 5 -21 3 -23 -14 -14 -11 6 -22 8 -26 5 -3 -3
0 -6 7 -6 6 0 11 -8 9 -17 -2 -10 2 -18 7 -19 41 -4 65 -18 65 -38 0 -11 10
-79 21 -150 21 -124 21 -130 4 -142 -10 -7 -23 -15 -29 -17 -15 -5 -12 -113 3
-131 8 -10 23 -13 41 -10 27 6 28 4 35 -45 6 -48 5 -54 -20 -77 -14 -13 -27
-37 -28 -52 -2 -23 2 -27 21 -24 15 2 22 -2 22 -14 0 -10 -10 -29 -22 -42
l-23 -24 31 6 c29 7 32 5 36 -23 3 -23 -1 -32 -18 -42 -31 -16 -37 -36 -21
-67 8 -18 19 -26 31 -24 12 2 17 -1 13 -10 -21 -52 -21 -51 1 -43 15 4 22 2
22 -7 1 -15 21 -173 45 -343 10 -66 20 -145 24 -175 12 -88 19 -31 31 230 6
151 15 255 25 290 28 99 19 379 -20 625 -7 50 -19 158 -25 240 -6 83 -22 224
-36 315 -13 91 -45 302 -69 470 -25 168 -51 346 -59 395 -7 50 -12 92 -10 95
1 3 27 7 57 8 53 2 118 13 163 27 19 6 22 2 29 -32 9 -52 14 -57 35 -38 10 9
24 15 32 14 29 -5 68 13 68 32 0 10 7 19 15 19 31 0 13 -28 -46 -68 -33 -23
-64 -40 -69 -37 -9 6 -22 -23 -16 -34 5 -7 27 -144 41 -251 3 -25 10 -52 15
-60 8 -13 11 -12 22 3 11 15 18 16 42 8 15 -6 32 -8 38 -5 7 4 8 -8 3 -35 -9
-55 25 -111 68 -111 34 0 36 22 2 40 -30 16 -33 34 -5 27 11 -3 17 -1 14 4 -3
5 -5 27 -6 48 0 30 -5 40 -19 44 -11 3 -19 14 -19 24 0 10 -4 23 -10 29 -5 5
-7 19 -4 32 5 18 14 22 43 22 32 0 39 5 58 40 l21 40 -21 12 c-12 6 -27 18
-33 26 -5 7 -17 13 -25 11 -30 -6 -56 12 -73 52 -10 22 -16 41 -15 43 17 12
91 27 105 22 10 -4 21 -2 24 5 10 14 50 -10 51 -31 0 -13 1 -13 6 0 3 8 17 27
31 43 21 22 23 27 9 27 -9 0 -22 -9 -29 -20 -7 -11 -16 -20 -20 -20 -15 0 -8
21 16 45 24 24 29 25 113 19 60 -4 91 -10 96 -20 12 -20 54 -17 70 5 9 14 30
22 68 26 101 11 104 12 101 26 -4 17 -53 58 -69 59 -7 0 -13 5 -13 10 0 6 -6
10 -14 10 -8 0 -18 10 -22 23 -7 21 -7 21 -15 2 -7 -18 -8 -17 -8 6 -2 53 -34
104 -106 172 -76 70 -92 101 -79 151 11 46 94 49 109 4 7 -22 8 -22 12 5 7 44
-2 54 -47 55 -32 2 -99 -19 -100 -31 0 -1 -7 -20 -15 -42 l-14 -40 -1 35 c-1
19 -4 29 -7 22 -8 -20 -23 -3 -23 27 0 15 -3 31 -7 35 -5 4 -8 13 -8 19 0 7
-7 12 -15 12 -10 0 -15 10 -15 31 0 19 -11 44 -27 65 -16 18 -28 40 -28 50 0
9 -11 25 -25 35 -14 10 -23 25 -20 32 3 8 -1 20 -9 28 -8 7 -12 23 -9 35 3 12
1 24 -4 28 -21 13 -103 141 -103 159 0 11 -6 25 -14 31 -8 7 -18 27 -22 44 -3
18 -10 34 -14 37 -9 6 -53 101 -54 115 -1 6 -4 12 -7 15 -4 3 -16 24 -28 48
-12 23 -26 40 -31 37 -6 -4 -10 -1 -10 4 0 6 -7 11 -15 11 -7 0 -18 6 -22 13
-4 8 -16 17 -26 20 -17 6 -18 3 -12 -40z m265 -603 c0 -21 5 -42 10 -45 6 -3
10 1 10 9 0 8 5 18 11 22 8 5 10 -1 7 -20 -3 -17 -1 -26 7 -26 15 0 21 -22 31
-107 4 -43 11 -63 20 -63 9 0 14 -11 14 -31 0 -27 -3 -31 -23 -27 -18 4 -23 0
-23 -16 1 -16 -5 -21 -27 -22 -22 -1 -28 4 -33 25 -3 14 -10 34 -15 44 -8 15
-6 20 9 24 18 4 19 12 13 67 -1 5 -8 3 -16 -4 -12 -10 -17 -8 -26 14 -7 14
-16 23 -20 20 -5 -3 -9 6 -9 20 0 16 6 26 14 26 20 0 25 21 16 71 -5 27 -4 49
2 56 16 20 28 5 28 -37z m-15 -485 c17 -42 27 -53 80 -88 83 -56 209 -152 209
-161 1 -11 -391 -8 -414 3 -8 4 -30 7 -48 5 -37 -2 -41 3 -47 48 -5 40 18 68
54 67 25 -1 25 -2 -4 -9 -28 -7 -27 -8 13 -9 33 -1 42 -5 43 -18 0 -13 3 -11
10 7 6 13 14 27 19 30 5 3 10 23 13 45 4 41 36 114 49 115 4 0 14 -16 23 -35z"/>
<path d="M10326 7265 c5 -13 2 -14 -21 -5 -23 9 -31 7 -46 -9 -17 -18 -17 -19
2 -24 30 -8 8 -43 -34 -55 -17 -6 -40 -13 -50 -17 -14 -6 -16 -3 -11 11 5 15
3 14 -10 -3 -10 -13 -22 -23 -27 -23 -6 0 -24 -13 -41 -30 -16 -16 -36 -30
-44 -30 -8 0 -14 -9 -14 -20 0 -22 -10 -26 -27 -9 -6 6 -17 9 -24 7 -21 -7 46
-36 111 -49 70 -14 140 -5 169 20 12 10 21 21 21 25 0 12 71 119 106 160 33
39 37 60 9 49 -8 -3 -15 0 -15 6 0 6 -13 11 -30 11 -22 0 -28 -4 -24 -15z"/>
<path d="M1690 7230 c-19 -11 -46 -19 -59 -20 -13 0 -29 -7 -36 -17 -12 -16
-40 -9 -30 8 3 5 -1 6 -10 3 -9 -4 -15 -3 -13 2 2 5 -1 10 -7 11 -24 6 -95
-25 -95 -40 0 -6 9 -2 20 8 16 15 20 15 20 3 0 -8 -9 -23 -20 -33 -11 -10 -18
-20 -15 -23 11 -12 56 -10 61 2 4 11 14 11 47 3 23 -6 47 -16 52 -23 6 -7 25
-15 43 -19 25 -5 32 -3 32 8 0 24 -30 48 -50 42 -15 -5 -19 -1 -18 25 1 26 5
30 30 30 33 0 88 25 88 40 0 12 2 13 -40 -10z"/>
<path d="M2859 6851 c-20 -16 -24 -28 -23 -67 1 -53 5 -58 127 -141 38 -26 76
-57 84 -70 20 -30 10 -82 -20 -105 -27 -22 -6 -23 33 -3 35 18 44 43 35 96 -7
42 -24 58 -159 154 -31 22 -59 48 -62 57 -7 23 5 78 17 78 5 0 9 5 9 10 0 15
-15 12 -41 -9z"/>
<path d="M3178 6807 c6 -7 15 -64 21 -128 5 -63 14 -126 20 -141 11 -29 60
-68 87 -68 14 0 11 6 -14 31 -18 17 -33 45 -36 62 -15 99 -25 228 -20 241 5
13 -1 16 -31 16 -29 0 -35 -3 -27 -13z"/>
<path d="M3914 6794 c9 -8 16 -23 16 -33 0 -10 3 -21 7 -25 4 -3 8 -17 10 -29
12 -98 52 -212 68 -196 4 5 -39 207 -49 231 -4 9 -6 25 -4 34 5 28 105 20 136
-10 46 -45 30 -117 -31 -135 l-32 -9 41 -1 c70 -2 106 50 80 114 -22 51 -78
74 -179 75 -71 0 -77 -1 -63 -16z"/>
<path d="M1915 6660 c-3 -11 -3 -25 0 -30 4 -6 2 -17 -5 -25 -7 -8 -10 -43 -9
-87 2 -82 -1 -110 -16 -120 -7 -5 -6 -14 3 -28 16 -26 15 -50 -2 -50 -19 0
-29 -46 -15 -72 11 -21 12 -21 25 -3 12 16 14 16 14 3 0 -9 -4 -28 -9 -41 -8
-19 -6 -27 5 -31 8 -3 14 -17 14 -32 0 -22 -2 -25 -15 -14 -13 11 -15 8 -15
-18 0 -19 -7 -35 -17 -40 -14 -8 -15 -14 -4 -40 16 -39 36 -46 59 -22 11 11
34 20 62 22 43 3 45 4 43 33 0 17 -11 84 -23 150 -25 136 -27 149 -34 190 -2
17 -10 53 -16 80 -6 28 -14 68 -17 90 -3 22 -10 45 -15 52 -5 7 -7 21 -3 33 3
11 4 20 1 20 -2 0 -7 -9 -11 -20z"/>
<path d="M8886 6603 c-9 -43 -28 -132 -42 -198 -40 -196 -51 -243 -84 -380
-32 -128 -104 -325 -175 -479 -60 -130 -92 -218 -106 -287 -6 -35 -13 -65 -14
-67 -6 -8 -35 12 -35 24 0 8 -6 14 -13 14 -7 0 -23 10 -37 23 -14 13 -33 26
-42 30 -27 10 -22 52 22 200 22 73 39 144 39 157 -1 14 3 37 9 51 6 15 8 35 6
45 -3 11 7 46 21 78 31 71 26 84 -9 24 -56 -97 -299 -616 -292 -626 2 -4 7
-26 10 -47 3 -22 10 -60 16 -85 6 -25 12 -91 14 -147 1 -57 7 -108 14 -115 6
-8 9 -30 7 -51 -1 -21 1 -37 7 -37 6 0 4 -10 -4 -22 -15 -23 -18 -124 -4 -147
13 -21 23 -11 30 30 4 23 12 51 18 62 l11 21 8 -23 c7 -16 14 -21 28 -16 21 6
54 -28 76 -82 12 -29 25 -39 39 -30 3 1 15 -8 28 -19 13 -12 33 -25 46 -29 21
-6 22 -10 22 -133 0 -222 -53 -865 -80 -972 -5 -19 -14 -75 -20 -125 -11 -93
-38 -279 -66 -444 -8 -52 -22 -115 -30 -140 -15 -48 -66 -154 -88 -183 -15
-20 -164 -48 -270 -51 -60 -2 -71 1 -74 16 -4 21 88 117 114 118 16 0 15 2 -3
9 -14 6 -21 15 -17 24 3 9 -3 17 -15 21 -12 3 -19 10 -16 15 7 11 -20 20 -60
20 -24 0 -38 -6 -45 -21 -9 -15 -15 -18 -24 -10 -10 8 -17 7 -26 -3 -8 -10
-22 -13 -41 -9 -22 4 -29 2 -29 -10 0 -9 -9 -21 -21 -28 -19 -10 -20 -9 -14
13 l7 23 -16 -22 c-22 -29 -119 -237 -136 -288 -13 -41 -20 -57 -111 -260 -53
-120 -85 -165 -114 -165 -8 0 -15 -5 -15 -11 0 -18 25 -4 116 63 47 35 124 91
172 125 191 136 342 256 335 266 -3 5 -2 7 4 4 5 -4 28 7 50 23 40 30 41 30
189 31 l149 2 47 48 c51 52 83 130 67 161 -14 26 1 29 116 23 63 -4 104 -2
101 3 -3 5 -49 12 -102 14 -64 4 -100 10 -110 20 -30 30 -43 224 -25 368 14
102 31 191 41 211 7 12 6 19 -3 22 -6 3 5 6 26 6 34 1 37 -1 28 -18 -12 -21
-5 -31 21 -31 13 0 18 7 18 25 0 27 13 31 54 16 18 -8 23 -15 19 -30 -4 -17
-1 -21 17 -21 15 0 20 5 17 14 -3 8 1 20 9 27 10 8 12 15 4 23 -5 5 -10 25
-10 43 0 44 -17 42 -58 -4 -27 -31 -34 -35 -42 -23 -5 8 -10 27 -10 42 0 37
-13 42 -44 17 -28 -22 -44 -20 -30 3 5 7 10 22 11 33 2 11 6 31 10 45 3 14 5
30 4 36 -1 7 10 15 24 18 31 8 32 20 3 40 -12 9 -17 16 -10 16 6 0 12 11 12
25 0 13 4 34 9 47 5 13 15 45 22 71 12 48 13 49 44 43 27 -5 33 -3 38 14 7 26
27 26 34 0 3 -11 10 -20 17 -21 6 0 30 -3 54 -5 41 -5 42 -4 36 20 -6 27 30
91 46 81 5 -3 8 -30 5 -60 -3 -49 -2 -55 16 -55 13 0 19 7 19 23 l1 22 18 -22
c28 -33 144 -60 206 -49 31 6 34 10 29 30 -9 38 11 38 45 0 25 -26 39 -34 59
-32 16 2 27 9 27 18 0 26 34 24 44 -3 9 -22 15 -25 53 -23 35 2 43 6 44 22 1
10 2 34 3 52 1 25 5 32 21 32 17 0 20 -7 20 -43 0 -48 13 -67 46 -67 34 0 54
27 54 70 0 21 5 42 11 46 8 5 10 -11 7 -55 -3 -46 -1 -61 9 -61 7 0 13 12 13
28 l1 27 20 -27 c26 -35 42 -35 68 0 l20 27 1 -24 c0 -21 3 -23 32 -17 41 8
58 24 39 35 -9 6 -11 20 -6 50 4 26 3 41 -4 41 -5 0 -13 -20 -17 -45 -8 -59
-20 -65 -27 -14 -9 68 -27 66 -47 -6 -16 -57 -35 -53 -35 6 l0 44 -52 3 -53 3
0 -44 c0 -28 -6 -49 -15 -57 -24 -20 -38 2 -34 53 4 45 4 45 -31 51 -65 11
-110 7 -110 -9 0 -8 6 -15 14 -15 16 0 29 -44 21 -71 -7 -22 -24 -25 -29 -6
-20 62 -41 107 -51 107 -6 0 -22 -22 -35 -50 -13 -27 -27 -50 -32 -50 -7 0 -5
54 3 90 3 9 -5 16 -19 18 -22 3 -23 1 -17 -27 9 -42 -7 -39 -44 6 -37 45 -49
38 -53 -37 -3 -54 -4 -55 -35 -58 -18 -2 -42 2 -53 8 -19 10 -21 19 -18 68 l3
57 -38 3 c-21 2 -44 -2 -52 -8 -9 -8 -14 -6 -19 6 -5 13 -17 16 -61 12 -30 -3
-55 -1 -55 4 0 4 -14 8 -30 8 l-30 0 24 -48 c15 -30 21 -53 16 -62 -9 -15 -19
1 -40 67 -15 48 -32 59 -55 36 -9 -8 -19 -12 -22 -9 -15 14 5 153 27 197 9 17
50 177 55 214 1 11 10 49 19 85 9 36 32 146 52 245 20 99 38 191 41 205 3 14
11 30 18 35 7 6 12 28 11 49 -1 28 4 42 19 52 18 13 18 14 1 14 -14 0 -16 5
-11 29 4 18 2 32 -6 36 -8 6 -5 13 11 25 21 16 22 21 13 58 -6 23 -7 42 -2 44
5 2 10 21 12 43 1 22 6 45 9 51 4 6 10 28 12 48 3 21 11 45 18 54 11 14 11 15
-5 9 -11 -4 -16 -3 -12 3 4 6 8 32 11 58 3 43 10 65 35 113 4 9 5 20 2 23 -4
3 -7 40 -7 81 -1 55 -6 79 -16 86 -12 7 -12 11 -2 17 24 16 61 74 55 89 -7 18
16 62 31 59 6 -2 8 -1 4 1 -5 3 -8 18 -8 34 0 21 4 27 15 23 8 -3 19 -3 25 1
15 9 -9 38 -27 31 -7 -3 -13 1 -13 9 0 8 7 15 15 15 8 0 15 9 15 19 0 10 -7
21 -15 25 -20 7 -19 34 3 75 15 27 25 34 55 37 20 2 45 8 55 14 13 8 5 10 -37
8 -36 -1 -56 2 -59 10 -7 21 17 40 59 47 40 7 50 19 24 29 -8 3 -15 18 -15 33
0 16 -4 42 -9 59 -7 24 -5 36 10 55 10 13 19 27 19 31 0 9 74 92 119 135 l35
33 -60 -1 c-32 0 -53 -3 -46 -6 27 -11 10 -46 -63 -135 -16 -21 -33 -38 -36
-38 -4 0 -16 22 -28 49 -15 37 -21 70 -21 129 l0 79 -47 19 c-27 11 -51 20
-54 22 -3 1 -13 -32 -23 -75z"/>
<path d="M9350 6554 c0 -1 6 -13 13 -27 11 -21 16 -24 27 -14 11 9 11 8 0 -7
-19 -24 -21 -34 -27 -161 -3 -67 -10 -118 -19 -132 -13 -20 -12 -21 37 -25 56
-3 64 -1 48 18 -5 7 -11 79 -12 168 -2 130 1 158 13 166 8 5 13 10 10 11 -10
1 -90 4 -90 3z"/>
<path d="M9580 6534 c0 -9 -31 -49 -70 -88 -38 -40 -70 -76 -70 -80 0 -5 30
-40 68 -79 37 -39 75 -79 85 -89 10 -10 29 -23 43 -28 25 -10 25 -30 0 -30 -8
0 -19 -7 -27 -16 -11 -13 -27 -14 -104 -9 -90 7 -92 7 -108 -19 -9 -14 -17
-28 -17 -31 0 -8 36 -6 44 2 7 8 88 4 96 -4 3 -2 -4 -11 -14 -19 -20 -14 -20
-14 0 -14 10 0 28 7 38 15 10 8 23 12 27 9 5 -3 9 0 9 5 0 6 5 11 10 11 6 0
10 -6 10 -14 0 -21 18 -30 34 -17 7 6 16 7 20 3 4 -4 14 1 21 11 18 24 120 34
129 12 3 -8 12 -12 20 -9 10 4 13 0 10 -13 -4 -15 1 -18 25 -17 17 1 34 3 39
4 4 2 12 4 17 4 6 1 19 7 30 13 11 6 42 14 69 18 46 7 48 7 41 -14 -8 -28 9
-27 37 1 16 16 37 23 80 26 65 5 74 18 32 51 -24 19 -91 43 -121 44 -6 0 -9 6
-6 14 4 9 -5 13 -31 13 -20 0 -36 -4 -36 -10 0 -5 -6 -10 -14 -10 -22 0 -66
-40 -60 -54 3 -8 1 -17 -4 -20 -6 -3 -12 1 -16 9 -3 8 -12 15 -21 15 -18 0
-20 16 -2 23 6 3 2 6 -11 6 -33 1 -72 30 -72 53 0 10 4 17 9 14 5 -3 11 1 14
9 4 9 1 12 -9 8 -11 -4 -14 0 -10 18 3 13 8 73 12 132 6 104 7 109 32 120 l25
12 -24 6 c-62 18 -143 4 -93 -15 15 -6 16 -20 10 -124 -10 -178 -29 -222 -89
-207 -26 7 -94 72 -156 149 l-40 49 27 27 c50 48 127 107 150 114 40 13 23 26
-33 26 -44 0 -55 -3 -55 -16z"/>
<path d="M6904 6508 c-2 -4 5 -9 15 -13 11 -3 34 -27 50 -53 17 -26 51 -74 75
-107 41 -54 45 -65 45 -117 1 -33 5 -58 11 -58 6 0 1 -10 -10 -22 l-21 -23 42
-7 c50 -9 58 -5 36 20 -12 13 -17 37 -17 80 0 50 5 70 31 114 35 59 76 111
128 164 l35 34 -52 0 c-48 0 -69 -12 -39 -23 8 -3 5 -12 -10 -29 -13 -13 -23
-27 -23 -31 0 -10 -68 -115 -79 -121 -5 -4 -31 26 -58 66 -26 40 -52 76 -58
80 -7 5 -6 14 3 28 6 11 12 21 12 24 0 6 -112 1 -116 -6z"/>
<path d="M7422 6507 c24 -19 35 -359 12 -381 -7 -8 -14 -16 -14 -18 0 -2 23
-4 50 -4 46 -1 49 1 35 16 -23 26 -22 356 2 382 15 17 14 18 -43 18 -50 -1
-56 -3 -42 -13z"/>
<path d="M7654 6503 c4 -12 -18 -46 -64 -103 -38 -47 -69 -89 -70 -93 0 -5 46
-56 103 -113 82 -83 108 -104 131 -104 30 0 35 -7 -162 211 l-23 27 68 69 c37
38 80 78 96 87 40 27 33 36 -29 36 -48 0 -55 -2 -50 -17z"/>
<path d="M6676 6486 c-3 -14 -20 -48 -36 -76 -17 -28 -30 -58 -30 -66 0 -9 -8
-28 -19 -42 -10 -15 -31 -56 -46 -92 -16 -36 -38 -76 -49 -89 l-21 -24 22 14
c18 11 25 11 35 1 19 -19 25 -14 21 16 -2 16 6 44 20 67 l23 40 95 3 96 3 23
-53 c17 -40 20 -56 12 -69 -10 -15 -8 -17 13 -15 13 1 30 8 38 15 16 12 10 28
-44 131 -11 19 -35 67 -55 105 -56 111 -61 118 -67 103 -3 -7 -4 0 -4 16 2 36
-18 45 -27 12z m52 -116 c49 -106 47 -110 -43 -110 -58 0 -75 3 -75 14 0 18
70 166 79 166 4 0 21 -32 39 -70z"/>
<path d="M7840 6504 c0 -4 7 -12 14 -18 12 -9 16 -48 18 -188 3 -167 2 -178
-17 -192 -11 -9 -18 -16 -15 -16 3 0 32 -2 65 -5 59 -3 60 -3 38 14 -20 17
-22 27 -24 196 -3 157 -1 179 14 190 9 6 14 15 10 18 -8 9 -103 9 -103 1z"/>
<path d="M5798 6309 c2 -126 0 -195 -7 -202 -20 -20 -11 -22 72 -19 166 5 183
9 201 47 23 48 20 51 -18 11 -33 -36 -34 -36 -115 -36 l-81 0 -1 128 c-2 216
-1 232 11 247 11 13 7 15 -26 15 l-39 0 3 -191z"/>
<path d="M6170 6480 c6 -12 10 -33 9 -48 -1 -15 -1 -89 -1 -164 2 -117 4 -138
17 -138 24 0 26 16 28 192 l2 163 55 1 c69 2 107 -17 126 -62 13 -30 13 -38
-2 -67 -23 -44 -52 -67 -86 -67 -15 0 -28 -4 -28 -10 0 -16 48 -11 95 10 71
32 93 95 56 156 -24 40 -74 54 -190 54 -89 0 -91 -1 -81 -20z"/>
<path d="M86 6483 c-3 -4 -16 -7 -29 -8 -24 -2 -44 -33 -49 -80 -2 -24 1 -30
15 -29 22 2 22 -7 -3 -34 -18 -19 -20 -35 -20 -141 0 -113 1 -120 21 -126 17
-6 19 -9 8 -16 -11 -6 -9 -9 8 -9 12 0 25 -4 28 -10 4 -6 -8 -10 -29 -10 l-36
0 0 -143 0 -142 44 -11 c27 -6 54 -6 68 -1 13 5 37 6 55 3 l32 -5 -30 30 c-30
29 -31 49 -3 49 8 0 14 5 14 10 0 6 8 10 19 10 22 0 39 -66 22 -83 -16 -16
-14 -24 13 -49 13 -13 27 -33 30 -45 7 -21 6 -21 -21 -9 -15 8 -39 17 -53 21
-24 6 -24 6 5 -19 17 -14 45 -33 63 -43 36 -20 41 -33 13 -33 -11 0 -35 14
-53 30 -31 28 -66 42 -53 20 3 -5 13 -10 21 -10 15 0 19 -16 6 -24 -11 -7 -62
41 -62 59 0 19 -62 47 -97 43 l-28 -3 -2 -98 -3 -98 37 3 c30 2 39 -1 49 -21
10 -20 10 -28 -3 -48 -8 -12 -24 -23 -34 -23 -23 0 -25 16 -2 28 14 8 13 11
-7 17 -15 5 -25 2 -31 -6 -11 -17 -12 -509 -1 -509 4 0 18 -16 31 -35 24 -35
45 -48 35 -20 -6 16 12 45 27 45 5 0 9 -6 9 -14 0 -7 7 -27 15 -42 8 -16 15
-39 15 -52 0 -13 12 -39 26 -58 l27 -34 -24 4 c-13 3 -29 5 -34 5 -6 1 -17 16
-23 35 -16 43 -42 56 -42 21 0 -18 -5 -25 -20 -25 -23 0 -26 10 -8 28 19 19
-6 40 -27 22 -12 -10 -15 -40 -15 -166 l0 -153 36 6 c31 5 35 3 32 -13 -3 -16
3 -18 45 -15 37 2 47 -1 47 -13 0 -12 8 -15 32 -12 18 2 48 2 66 -1 26 -5 30
-8 21 -20 -15 -18 -6 -27 20 -18 11 3 18 12 15 19 -4 9 7 16 31 20 43 8 57 0
32 -19 -16 -12 -16 -13 7 -17 29 -6 56 8 56 27 0 20 25 19 55 -1 23 -15 25
-15 25 1 0 9 9 19 20 22 11 3 20 11 20 18 0 8 8 11 21 8 21 -6 21 -6 3 22
l-19 28 32 -6 c38 -7 48 1 27 24 -26 29 3 33 39 5 40 -31 45 -32 43 -8 0 10 6
16 17 16 9 -1 17 2 17 7 0 5 6 9 14 9 18 0 -24 87 -60 123 -34 34 -26 44 17
23 18 -9 38 -16 46 -16 7 0 17 -8 20 -17 10 -27 25 -33 41 -16 12 12 13 19 4
34 -18 29 -14 33 13 15 29 -19 34 -8 6 16 -11 9 -28 14 -40 11 -16 -4 -21 -1
-21 15 0 11 -6 22 -12 24 -8 3 -4 10 10 17 29 16 52 8 52 -18 0 -21 27 -41 54
-41 22 0 20 17 -1 23 -15 4 -16 5 -2 6 9 0 19 10 22 21 4 16 11 19 36 14 37
-8 41 3 6 16 -30 11 -33 30 -5 30 11 0 20 4 20 9 0 13 -26 32 -33 24 -4 -3
-22 2 -41 12 -27 15 -35 26 -40 57 -4 24 -12 38 -21 38 -8 0 -15 7 -15 15 0
11 -12 15 -50 15 -40 0 -48 -3 -44 -15 6 -14 19 -19 67 -27 27 -4 20 -22 -13
-33 -16 -5 -39 -18 -50 -28 -12 -10 -26 -17 -32 -15 -14 5 -20 58 -7 58 5 0 9
-7 9 -15 0 -17 18 -19 40 -5 13 8 11 13 -10 32 -14 13 -31 35 -38 51 -7 17
-19 27 -33 27 -17 0 -19 -3 -10 -14 10 -12 9 -14 -5 -12 -24 4 -38 34 -24 52
10 11 9 14 -9 14 -12 0 -19 4 -16 10 10 16 58 1 80 -25 11 -13 34 -26 51 -29
26 -6 36 -2 55 17 40 41 51 65 39 87 -9 16 -8 20 5 20 9 0 24 -4 33 -9 12 -6
30 -3 57 10 22 10 59 18 82 19 41 0 63 -13 43 -25 -15 -9 -12 -25 5 -25 11 0
15 11 15 36 0 34 1 35 29 29 21 -4 30 -2 34 9 4 9 14 16 22 16 32 0 4 18 -39
24 -43 7 -43 7 -43 47 0 23 -5 44 -11 48 -14 8 -51 91 -52 114 0 9 5 17 10 17
6 0 10 11 10 25 0 14 -4 25 -10 25 -5 0 -7 -7 -3 -16 4 -12 2 -15 -8 -12 -8 2
-15 17 -17 32 -2 15 -17 50 -33 77 -16 28 -29 53 -29 57 0 4 -12 18 -25 31
-21 19 -32 22 -63 18 -20 -4 -38 -11 -40 -17 -6 -18 -32 -11 -32 9 0 15 -5 18
-22 14 -50 -11 -52 -12 -34 -31 21 -24 20 -45 -4 -67 -19 -17 -20 -17 -30 9
-5 15 -10 38 -10 51 0 13 -4 26 -9 29 -5 3 -9 51 -9 105 0 85 2 101 16 104 15
4 15 5 0 6 -13 1 -18 10 -19 34 -1 17 0 37 2 42 2 6 3 29 3 53 1 25 7 46 15
51 7 5 11 13 8 17 -3 5 23 9 56 10 77 0 220 14 214 20 -3 3 -64 5 -137 6
l-132 1 6 32 c5 23 1 39 -12 56 -10 13 -24 43 -30 65 -14 49 -35 61 -68 39
-19 -12 -22 -21 -17 -45 3 -19 1 -30 -5 -30 -6 0 -20 -9 -30 -20 -18 -19 -18
-19 -18 30 0 65 -13 78 -58 62 -46 -17 -92 -1 -75 26 8 13 9 28 2 48 -12 35
-42 45 -50 16 -4 -17 -13 -21 -44 -20 -22 0 -45 -4 -52 -10 -16 -13 -66 -13
-74 1 -3 5 -7 19 -8 31 -1 11 -3 24 -4 27 -2 10 -28 18 -35 12z m418 -559 c9
-8 16 -23 16 -33 0 -9 7 -26 15 -37 23 -30 19 -71 -7 -80 l-23 -7 23 -8 c15
-6 21 -13 15 -21 -4 -7 -6 -22 -4 -33 3 -16 1 -17 -13 -6 -9 8 -19 11 -22 8
-11 -11 7 -27 47 -38 27 -9 38 -17 34 -27 -3 -7 -5 -18 -5 -23 0 -5 -4 -9 -10
-9 -5 0 -7 7 -3 16 4 12 1 15 -12 13 -29 -6 -28 -26 2 -34 17 -4 29 -2 31 4 5
14 32 14 32 0 0 -6 -4 -19 -10 -29 -7 -14 -6 -20 6 -24 13 -5 14 -9 5 -20 -7
-8 -10 -19 -9 -26 2 -7 -3 -15 -11 -17 -10 -4 -12 2 -7 25 5 22 3 31 -8 35 -9
4 -16 13 -16 22 0 11 -11 15 -38 15 -21 0 -43 5 -49 11 -14 14 -55 2 -47 -14
4 -7 -6 1 -21 17 -25 25 -26 30 -12 38 24 13 21 21 -15 41 -36 19 -73 73 -57
82 12 8 31 -4 24 -15 -7 -12 30 -19 66 -11 l31 6 -28 15 c-39 21 -57 40 -71
79 -19 53 -3 78 54 86 26 4 53 8 58 10 19 6 24 5 39 -11z m-24 -955 c0 -16 52
-59 71 -59 9 0 22 -6 28 -14 7 -8 23 -17 36 -20 14 -4 22 -12 19 -19 -2 -7 4
-13 15 -14 11 -1 22 4 24 11 3 9 15 12 31 9 31 -6 34 -19 6 -26 -11 -3 -20
-14 -20 -24 0 -17 -8 -20 -78 -21 -66 -2 -82 1 -102 18 -12 11 -27 17 -32 14
-6 -4 -5 3 1 15 13 24 23 26 51 9 17 -11 22 -10 30 2 14 22 12 30 -6 30 -13 0
-104 82 -104 95 0 3 7 5 15 5 8 0 15 -5 15 -11z"/>
<path d="M5270 6472 c0 -4 4 -12 9 -17 5 -6 11 -75 13 -155 5 -155 14 -191 56
-210 26 -12 52 -13 52 -3 0 4 -12 19 -26 34 -14 15 -30 44 -35 65 -13 59 -11
268 3 282 9 9 3 12 -30 12 -23 0 -42 -4 -42 -8z"/>
<path d="M2346 6434 c-4 -10 -3 -20 2 -23 5 -3 12 -15 16 -26 3 -11 26 -42 51
-70 24 -27 45 -56 45 -62 0 -7 5 -13 10 -13 6 0 10 -7 10 -15 0 -8 5 -15 10
-15 6 0 10 -11 10 -25 0 -14 5 -25 10 -25 11 0 13 -39 4 -64 -3 -9 -15 -16
-27 -16 -11 0 -29 -7 -39 -17 -11 -9 -18 -11 -18 -5 0 7 -17 12 -41 12 l-41 0
7 -37 c4 -21 11 -39 16 -41 5 -2 9 -10 9 -18 0 -8 9 -25 21 -37 l20 -22 -20
-3 c-24 -4 -29 -32 -6 -32 9 0 21 -12 27 -27 16 -37 15 -36 27 -29 7 5 6 15
-1 32 -10 20 -9 27 3 34 12 8 11 12 -6 24 -20 14 -19 15 8 25 24 9 26 14 17
31 -11 21 -30 27 -30 10 0 -18 -17 -11 -23 9 -4 16 4 20 51 30 33 7 58 7 61 2
4 -5 23 -12 44 -16 20 -4 37 -10 37 -14 0 -4 13 -17 29 -29 28 -20 31 -20 61
-6 31 16 57 11 31 -5 -7 -5 -10 -14 -6 -21 9 -15 51 -5 76 19 19 18 19 18 -2
45 -12 15 -19 30 -15 33 3 3 9 -3 13 -13 6 -17 8 -16 13 6 8 33 55 41 63 10 6
-25 29 -19 70 18 49 46 38 55 -60 47 -162 -12 -188 -10 -211 13 -12 12 -22 31
-22 43 0 11 -4 17 -10 14 -5 -3 -10 -2 -10 3 0 4 -16 15 -36 22 -26 11 -34 19
-31 32 3 10 1 15 -4 12 -5 -3 -12 3 -15 13 -3 10 -12 31 -19 48 -8 16 -12 32
-9 36 2 4 -5 5 -16 2 -14 -4 -20 0 -20 11 0 9 5 16 12 16 6 0 3 9 -7 20 -10
11 -23 20 -28 20 -5 0 -15 7 -22 16 -6 9 -25 16 -41 16 -16 0 -32 5 -35 10 -3
5 -9 2 -13 -8z"/>
<path d="M3309 6126 c-2 -2 -65 -7 -139 -11 -138 -7 -185 -19 -185 -45 0 -11
17 -17 65 -21 36 -4 67 -4 70 0 12 15 40 11 40 -6 0 -29 64 -23 68 5 2 13 -2
22 -9 22 -10 0 -10 3 -2 11 9 9 19 6 42 -12 35 -28 41 -54 11 -44 -11 3 -20 2
-20 -3 0 -21 40 -20 55 1 13 19 13 23 -3 40 -9 11 -26 23 -37 28 -19 7 -19 8
3 8 34 1 62 -17 62 -39 0 -14 7 -20 24 -20 19 0 25 7 30 35 6 28 11 35 31 35
13 0 27 5 30 10 6 10 -126 15 -136 6z"/>
<path d="M10606 6068 c-3 -13 -6 -31 -6 -41 0 -11 -7 -34 -16 -53 -9 -19 -14
-37 -12 -40 3 -2 29 2 59 9 30 8 83 13 119 12 67 -3 136 -25 123 -40 -5 -4 -3
-5 4 -1 20 11 5 31 -37 50 -22 10 -40 22 -40 27 0 5 -6 9 -14 9 -8 0 -18 13
-24 28 -17 48 -38 62 -97 62 -46 0 -53 -3 -59 -22z"/>
<path d="M10250 6055 c0 -8 5 -15 11 -15 10 0 3 -40 -10 -50 -3 -3 -17 -27
-29 -55 -13 -27 -28 -57 -33 -65 -5 -8 -17 -30 -26 -47 -10 -19 -24 -33 -35
-33 -10 0 -18 -6 -18 -14 0 -8 -3 -16 -7 -18 -11 -5 -53 -66 -53 -77 0 -5 8
-7 19 -4 15 4 18 0 14 -21 -4 -19 -1 -26 11 -26 21 0 22 -56 2 -67 -12 -7 -13
-15 -3 -46 11 -33 16 -37 44 -37 26 0 33 -4 33 -20 0 -29 13 -24 35 13 10 17
23 35 29 40 8 5 7 10 -3 16 -11 7 -11 9 0 14 10 4 10 6 2 6 -16 1 -17 51 -2
51 6 0 9 6 6 14 -3 7 1 31 8 52 19 52 18 69 -2 89 -15 16 -15 22 7 98 23 80
39 118 81 185 l21 32 -51 0 c-39 0 -51 -4 -51 -15z"/>
<path d="M8145 6051 c-16 -4 -51 -22 -76 -39 -26 -18 -52 -32 -58 -32 -6 0
-11 -5 -11 -10 0 -6 -12 -15 -26 -20 -31 -12 -26 -35 7 -34 13 1 28 -4 32 -10
5 -7 10 -7 13 -1 2 6 37 9 82 8 108 -4 126 -6 135 -20 13 -21 35 -15 53 16 10
16 26 32 37 35 21 5 20 43 -2 38 -7 -1 -11 5 -9 15 2 11 -3 18 -13 18 -10 0
-26 11 -38 25 -20 24 -21 25 -36 6 -14 -18 -16 -18 -33 -3 -10 9 -20 17 -23
16 -2 -1 -17 -4 -34 -8z"/>
<path d="M6385 6010 c-18 -7 -19 -8 -2 -15 21 -9 23 -29 1 -21 -12 4 -14 1 -9
-14 4 -11 2 -20 -4 -20 -6 0 -11 -8 -11 -17 0 -18 50 -53 76 -53 13 0 18 -12
15 -32 -2 -14 36 -8 49 7 7 8 19 15 27 15 9 0 13 6 9 15 -8 22 43 33 58 12 8
-10 21 -13 40 -10 18 4 31 1 36 -8 9 -14 16 -12 100 36 94 54 126 70 149 75
13 3 26 11 29 18 3 9 -19 12 -90 11 -74 -1 -87 -3 -61 -10 18 -5 34 -13 37
-18 7 -11 -40 -23 -64 -16 -12 4 -19 -1 -23 -15 -7 -28 -37 -37 -52 -17 -7 10
-19 17 -27 17 -8 0 -23 7 -34 15 -10 8 -28 15 -38 15 -14 0 -17 3 -10 10 7 7
19 7 35 1 27 -10 76 -4 85 10 3 5 -10 9 -28 10 -18 0 -87 2 -153 4 -66 2 -129
0 -140 -5z"/>
<path d="M7840 6012 c0 -4 -19 -6 -41 -4 -29 3 -40 1 -35 -7 5 -7 -1 -11 -16
-11 -18 0 -20 2 -8 10 25 16 -10 13 -42 -4 -17 -9 -28 -11 -28 -4 0 6 -12 8
-32 4 -18 -3 -58 -8 -88 -11 -30 -2 -77 -7 -104 -10 -35 -4 -51 -2 -57 7 -6 9
-49 14 -151 16 -116 3 -141 1 -131 -9 9 -9 10 -16 2 -26 -18 -20 20 -17 44 4
17 16 20 16 30 3 8 -10 33 -16 77 -18 59 -2 82 -7 132 -33 33 -17 86 -11 98
11 11 21 40 28 40 10 0 -5 11 -10 25 -10 21 0 23 -3 16 -22 -4 -13 -18 -25
-30 -28 -33 -7 -24 -23 20 -36 32 -10 39 -9 39 2 0 8 10 14 21 14 18 0 19 -2
9 -15 -11 -13 -8 -15 13 -15 14 0 29 -5 32 -11 5 -7 14 -3 26 10 24 26 24 31
-2 31 -11 0 -18 4 -15 9 3 5 -10 23 -29 40 -42 36 -44 44 -10 35 14 -3 25 -2
25 3 0 11 70 10 88 0 6 -5 17 -5 24 -1 7 4 40 8 75 9 60 1 68 4 61 25 -4 12
-78 43 -78 32z"/>
<path d="M3235 5971 c-3 -2 -24 -5 -47 -6 -24 -2 -51 -6 -62 -10 -11 -5 -22
-3 -28 6 -7 10 -8 9 -3 -6 4 -11 7 -39 6 -63 -2 -51 5 -67 24 -52 8 7 18 9 23
6 10 -6 97 25 112 40 12 12 -18 13 -37 1 -9 -6 -10 0 -1 23 6 18 21 36 34 42
13 6 24 14 24 17 0 8 -39 9 -45 2z"/>
<path d="M5012 5963 c-12 -2 -27 -14 -33 -25 -10 -18 -8 -19 11 -13 21 7 22 5
16 -30 -7 -34 -6 -36 13 -30 16 5 21 2 21 -10 0 -11 -5 -15 -14 -12 -8 3 -22
-3 -32 -14 -10 -11 -12 -19 -6 -19 7 0 12 5 12 10 0 6 8 10 18 10 15 0 15 -2
2 -11 -11 -8 -9 -9 9 -3 14 3 43 7 65 8 26 1 40 6 39 14 -2 7 0 11 5 10 4 -1
17 3 30 10 18 11 22 10 22 -3 0 -29 18 -15 24 20 9 47 -10 76 -44 68 -14 -3
-27 -6 -30 -6 -11 -1 -66 15 -82 24 -10 5 -19 8 -20 8 -2 -1 -13 -4 -26 -6z"/>
<path d="M2474 5862 c7 -21 -24 -62 -46 -62 -25 0 -26 -8 -12 -88 9 -49 20
-82 31 -89 13 -10 14 -13 2 -14 -8 0 -3 -4 9 -10 26 -10 46 -3 37 12 -4 5 5
13 19 19 32 12 33 26 4 34 -34 9 -38 8 -38 -10 0 -24 -24 4 -38 45 -18 51 -15
69 15 84 24 13 28 13 45 -7 9 -11 17 -15 18 -8 0 13 36 17 43 5 2 -5 2 -2 0 5
-1 8 -3 23 -3 33 0 11 -5 17 -10 14 -6 -3 -13 2 -17 12 -14 37 -70 61 -59 25z"/>
<path d="M8084 5866 c-26 -7 -39 -16 -36 -24 3 -10 7 -10 19 0 13 10 15 9 11
-7 -2 -11 -10 -19 -16 -17 -7 1 -12 -2 -12 -8 0 -5 10 -10 21 -10 16 0 20 -5
16 -19 -3 -15 2 -20 25 -25 18 -4 28 -11 25 -18 -7 -20 12 -48 28 -42 8 4 15
10 15 15 0 4 -7 6 -15 3 -20 -8 -19 6 3 22 15 12 15 15 2 24 -9 6 -10 10 -3
10 7 0 17 -8 22 -17 10 -17 10 -17 11 0 0 9 7 17 15 17 9 0 12 -6 8 -16 -7
-19 16 -64 34 -64 7 0 13 9 13 20 0 11 5 20 11 20 6 0 9 8 6 19 -2 10 0 26 5
35 6 11 5 16 -3 16 -6 0 -9 6 -6 14 9 23 -28 49 -60 42 -18 -4 -35 -1 -48 8
-23 18 -34 18 -91 2z"/>
<path d="M10958 5851 c26 -22 28 -37 7 -45 -22 -8 -18 -35 8 -62 44 -46 55
-59 61 -81 4 -13 12 -23 18 -23 5 0 34 -25 64 -55 30 -30 61 -55 69 -55 25 0
17 15 -15 27 -34 13 -40 33 -10 33 11 0 20 5 20 10 0 6 9 10 19 10 11 0 26 6
33 14 8 8 23 16 34 20 10 3 4 4 -14 2 -28 -2 -35 2 -43 21 -5 12 -16 23 -26
23 -10 0 -31 7 -47 15 -15 8 -37 15 -47 15 -10 0 -24 9 -32 20 -8 11 -16 17
-20 14 -3 -3 -3 3 -1 13 6 21 -34 67 -77 91 l-24 13 23 -20z"/>
<path d="M3220 5834 c-14 -7 -25 -22 -25 -33 -1 -30 -33 -60 -58 -53 -20 5
-21 4 -8 -12 10 -12 22 -15 43 -11 18 4 28 3 28 -5 0 -6 4 -9 10 -5 5 3 7 12
3 20 -3 8 -1 15 5 15 17 0 20 -38 5 -59 -10 -15 -11 -26 -4 -38 9 -16 11 -15
20 10 13 34 23 34 38 1 8 -18 9 -32 3 -45 -13 -23 -13 -52 0 -44 6 4 8 11 4
16 -3 5 8 24 25 41 36 37 38 48 12 55 -11 3 -22 17 -26 31 -4 15 -10 21 -12
15 -7 -18 -33 -16 -33 2 0 17 0 17 53 20 35 2 37 1 38 -29 0 -17 3 -25 6 -18
2 6 11 12 18 12 7 0 15 -6 18 -12 7 -21 18 -2 24 41 5 36 3 41 -15 41 -29 0
-53 11 -46 21 3 5 14 9 25 9 10 0 19 5 19 10 0 6 -4 10 -9 10 -5 0 -16 2 -24
6 -9 3 -19 -6 -27 -25 -13 -32 -18 -35 -44 -25 -23 9 -20 27 3 19 25 -8 37 10
13 20 -30 13 -56 12 -82 -1z"/>
<path d="M5157 5813 c-3 -10 -8 -30 -11 -45 -7 -30 -46 -60 -46 -35 0 7 5 18
10 23 12 12 3 44 -11 44 -5 0 -8 -3 -8 -7 4 -24 -3 -43 -15 -43 -8 0 -18 -9
-21 -20 -4 -11 -9 -18 -13 -16 -4 2 -8 -6 -8 -19 -2 -21 0 -22 28 -13 16 6 32
8 35 4 13 -12 -20 -34 -61 -40 -24 -4 -52 -16 -61 -26 -22 -24 -14 -25 26 -4
18 9 47 14 72 12 l42 -4 -35 -16 c-47 -21 -117 -29 -129 -14 -5 6 -11 20 -13
31 -3 14 -11 19 -28 17 -13 -1 -28 -8 -32 -15 -4 -7 -8 -7 -8 -1 0 5 7 19 15
30 18 24 19 54 1 54 -13 0 -29 -34 -27 -57 1 -7 -7 -9 -20 -6 -19 5 -21 3 -14
-13 5 -10 9 -38 9 -62 1 -27 5 -41 12 -38 6 2 26 -4 43 -15 41 -25 44 -24 37
6 -6 22 -3 25 21 27 44 2 68 -2 71 -12 5 -13 32 -13 32 0 0 6 9 10 19 10 11 0
21 4 23 9 2 4 14 12 27 16 20 6 23 4 18 -9 -4 -9 -2 -16 4 -16 5 0 12 -8 16
-17 3 -10 12 -25 20 -35 13 -15 17 -15 53 4 41 22 39 38 -8 52 -12 4 -22 12
-22 17 0 6 4 8 9 5 5 -3 14 1 21 9 12 14 8 15 -28 9 -40 -6 -42 -5 -42 19 0
14 7 28 16 31 11 4 14 13 10 31 -5 20 -3 25 13 25 14 0 18 5 14 20 -5 20 -6
20 -25 4 -14 -13 -21 -15 -30 -6 -17 17 20 56 38 41 19 -15 25 4 11 40 -12 34
-43 42 -50 14z"/>
<path d="M2645 5800 c12 -47 11 -55 -12 -55 -27 0 -41 -14 -24 -24 11 -7 11
-12 0 -29 -12 -18 -10 -24 9 -45 12 -13 22 -31 22 -39 0 -18 37 -108 44 -108
2 0 12 -3 20 -6 12 -5 16 -1 14 17 -2 17 5 27 25 37 33 16 27 32 -14 32 -32 0
-39 19 -14 40 17 14 21 45 5 35 -6 -4 -8 -11 -5 -16 4 -5 -1 -9 -9 -9 -9 0
-19 12 -22 26 -5 19 -1 29 15 40 27 19 27 34 0 34 -19 0 -21 4 -15 30 4 24 2
32 -12 37 -9 4 -21 11 -25 17 -5 6 -6 0 -2 -14z"/>
<path d="M5961 5796 c-8 -10 -9 -16 -1 -21 17 -10 1 -25 -28 -26 -27 0 -27 0
-4 -11 12 -6 22 -18 22 -26 0 -10 7 -12 25 -8 20 5 25 3 25 -11 0 -10 -5 -25
-11 -33 -9 -12 -10 -11 -6 7 3 15 1 20 -9 16 -8 -3 -14 -14 -14 -24 0 -15 -6
-18 -29 -16 -17 2 -37 9 -45 17 -13 10 -16 10 -16 -4 0 -9 7 -16 15 -16 9 0
22 -15 30 -32 11 -27 15 -30 20 -15 4 9 18 17 31 17 15 0 24 6 24 15 0 12 4
13 18 6 23 -12 55 11 59 44 2 14 -6 38 -19 55 -23 32 -43 38 -51 18 -3 -7 -6
-3 -6 10 -1 15 3 21 11 16 8 -5 9 -2 5 10 -4 10 -7 20 -7 22 0 10 -29 3 -39
-10z"/>
<path d="M7280 5765 c0 -15 -39 -41 -54 -37 -11 3 -26 -17 -26 -35 0 -7 7 -13
15 -13 27 0 16 -31 -15 -43 -37 -14 -39 -41 -4 -74 25 -23 58 -23 35 0 -16 16
-14 25 11 38 18 9 24 8 34 -6 12 -16 14 -16 29 -1 14 14 15 19 4 32 -11 14
-10 18 6 30 17 12 18 18 7 47 -7 19 -12 40 -12 49 0 9 -7 18 -15 22 -9 3 -15
0 -15 -9z"/>
<path d="M6786 5755 c-3 -8 -13 -15 -21 -15 -12 0 -15 -6 -9 -22 4 -13 10 -25
14 -28 4 -3 9 -14 11 -25 3 -11 11 -20 19 -20 8 0 17 -11 20 -25 5 -19 12 -24
29 -23 14 2 20 -1 15 -8 -11 -18 16 -28 49 -18 20 6 35 5 44 -2 8 -7 13 -8 13
-1 0 17 -29 35 -46 28 -13 -5 -15 -2 -11 14 3 11 1 23 -4 26 -16 10 -10 32 11
37 13 3 20 0 20 -10 0 -20 27 -46 40 -38 7 4 7 12 0 23 -22 39 -38 51 -75 57
-22 4 -37 4 -33 0 4 -5 2 -15 -5 -23 -10 -13 -9 -15 6 -9 15 6 16 4 7 -14 -11
-19 -19 -18 -47 3 -9 7 -9 16 -2 32 9 19 7 28 -14 50 -20 21 -26 23 -31 11z"/>
<path d="M1158 5677 c17 -20 3 -57 -21 -57 -21 0 -21 0 -2 -19 17 -17 105 -48
155 -55 9 -1 21 -6 29 -10 8 -5 16 -4 21 4 4 7 13 9 19 6 22 -14 10 8 -22 39
-18 18 -49 37 -68 44 -20 6 -51 23 -69 36 -36 27 -59 33 -42 12z"/>
<path d="M10923 5650 c3 -11 1 -20 -4 -20 -5 0 -9 7 -9 15 0 16 -12 20 -23 8
-4 -3 -3 -11 2 -17 5 -6 6 -26 4 -44 -5 -30 -8 -33 -30 -27 -63 16 -83 17 -83
6 0 -6 7 -11 15 -11 23 0 29 -27 10 -46 -9 -9 -13 -19 -10 -22 3 -3 11 0 17 6
16 16 28 15 28 -3 0 -8 -4 -15 -10 -15 -5 0 -10 -4 -10 -10 0 -5 6 -10 14 -10
8 0 16 -5 18 -12 5 -15 150 -19 196 -6 l33 10 -35 19 c-22 11 -56 19 -85 19
-44 0 -49 2 -44 20 3 12 18 23 37 28 43 11 47 49 10 97 -29 39 -49 46 -41 15z"/>
<path d="M2483 5576 c-17 -18 -20 -26 -10 -36 9 -10 9 -14 0 -17 -18 -6 -16
-68 1 -86 9 -9 11 -19 5 -28 -16 -25 -9 -30 15 -12 14 10 29 28 35 41 10 22
12 22 28 7 16 -16 16 -18 0 -27 -23 -13 -11 -29 16 -23 17 5 26 -1 40 -25 18
-29 37 -40 37 -20 0 6 9 10 21 10 11 0 17 5 14 10 -4 6 -10 8 -15 5 -19 -12
-36 6 -32 34 3 24 0 28 -19 27 -15 -1 -28 8 -36 24 -7 14 -17 24 -23 23 -5 -2
-10 3 -10 11 0 7 -7 19 -15 26 -8 7 -15 18 -15 24 0 6 7 3 14 -7 12 -16 14
-15 19 15 2 18 4 33 3 34 0 1 -12 4 -26 7 -18 4 -31 0 -47 -17z"/>
<path d="M6918 5494 c-12 -7 -34 -10 -48 -7 -31 6 -66 -27 -56 -53 3 -9 1 -23
-5 -30 -9 -11 -8 -14 3 -14 7 0 21 9 31 20 18 22 57 26 74 9 7 -7 17 -8 25 -3
7 5 22 7 33 6 13 -2 29 8 44 28 12 18 21 33 19 34 -1 1 -24 7 -50 13 -34 7
-52 7 -70 -3z"/>
<path d="M11145 5500 c-3 -5 -1 -10 4 -10 6 0 37 -26 69 -57 69 -68 145 -134
212 -183 89 -66 125 -94 151 -120 34 -34 84 -70 98 -70 7 0 24 -9 40 -21 20
-15 39 -19 72 -17 57 4 62 26 12 53 -34 18 -38 24 -35 55 5 42 9 47 24 32 20
-20 27 -14 25 18 -1 18 -7 28 -14 26 -6 -3 -19 2 -30 10 -16 12 -16 13 0 8 9
-3 17 -1 17 5 0 9 -12 14 -30 13 -3 0 -16 7 -29 17 -16 12 -22 25 -19 45 l3
27 40 -29 c44 -32 89 -48 82 -29 -2 7 -10 12 -18 12 -8 0 -28 13 -44 28 -17
15 -36 27 -44 27 -10 0 -11 3 -3 13 8 9 6 20 -6 38 -36 54 -72 76 -72 44 0
-17 -16 -20 -25 -6 -6 11 -60 -2 -81 -20 -9 -8 -53 -13 -112 -14 -54 0 -103
-4 -110 -9 -9 -5 -15 -1 -19 12 -3 12 -17 22 -36 26 -25 5 -29 9 -17 16 9 6
10 10 3 10 -6 0 -15 10 -19 23 -4 12 -12 25 -18 29 -16 11 -64 10 -71 -2z"/>
<path d="M5271 5424 c-17 -23 -31 -44 -31 -47 0 -4 9 -16 21 -28 15 -15 18
-24 9 -34 -8 -9 -8 -15 0 -20 6 -3 8 -10 5 -15 -18 -29 71 -118 103 -104 9 4
20 7 23 6 4 -1 15 8 24 18 17 19 17 20 -3 20 -28 0 -37 34 -18 62 14 20 14 24
-1 40 -9 10 -24 18 -35 18 -36 0 -17 18 34 32 28 8 54 20 56 28 4 10 0 11 -14
5 -35 -16 -126 -18 -135 -4 -14 22 -11 29 14 29 31 0 67 11 67 20 0 4 -20 10
-44 11 -40 4 -45 1 -75 -37z"/>
<path d="M6465 5405 c-16 -14 -40 -25 -53 -25 -13 0 -31 -7 -39 -16 -10 -9
-27 -14 -43 -12 -19 3 -31 -2 -39 -14 -6 -10 -18 -18 -26 -18 -8 0 -15 -5 -15
-10 0 -16 -153 0 -163 17 -7 11 -11 11 -23 -2 -9 -8 -27 -15 -40 -15 -21 0
-25 -4 -22 -22 2 -15 9 -22 20 -20 10 2 26 -2 37 -7 14 -8 22 -7 31 4 12 15
36 15 133 0 26 -4 50 -11 53 -16 5 -9 25 -1 59 25 20 15 20 15 -2 10 -26 -7
-61 10 -44 20 6 4 11 3 11 -3 0 -12 76 -6 93 7 7 6 32 15 55 22 40 10 43 14
38 36 -4 13 -3 24 1 24 5 0 19 9 33 20 l25 20 -25 -1 c-14 0 -38 -11 -55 -24z"/>
<path d="M9996 5244 c1 -17 -4 -33 -14 -41 -13 -9 -14 -12 -3 -13 11 0 10 -4
-3 -19 -10 -10 -16 -27 -14 -38 2 -14 -3 -18 -23 -18 -18 1 -25 -4 -22 -12 9
-22 63 -12 63 11 0 7 6 20 13 31 13 16 14 15 12 -16 -1 -20 -9 -37 -20 -44
-10 -5 -27 -19 -38 -29 -20 -19 -20 -19 3 -36 13 -10 23 -28 23 -43 0 -19 5
-27 18 -27 41 0 29 -32 -14 -34 -30 -2 -31 -21 -1 -32 l26 -9 -42 -42 -42 -43
45 0 c50 0 107 17 107 32 0 6 -6 8 -14 5 -20 -8 -28 4 -14 21 10 11 9 17 -4
26 -11 8 -14 17 -8 26 5 8 7 25 4 36 -3 12 -1 25 5 29 6 3 9 11 5 16 -3 6 3
13 15 16 23 6 29 23 9 23 -9 0 -13 15 -12 45 0 26 -5 57 -12 71 -11 21 -11 26
1 29 47 15 48 16 37 27 -6 6 -8 16 -6 23 3 7 0 16 -6 20 -7 4 -14 -2 -17 -14
-3 -11 -9 -18 -14 -15 -5 3 -6 16 -3 30 4 14 2 24 -4 24 -6 0 -17 3 -25 6 -11
4 -14 -2 -11 -22z"/>
<path d="M2541 5226 c-8 -9 -21 -14 -28 -11 -10 3 -13 -1 -11 -13 2 -9 11 -16
20 -14 20 3 66 -58 75 -99 l6 -31 -27 17 c-23 15 -26 16 -26 1 0 -10 -6 -13
-15 -10 -10 4 -15 0 -15 -11 0 -9 9 -19 20 -22 24 -6 26 -19 4 -27 -11 -4 -14
-15 -10 -37 6 -40 15 -49 23 -21 3 12 9 22 13 22 10 0 1 -38 -11 -46 -13 -8
-11 -64 2 -64 8 0 8 -4 -1 -15 -7 -9 -9 -26 -4 -47 4 -18 9 -27 11 -20 5 14
23 16 23 3 0 -5 -6 -16 -13 -23 -7 -7 -13 -23 -14 -35 -1 -18 5 -23 35 -28 20
-3 45 -10 54 -16 21 -11 58 -12 58 -1 0 4 -9 13 -20 20 -24 15 -28 47 -4 38 9
-3 19 -6 24 -6 5 0 11 -13 15 -29 7 -33 26 -41 103 -41 39 0 52 4 49 13 -2 8
-18 11 -45 9 -32 -3 -42 0 -42 11 0 9 8 18 18 21 9 3 4 4 -11 2 -21 -3 -27 0
-23 11 3 8 6 17 6 19 0 2 10 4 23 4 15 0 18 3 9 9 -7 4 -12 14 -10 22 2 10 -5
13 -22 12 l-25 -3 25 15 c14 8 33 14 43 15 9 0 17 5 17 10 0 6 11 10 25 10 22
0 25 -3 19 -27 -6 -22 -4 -25 10 -20 10 4 25 7 35 7 14 0 17 7 15 35 -2 19 1
35 6 35 6 0 10 -4 10 -10 0 -5 9 -10 20 -10 11 0 20 5 20 10 0 6 -9 10 -20 10
-10 0 -24 8 -29 19 -8 13 -18 17 -37 13 -32 -6 -48 17 -49 68 0 30 -3 35 -22
33 -30 -3 -29 -1 9 37 l32 32 -24 18 c-13 10 -30 16 -37 13 -7 -3 -13 -1 -13
4 0 4 -15 8 -32 8 -32 0 -33 1 -33 42 0 32 -3 39 -12 31 -7 -6 -10 -14 -7 -19
3 -5 -6 -23 -21 -41 -25 -30 -26 -30 -32 -9 -6 23 -37 26 -39 3 -1 -6 -2 -17
-3 -23 -2 -19 -21 2 -21 23 0 12 -8 31 -19 42 -10 12 -23 34 -28 50 -8 25 -10
27 -22 12z"/>
<path d="M10686 5173 c4 -32 7 -60 6 -63 0 -29 -5 -38 -22 -43 -11 -3 -20 -13
-20 -22 0 -14 3 -15 13 -6 16 13 27 5 27 -21 0 -26 -42 -23 -68 5 -18 19 -19
26 -9 36 9 11 9 14 0 18 -22 8 -14 33 12 43 20 8 25 16 24 42 0 29 -1 30 -9
12 -11 -29 -26 -37 -50 -29 -13 4 -20 15 -20 31 0 13 -4 24 -10 24 -9 0 -42
-25 -76 -58 -12 -12 -9 -41 6 -52 4 -3 10 -35 12 -72 5 -54 3 -68 -8 -68 -8 0
-14 -4 -14 -10 0 -5 7 -10 15 -10 8 0 12 -6 9 -13 -3 -8 3 -20 12 -28 16 -12
17 -12 12 2 -5 14 1 15 44 11 38 -4 60 0 94 17 24 13 42 27 38 32 -3 5 -10 7
-15 4 -5 -4 -9 -2 -9 4 0 5 9 13 20 16 14 4 20 15 20 36 0 19 5 29 15 29 19 0
19 4 -1 46 -18 38 -13 59 6 25 6 -12 20 -21 32 -21 19 0 17 5 -19 40 -24 23
-43 51 -45 66 -2 15 -9 29 -16 32 -9 3 -11 -10 -6 -55z"/>
<path d="M1194 5201 c7 -10 4 -12 -13 -6 -12 3 -21 2 -21 -4 0 -5 -8 -11 -17
-13 -16 -3 -15 -6 5 -16 17 -10 27 -10 43 -1 17 9 25 8 38 -5 22 -23 2 -35
-47 -28 -20 2 -49 5 -64 6 -16 0 -28 7 -28 14 0 6 -4 12 -10 12 -5 0 -10 -5
-10 -10 0 -15 -54 -34 -58 -21 -6 19 -27 12 -38 -13 -10 -21 -9 -25 7 -29 30
-8 22 -27 -12 -27 -20 0 -29 -4 -27 -12 3 -8 26 -14 61 -15 58 -1 67 3 45 25
-17 17 5 16 33 0 17 -11 22 -10 30 5 12 21 39 22 65 2 16 -12 16 -14 3 -15
-25 0 -41 -24 -27 -38 15 -15 55 -16 63 -2 3 6 21 10 39 10 39 0 56 17 46 45
-5 16 -16 20 -50 20 -28 0 -45 5 -48 14 -4 11 6 13 52 8 31 -3 56 -2 56 3 0
19 -13 40 -25 40 -8 0 -20 6 -27 13 -23 23 -73 53 -64 38z"/>
<path d="M5666 5181 c-4 -6 -2 -18 4 -26 7 -8 10 -22 6 -30 -3 -8 -1 -15 5
-15 5 0 7 -11 3 -24 -4 -18 -1 -27 15 -36 30 -15 27 -40 -5 -40 -16 0 -24 -5
-22 -12 6 -17 -28 -52 -41 -43 -14 8 -14 32 1 37 6 2 9 10 6 18 -3 10 -10 6
-23 -14 -15 -23 -16 -29 -4 -36 11 -7 10 -10 -4 -16 -9 -3 -17 -14 -17 -23 1
-14 2 -14 11 2 14 25 32 21 24 -5 -5 -20 -4 -21 7 -8 7 9 26 17 42 18 23 2 26
0 17 -12 -8 -10 -9 -16 -1 -21 5 -3 12 1 15 9 3 9 7 23 10 32 3 8 10 12 16 9
7 -5 10 3 7 21 -3 29 0 30 42 25 6 0 10 -7 10 -15 0 -8 5 -18 12 -22 7 -4 8
-3 4 5 -4 6 -2 19 5 27 10 13 10 17 -2 25 -8 5 -19 9 -25 9 -19 0 -90 72 -76
77 17 6 15 28 -4 44 -9 7 -19 22 -23 33 -6 14 -10 16 -15 7z"/>
<path d="M6664 5149 c7 -35 -3 -69 -21 -69 -10 0 -12 6 -8 20 8 26 4 25 -29
-5 -15 -14 -23 -25 -17 -25 10 0 61 -46 61 -55 0 -3 -17 -13 -39 -24 -21 -11
-41 -27 -44 -36 -4 -8 -14 -15 -24 -15 -15 0 -15 -2 -4 -9 12 -8 13 -14 3 -37
-15 -31 -7 -45 11 -21 12 16 14 16 131 5 10 -1 33 -16 50 -32 17 -16 44 -30
59 -31 15 -2 36 -10 47 -20 31 -28 55 -1 25 29 -13 12 -14 20 -5 36 6 11 16
18 21 14 13 -8 69 15 92 37 9 10 24 16 32 13 23 -9 19 33 -5 53 -14 13 -16 19
-7 25 9 6 8 8 -4 8 -8 0 -25 14 -38 31 -22 29 -24 30 -47 14 -24 -15 -25 -15
-73 12 -2 1 -4 12 -5 24 -1 17 -8 23 -28 23 -36 2 -58 23 -35 32 38 14 16 29
-44 29 -60 1 -61 1 -55 -26z"/>
<path d="M1690 5150 c-8 -5 -25 -10 -37 -10 -13 0 -23 -6 -23 -12 0 -7 -18
-26 -40 -43 -23 -16 -38 -35 -36 -42 3 -7 2 -12 -2 -12 -23 4 -30 -5 -30 -35
0 -19 -3 -40 -7 -46 -3 -6 4 -19 16 -29 15 -12 19 -20 11 -25 -7 -4 -15 0 -18
8 -8 21 -43 20 -61 -1 -10 -13 -16 -15 -19 -5 -4 8 -28 12 -69 12 -71 0 -128
-16 -106 -29 8 -5 11 -17 7 -29 -4 -13 -1 -22 9 -26 8 -3 15 -14 15 -25 0 -11
5 -21 11 -23 8 -3 8 -10 -2 -26 -18 -29 -38 -36 -32 -11 3 10 0 19 -6 19 -6 0
-11 -10 -11 -22 0 -17 -3 -20 -9 -9 -6 9 -19 12 -40 8 -18 -4 -31 -2 -31 3 0
6 5 10 10 10 6 0 10 7 10 16 0 12 -6 15 -22 9 -13 -4 -33 -6 -46 -6 -17 1 -22
-4 -20 -17 1 -9 -1 -24 -6 -32 -7 -12 -6 -13 5 -2 20 18 28 15 21 -10 -5 -22
-4 -22 15 -5 24 21 34 22 26 1 -4 -12 0 -14 18 -10 22 5 69 -18 58 -28 -2 -3
-24 -7 -48 -10 -24 -3 -49 -10 -55 -16 -15 -15 -26 -12 -20 5 7 17 -13 20 -36
5 -10 -6 -11 -10 -2 -10 6 0 12 -7 12 -15 0 -10 -10 -15 -30 -15 -16 0 -30 -4
-30 -10 0 -5 6 -7 13 -4 8 3 19 -2 26 -10 12 -14 9 -22 -25 -74 -6 -9 -61 -9
-76 -1 -12 6 -18 6 -18 -1 0 -5 -7 -10 -15 -10 -8 0 -15 -4 -15 -8 0 -13 -50
-33 -62 -26 -9 6 -27 -12 -28 -27 0 -8 72 5 88 15 17 10 15 -19 -2 -33 -8 -6
-35 -12 -60 -13 -54 -1 -58 -8 -16 -26 45 -20 36 -32 -22 -32 -59 0 -128 -16
-128 -30 0 -4 -24 -7 -53 -5 -46 3 -57 0 -80 -21 -34 -31 -34 -49 -1 -70 22
-15 27 -15 35 -3 5 8 9 10 9 4 -1 -5 -7 -19 -16 -30 -12 -16 -18 -17 -33 -8
-16 10 -18 9 -14 -8 5 -17 2 -19 -27 -14 -19 3 -37 8 -42 11 -19 12 -107 -18
-123 -42 -18 -28 -9 -30 41 -9 26 11 41 12 62 4 l27 -11 -25 -20 c-24 -20 -24
-21 -3 -16 31 8 54 -19 30 -37 -14 -10 -15 -16 -4 -38 6 -15 17 -27 24 -27 7
0 11 -12 10 -27 -2 -24 1 -27 30 -26 36 0 41 -12 19 -43 -15 -19 -15 -19 -30
1 -14 19 -15 19 -21 2 -9 -23 24 -64 37 -45 4 7 8 10 8 7 0 -4 26 0 57 7 52
12 59 12 78 -4 11 -10 31 -24 45 -30 14 -7 32 -16 40 -20 28 -16 60 -32 64
-32 2 0 4 11 4 26 0 14 9 35 20 47 11 12 22 31 24 42 4 20 4 19 16 -1 10 -18
8 -26 -8 -47 -11 -14 -20 -38 -20 -55 0 -33 30 -65 52 -57 9 4 18 -1 22 -10 4
-11 13 -15 28 -11 13 3 17 3 11 0 -18 -8 -16 -22 8 -55 11 -16 33 -52 47 -79
30 -54 133 -150 162 -150 16 0 18 9 18 68 -1 37 -4 72 -9 77 -4 6 -8 35 -8 65
-1 30 -1 67 -1 82 -1 14 -7 32 -15 38 -8 7 -15 18 -15 25 0 17 -21 24 -54 18
-22 -4 -27 -2 -24 8 3 8 13 13 22 11 13 -2 17 3 14 20 -2 19 3 23 32 28 28 5
36 3 37 -9 5 -51 23 -106 42 -124 l21 -21 16 23 c13 18 18 20 25 10 5 -8 9
-25 9 -39 l0 -24 15 21 c10 14 13 32 9 47 -3 13 -1 27 5 30 17 11 15 -149 -3
-163 -7 -6 -11 -22 -8 -36 11 -58 -19 -95 -48 -60 -7 8 -16 15 -20 15 -9 0
-24 -170 -16 -178 9 -8 46 29 46 45 0 8 6 13 13 11 14 -5 19 -58 4 -55 -15 3
-31 -47 -23 -69 6 -15 9 -16 15 -5 5 7 13 11 19 7 5 -3 13 1 16 10 3 8 10 13
15 10 5 -3 7 2 4 13 -6 23 16 39 28 20 12 -19 11 -89 -1 -89 -5 0 -10 -7 -10
-15 0 -10 10 -15 28 -15 21 0 24 2 12 10 -13 8 -13 11 1 26 15 14 17 13 29
-18 7 -18 12 -36 11 -40 -2 -15 17 -8 23 7 3 8 11 15 17 15 8 0 10 -15 5 -50
-7 -51 -3 -57 24 -40 12 8 12 12 2 18 -9 6 -6 11 11 19 22 10 23 16 20 65 -5
64 7 89 32 68 9 -8 14 -22 11 -32 -2 -12 0 -18 7 -15 15 5 19 54 6 63 -6 4 -4
13 7 25 10 11 12 19 6 19 -7 0 -12 5 -12 10 0 6 6 10 14 10 8 0 16 7 20 15 3
8 12 15 21 15 8 0 14 6 13 13 -3 12 5 13 52 6 20 -3 24 0 25 21 4 75 9 79 55
46 9 -6 5 -1 -10 11 -66 58 -73 63 -85 53 -9 -7 -14 -6 -18 4 -6 16 11 36 30
36 7 0 13 7 13 15 0 11 9 14 34 11 l35 -4 -22 44 c-11 24 -27 44 -33 44 -7 0
-15 9 -19 19 -3 11 -12 22 -20 25 -8 3 -15 13 -15 21 0 12 -6 15 -20 10 -27
-8 -37 19 -16 40 9 9 16 21 16 28 0 6 -12 -3 -27 -19 -23 -25 -36 -30 -73 -30
-25 0 -37 1 -27 4 12 2 17 13 17 38 0 19 7 46 16 59 8 13 14 38 12 57 -3 28 0
33 18 32 19 0 20 2 11 18 -9 13 -8 21 1 30 6 6 12 21 12 31 0 16 -3 17 -15 7
-8 -7 -15 -19 -15 -27 0 -24 -34 -10 -48 20 -14 30 -32 28 -32 -4 0 -12 -7
-19 -20 -19 -11 0 -20 -7 -20 -15 0 -8 4 -15 9 -15 5 0 13 -9 16 -20 3 -11 12
-20 19 -20 8 0 16 -14 20 -31 9 -48 7 -62 -8 -56 -7 3 -19 0 -25 -6 -9 -9 -13
-6 -18 12 -5 19 -11 22 -34 17 -22 -4 -27 -2 -22 10 3 8 2 14 -3 13 -24 -4
-54 2 -54 11 0 6 10 10 23 11 18 1 17 2 -8 10 -16 4 -32 5 -35 1 -9 -13 -30
-12 -30 1 0 25 16 35 54 33 41 -1 42 1 72 68 16 35 16 39 1 47 -10 6 -14 16
-10 26 4 11 2 14 -8 11 -9 -3 -13 -16 -11 -38 4 -31 3 -33 -25 -27 -16 3 -35
2 -43 -3 -35 -22 -56 32 -24 64 8 9 11 16 5 16 -6 0 -8 7 -5 15 9 23 54 19 54
-5 0 -11 7 -20 15 -20 8 0 15 8 15 18 0 11 9 27 21 38 17 15 22 16 29 4 5 -9
5 -19 -2 -27 -7 -9 -7 -13 1 -13 6 0 11 5 11 10 0 18 18 10 23 -10 5 -20 37
-29 37 -10 0 6 7 10 15 10 18 0 19 12 4 27 -7 7 -6 14 4 24 7 8 11 21 9 28 -3
10 5 7 23 -7 15 -12 36 -22 46 -22 10 0 21 -4 24 -10 11 -17 28 -11 20 8 -12
28 -22 102 -13 96 4 -3 8 -1 8 3 0 5 -9 14 -21 21 -14 9 -18 19 -14 33 8 26
-3 75 -21 94 -11 11 -12 20 -5 32 9 17 10 17 16 1 4 -9 8 -25 10 -35 6 -30 7
-29 14 2 l6 30 22 -36 c11 -20 24 -51 28 -68 3 -17 11 -33 16 -36 5 -4 9 -21
9 -39 0 -30 2 -33 25 -28 14 2 39 17 55 32 17 16 30 24 30 20 0 -5 10 -10 22
-12 25 -3 37 -28 14 -28 -8 0 -32 -12 -53 -26 -21 -14 -50 -28 -65 -31 -40 -8
-50 -53 -12 -53 23 0 65 31 57 43 -3 6 -1 7 6 3 6 -4 8 -12 5 -18 -4 -5 4 -5
16 2 13 7 37 14 54 16 17 3 69 11 116 19 47 8 103 14 125 15 56 1 85 10 85 27
0 8 8 13 18 11 13 -2 16 3 14 22 -2 14 -8 29 -13 35 -5 5 -9 30 -9 56 0 37 -6
54 -31 85 -28 36 -30 47 -15 84 4 9 -1 24 -10 35 -8 11 -12 14 -9 7 5 -10 2
-13 -11 -10 -25 5 -57 -73 -44 -107 6 -15 4 -41 -4 -72 -7 -27 -11 -63 -9 -79
6 -41 -23 -68 -40 -39 -12 20 -13 26 -16 54 -1 11 -4 11 -16 1 -12 -10 -16 -9
-21 4 -3 9 -1 23 6 31 7 8 10 24 7 34 -3 11 1 29 9 40 17 24 8 51 -16 51 -10
0 -21 6 -23 13 -3 6 -6 3 -6 -7 -1 -14 -4 -17 -12 -9 -16 16 -60 -28 -53 -54
3 -11 1 -24 -5 -27 -7 -4 -11 1 -11 13 0 25 -13 27 -30 6 -7 -9 -10 -27 -7
-45 8 -35 -8 -48 -32 -26 -10 9 -24 16 -33 16 -8 0 -21 11 -28 25 -7 14 -20
25 -29 25 -17 0 -81 55 -81 70 0 5 5 12 11 15 5 4 14 18 20 32 9 25 29 23 29
-3 0 -8 4 -14 9 -14 24 0 41 14 41 35 0 13 4 26 9 29 12 8 22 -20 14 -40 -3
-9 4 -24 18 -37 16 -15 21 -17 17 -5 -4 10 -1 19 9 22 10 4 14 15 11 35 -4 26
-2 28 13 20 23 -12 27 -27 21 -66 -4 -26 -1 -33 12 -33 30 0 55 33 57 76 3 49
-20 104 -43 104 -17 0 -22 14 -19 51 1 8 -8 37 -21 65 -20 44 -22 47 -28 25
-7 -32 -26 -38 -33 -11 -3 13 0 23 9 27 26 10 16 61 -18 95 -17 17 -32 38 -33
47 0 9 -4 21 -7 26 -3 6 -2 19 3 30 4 11 8 14 8 8 1 -16 71 -17 71 -2 0 8 4 8
14 0 10 -8 16 -9 21 -1 8 13 -53 40 -90 40 -14 0 -25 -4 -25 -10 0 -23 -32 -8
-41 20 -11 31 -24 36 -49 20z"/>
<path d="M5211 5094 c-31 -14 -32 -16 -17 -33 9 -10 16 -24 16 -32 0 -8 5 -20
11 -26 7 -7 5 -15 -7 -27 -16 -17 -16 -19 9 -43 14 -15 34 -27 44 -29 42 -5
64 -17 61 -33 -2 -11 -14 -16 -41 -16 -29 -1 -43 -7 -58 -25 -10 -14 -19 -28
-19 -31 0 -14 52 -40 63 -32 14 10 72 9 105 -2 19 -6 27 -23 23 -48 -1 -5 7
-11 17 -13 9 -3 24 -19 31 -35 12 -27 17 -30 47 -26 29 4 37 0 54 -23 11 -16
20 -34 20 -40 0 -9 17 -11 65 -5 56 6 70 4 100 -15 18 -11 37 -31 41 -43 9
-30 20 -35 87 -43 31 -4 57 -11 57 -16 0 -5 -22 -7 -52 -4 -29 3 -83 8 -120
11 -38 4 -68 11 -68 16 0 5 -5 9 -11 9 -5 0 -7 -5 -3 -11 4 -7 0 -9 -12 -6
-54 15 -83 17 -89 6 -16 -24 21 -30 289 -45 111 -7 119 -6 113 10 -4 10 -7 20
-7 22 0 2 -6 4 -12 4 -7 0 -24 9 -38 20 -22 17 -23 19 -7 25 27 11 20 23 -15
27 -29 3 -33 7 -36 36 -2 17 -7 32 -13 32 -5 0 -9 7 -9 15 0 18 -16 19 -60 3
-29 -10 -35 -9 -47 8 -8 10 -21 18 -29 16 -9 -2 -21 2 -29 8 -9 8 -17 7 -29
-6 -15 -15 -18 -14 -36 8 -11 12 -17 28 -15 35 6 17 -14 28 -28 14 -15 -15
-37 -14 -37 3 0 7 7 19 15 26 9 7 14 19 11 27 -3 7 1 13 9 13 8 0 15 -7 15
-15 0 -8 5 -15 10 -15 14 0 12 47 -2 57 -23 14 -99 30 -104 22 -10 -16 -24 -9
-24 11 0 11 -6 20 -14 20 -17 0 -31 35 -21 51 4 6 12 8 19 6 6 -3 12 3 12 12
0 9 4 26 8 39 8 23 6 25 -46 36 -31 7 -36 27 -13 50 17 17 20 46 5 46 -5 0
-10 -3 -10 -7 0 -14 -50 -31 -72 -25 -13 3 -31 14 -42 24 -23 21 -21 21 -65 2z"/>
<path d="M5872 5087 c-18 -21 15 -105 49 -122 15 -8 35 -12 43 -9 10 4 16 1
16 -9 0 -21 29 -30 48 -15 8 7 22 13 31 13 21 0 18 56 -5 90 -9 13 -13 29 -9
36 12 19 -13 26 -90 28 -48 1 -76 -3 -83 -12z"/>
<path d="M11980 4991 c0 -9 -31 -22 -62 -26 -9 -1 -24 -5 -32 -8 -10 -4 -19
-1 -22 8 -8 21 -21 19 -27 -4 -3 -13 3 -22 20 -30 24 -11 24 -13 9 -29 -14
-17 -14 -21 4 -58 15 -30 29 -42 60 -52 72 -22 70 -24 70 98 0 67 -4 110 -10
110 -5 0 -10 -4 -10 -9z"/>
<path d="M4743 4890 c6 -25 -1 -26 -20 -2 -13 15 -14 12 -9 -27 2 -24 10 -48
18 -52 10 -7 10 -9 1 -9 -9 0 -13 -23 -13 -80 l0 -79 35 -7 c40 -7 46 -4 46
22 0 35 -12 129 -18 144 -8 20 -8 20 -17 68 -4 23 -12 42 -18 42 -6 0 -8 -9
-5 -20z"/>
<path d="M6320 4869 c0 -37 -8 -40 -46 -18 -40 22 -126 26 -167 7 -35 -17 -29
-30 16 -41 20 -5 37 -13 37 -17 0 -5 -29 -22 -64 -39 -64 -30 -135 -85 -119
-93 23 -12 81 -8 92 6 8 9 21 16 31 16 10 0 23 7 30 14 6 8 38 25 70 38 47 18
59 27 64 49 4 21 12 28 41 33 42 8 55 30 31 54 -15 15 -16 14 -16 -9z"/>
<path d="M7370 4799 c-37 -23 -41 -39 -18 -69 12 -15 15 -26 9 -28 -6 -2 -11
-10 -11 -19 0 -10 6 -12 20 -8 14 5 20 2 20 -10 0 -13 -6 -15 -29 -10 -21 4
-30 2 -34 -9 -5 -12 0 -16 19 -16 22 0 24 -3 18 -27 -10 -42 -44 -75 -74 -71
-42 4 -74 -36 -75 -94 l0 -49 130 3 129 3 2 38 c3 37 3 37 -37 37 -21 0 -39 3
-39 6 0 16 44 58 62 59 12 1 24 8 27 16 2 8 16 25 31 39 28 27 45 60 30 60 -5
0 -15 -6 -22 -13 -20 -20 -58 -39 -58 -29 0 11 30 37 53 45 11 4 17 17 17 37
0 25 -4 30 -24 30 -14 0 -28 -4 -31 -10 -11 -17 -20 -11 -33 22 -10 28 -9 35
9 54 l20 22 -41 4 c-28 2 -51 -2 -70 -13z"/>
<path d="M11455 4810 c-4 -6 -18 -15 -31 -20 -18 -7 -24 -17 -24 -40 0 -17 3
-29 8 -27 4 2 15 -4 25 -15 9 -10 13 -18 7 -18 -5 0 -19 -9 -30 -20 l-20 -20
0 26 c0 16 -4 23 -11 18 -7 -4 -9 -23 -5 -50 5 -43 5 -44 -19 -38 -13 3 -29 3
-35 -1 -16 -10 33 -45 68 -50 25 -3 29 0 25 15 -5 19 11 35 27 25 6 -4 6 -15
0 -30 -10 -26 -4 -55 11 -55 5 0 14 11 19 25 9 24 14 25 92 26 46 0 76 3 68 6
-8 3 -28 11 -45 18 -16 7 -42 17 -57 23 -18 7 -26 17 -22 26 3 9 -2 17 -15 21
-20 6 -38 41 -27 52 3 3 1 14 -5 24 -7 15 -6 21 5 25 8 3 13 16 12 30 -3 29
-12 39 -21 24z"/>
<path d="M10683 4727 c34 -29 36 -57 3 -57 -25 0 -44 -30 -31 -49 3 -5 1 -12
-5 -16 -5 -3 -10 -1 -10 4 0 6 -11 1 -25 -11 -13 -11 -22 -25 -19 -29 3 -5 -3
-20 -12 -34 -13 -20 -14 -29 -5 -38 8 -8 11 -6 11 10 0 12 10 29 22 37 12 9
19 16 14 16 -5 0 -3 7 4 15 10 12 16 13 24 4 8 -8 8 -13 -1 -16 -7 -2 -10 -10
-8 -16 8 -25 13 -117 6 -117 -4 0 -12 -24 -17 -54 -9 -48 -8 -55 9 -66 14 -8
16 -15 8 -23 -13 -13 -15 -47 -2 -47 5 0 17 -3 27 -7 14 -5 16 -3 11 11 -9 23
20 66 45 66 10 0 16 5 13 10 -10 16 21 12 57 -8 30 -17 53 -18 263 -12 127 3
220 7 208 8 -12 1 -30 13 -40 26 -15 18 -23 22 -36 14 -24 -13 -40 0 -34 29 3
19 -3 29 -32 49 -19 13 -48 24 -63 24 -16 0 -28 4 -28 9 0 5 -18 12 -41 16
-22 4 -53 13 -67 21 -15 8 -32 14 -38 14 -6 0 -17 7 -24 15 -7 9 -15 13 -18
11 -8 -9 -42 14 -42 29 0 8 8 19 18 24 15 10 15 10 -3 11 -12 0 -26 -5 -33
-12 -9 -9 -16 -7 -32 7 -24 22 -18 35 18 35 15 0 33 4 40 8 19 13 3 42 -23 42
-13 0 -25 7 -29 15 -3 8 -14 15 -24 15 -10 0 -27 9 -37 20 -10 11 -25 20 -34
20 -11 -1 -8 -7 12 -23z"/>
<path d="M11761 4509 c-13 -10 -29 -19 -37 -19 -8 0 -15 -9 -15 -20 -1 -11 -2
-26 -3 -32 0 -7 -14 -16 -31 -19 -23 -5 -18 -7 25 -8 60 -1 73 -7 83 -33 6
-18 47 -25 61 -10 4 4 12 7 17 7 13 0 13 12 -1 45 -7 16 -20 32 -29 35 -9 2
-23 20 -31 39 l-15 34 -24 -19z"/>
<path d="M95 4429 c-4 -5 1 -19 11 -30 25 -28 8 -38 -54 -30 l-52 7 1 -58 c1
-42 5 -58 15 -58 8 0 14 -3 14 -7 0 -5 19 -9 42 -10 23 -2 45 -8 49 -14 4 -8
12 -8 26 -1 11 6 31 8 44 5 23 -5 23 -5 5 9 -25 20 -12 42 20 34 33 -9 30 6
-6 27 -16 10 -30 22 -30 28 0 15 18 10 32 -8 7 -10 18 -19 23 -20 6 -1 17 -4
26 -8 10 -4 19 0 23 10 3 10 -1 18 -12 21 -44 14 -102 48 -102 60 0 13 -46 54
-61 54 -4 0 -11 -5 -14 -11z"/>
<path d="M11862 4338 c-7 -7 -38 -12 -80 -11 l-67 2 53 -24 c51 -24 64 -39 40
-47 -8 -3 -4 -9 10 -17 20 -10 22 -9 22 11 0 17 3 19 12 10 17 -17 27 -15 22
6 -3 11 4 21 20 28 23 11 26 9 42 -24 15 -33 15 -36 0 -47 -21 -16 -20 -21 9
-52 21 -23 25 -25 30 -10 4 9 4 21 0 26 -3 7 0 8 9 5 12 -5 16 1 16 24 0 22
-6 32 -19 37 -11 3 -23 14 -26 25 -10 31 -45 70 -64 70 -9 0 -22 -5 -29 -12z"/>
<path d="M3259 4325 c-29 -16 -44 -54 -33 -88 9 -30 54 -77 75 -77 23 0 35 61
15 76 -13 9 -12 15 4 42 11 18 24 32 30 32 13 0 13 -17 -1 -25 -6 -5 -4 -11 6
-19 15 -10 15 -14 2 -24 -19 -16 -10 -64 12 -60 21 4 41 45 41 85 0 61 -85 94
-151 58z"/>
<path d="M10381 4297 c0 -16 4 -37 9 -48 7 -13 7 -19 0 -19 -14 0 -13 -49 3
-64 7 -7 18 -11 25 -8 6 2 12 -1 12 -7 0 -6 11 -8 28 -5 29 6 62 -21 86 -67 6
-12 17 -25 25 -27 20 -7 7 51 -24 104 -18 31 -30 41 -44 37 -12 -3 -20 2 -24
16 -5 22 -41 29 -52 11 -13 -20 -20 -9 -19 30 0 22 -3 40 -7 40 -4 0 -10 8
-12 18 -3 10 -5 6 -6 -11z"/>
<path d="M3647 4090 c-30 -23 -46 -84 -29 -110 5 -9 7 -29 4 -45 -4 -26 -3
-28 19 -22 13 4 39 7 56 7 47 0 91 43 99 97 6 37 3 45 -21 67 -35 33 -91 35
-128 6z m122 -31 c30 -54 -13 -120 -77 -117 -35 1 -41 5 -51 35 -23 64 11 116
73 111 31 -2 44 -9 55 -29z"/>
<path d="M5028 4019 c-34 -19 -19 -110 25 -157 l22 -24 5 64 c4 52 8 63 25 67
15 2 17 0 9 -10 -13 -17 -18 -119 -6 -119 5 0 17 9 27 20 27 30 16 116 -19
147 -29 24 -60 29 -88 12z"/>
<path d="M11460 3926 c0 -14 6 -29 14 -33 38 -22 37 -93 -2 -93 -10 0 -23 -5
-29 -11 -7 -7 -14 -6 -25 4 -7 8 -23 17 -35 21 -18 6 -20 12 -16 46 4 26 2 40
-6 40 -12 0 -15 -49 -5 -98 5 -27 11 -31 63 -42 31 -7 67 -14 80 -17 15 -4 22
-2 18 4 -4 6 2 13 13 16 32 8 26 60 -16 123 -43 65 -54 73 -54 40z"/>
<path d="M5635 3890 c-3 -6 1 -13 9 -16 19 -7 36 -59 33 -99 -1 -21 3 -30 15
-33 15 -3 17 2 12 27 -5 24 -1 39 20 66 41 53 50 46 43 -36 -5 -63 -4 -70 11
-67 11 2 16 11 14 26 -4 30 5 28 38 -8 18 -20 38 -30 57 -30 27 0 28 1 27 53
-1 28 3 59 7 69 7 14 -6 28 -26 28 -1 0 -3 -28 -4 -62 -1 -34 -5 -66 -10 -71
-5 -5 -22 8 -40 30 l-32 38 31 27 c35 32 37 38 12 38 -9 0 -25 -12 -35 -27
l-18 -28 3 29 c3 26 -1 31 -31 38 -33 9 -70 3 -58 -9 9 -9 -13 -34 -24 -27 -5
3 -9 13 -9 24 0 10 -7 21 -16 24 -21 8 -22 8 -29 -4z"/>
<path d="M6052 3853 c-16 -14 -22 -31 -23 -75 -4 -81 14 -98 96 -98 38 0 67 5
73 13 6 6 13 38 16 69 6 49 4 60 -14 78 -12 12 -33 20 -52 20 -18 0 -42 3 -54
6 -12 3 -29 -2 -42 -13z"/>
<path d="M6847 3755 c18 -33 23 -53 18 -75 -5 -23 -3 -30 9 -30 11 0 16 10 16
33 0 21 10 45 28 67 32 37 54 34 47 -8 -15 -96 -14 -102 5 -102 16 0 18 5 14
30 -8 36 10 41 27 8 16 -30 28 -38 62 -38 32 0 34 4 40 88 l5 62 -44 0 c-38 0
-45 -4 -59 -30 -9 -16 -18 -30 -22 -30 -3 0 -3 14 1 30 5 26 3 30 -17 30 -12
0 -31 3 -43 6 -15 4 -23 -1 -32 -20 -15 -33 -32 -33 -32 -1 0 20 -5 25 -24 25
l-25 0 26 -45z"/>
<path d="M11360 3682 c0 -15 5 -33 10 -38 15 -15 -5 -64 -25 -64 -8 0 -15 4
-15 8 0 5 -11 22 -25 38 -14 16 -25 23 -25 17 0 -7 -6 -13 -14 -13 -7 0 -16
-10 -20 -22 -8 -33 -8 -38 7 -38 8 0 19 -11 25 -25 10 -21 9 -25 -3 -25 -11 0
-15 -12 -15 -49 0 -28 5 -53 10 -56 6 -3 10 -21 10 -40 0 -19 4 -36 10 -40 15
-9 49 17 42 34 -4 10 -1 13 10 8 10 -3 19 1 23 11 6 16 7 16 16 -1 6 -10 7
-31 4 -48 l-7 -30 44 8 c23 4 51 7 60 7 21 0 42 47 34 74 -4 11 -16 22 -28 25
-16 5 -19 11 -15 29 4 15 -1 36 -14 57 -11 19 -18 43 -15 54 3 12 -3 31 -15
45 -10 14 -19 35 -19 47 0 20 -27 55 -43 55 -4 0 -7 -13 -7 -28z"/>
<path d="M5324 3642 c-21 -14 -32 -48 -35 -112 l-4 -64 35 -9 c79 -20 121 -2
136 59 19 76 -74 165 -132 126z m87 -41 c68 -68 11 -159 -75 -120 -56 26 -34
149 26 149 11 0 33 -13 49 -29z"/>
<path d="M10343 3573 c-44 -8 -89 -103 -49 -103 7 0 19 -7 26 -15 7 -9 19 -14
27 -11 7 3 13 1 13 -5 0 -6 9 -8 20 -4 14 5 20 2 20 -9 0 -20 24 -21 40 -1 18
22 22 85 5 85 -8 0 -11 7 -8 19 3 12 -3 24 -18 35 -23 16 -34 17 -76 9z"/>
<path d="M11628 3556 c-10 -7 -18 -18 -18 -25 0 -14 -11 -14 -44 -1 -17 6 -26
6 -26 0 0 -6 5 -10 10 -10 6 0 10 -13 10 -30 0 -25 -4 -30 -25 -30 -28 0 -30
-6 -15 -45 15 -38 66 -55 175 -58 54 -1 96 -6 96 -12 1 -5 3 -14 3 -20 1 -5 6
-17 11 -25 5 -8 10 -19 11 -25 27 -139 29 -148 52 -156 13 -5 27 -9 32 -9 11
0 1 41 -15 60 -27 32 -57 103 -46 109 6 4 7 12 1 21 -15 23 -12 30 14 30 13 0
29 7 36 15 7 8 22 16 34 16 15 1 12 3 -9 8 -25 5 -29 11 -27 31 2 14 7 29 12
34 5 5 6 15 3 23 -5 12 -8 11 -23 -2 -16 -14 -18 -14 -23 0 -4 9 -19 15 -36
15 -16 0 -33 5 -36 10 -10 16 -28 12 -21 -5 9 -24 -21 -18 -39 8 -15 20 -17
21 -26 4 -6 -9 -14 -15 -20 -12 -5 4 -9 -2 -9 -12 -1 -17 -2 -17 -15 2 -15 19
-16 19 -33 1 -16 -18 -16 -18 0 -13 16 6 35 -9 25 -19 -12 -12 -57 9 -57 27 0
22 32 41 54 33 9 -3 16 -2 17 2 0 5 2 24 3 42 4 34 -7 40 -36 18z"/>
<path d="M8587 3542 c-10 -10 -17 -25 -17 -34 0 -17 31 -48 48 -48 19 0 14
-18 -8 -30 -11 -6 -20 -15 -20 -20 0 -18 28 -10 59 16 38 31 78 27 83 -9 4
-26 33 -30 33 -5 0 29 20 40 59 32 l37 -6 -22 -24 c-28 -30 -18 -42 15 -20 27
17 42 70 31 105 -7 24 -51 38 -74 24 -9 -6 -17 -20 -19 -32 -2 -11 -10 -21
-18 -21 -10 0 -13 7 -8 24 11 46 -6 50 -46 11 l-37 -37 -7 36 c-10 53 -57 73
-89 38z"/>
<path d="M117 3310 c-3 -11 -1 -38 4 -61 6 -23 9 -63 8 -88 -1 -25 4 -68 11
-96 6 -27 15 -86 19 -130 5 -44 11 -94 15 -112 5 -20 3 -34 -4 -38 -9 -6 -9
-10 1 -16 23 -15 55 -10 83 12 27 22 41 18 71 -17 6 -6 24 -14 42 -18 l31 -7
-10 48 c-6 26 -19 61 -30 76 -11 15 -18 34 -15 41 3 7 -8 42 -25 77 -21 45
-31 82 -33 123 -1 32 -7 61 -12 65 -6 3 -16 23 -24 44 -18 50 -39 69 -39 36
-1 -22 -2 -23 -14 -6 -7 9 -18 17 -23 17 -6 0 -16 7 -24 16 -11 13 -9 14 14 9
21 -6 27 -3 27 9 0 16 -29 36 -53 36 -8 0 -17 -9 -20 -20z"/>
<path d="M6276 3231 c-26 -29 -25 -106 1 -133 54 -54 121 41 82 115 -22 42
-55 49 -83 18z"/>
<path d="M2090 2471 c5 -11 15 -23 20 -26 18 -11 10 -26 -19 -36 -36 -13 -47
-36 -26 -58 21 -24 79 -16 94 12 7 13 10 15 7 5 -4 -14 1 -18 20 -18 14 0 23
4 20 9 -3 5 5 16 19 25 l24 16 -27 28 c-15 15 -50 35 -78 45 -65 21 -67 21
-54 -2z"/>
<path d="M918 2423 c-61 -53 -88 -108 -88 -180 0 -23 -5 -45 -11 -48 -6 -4 -7
-19 -4 -35 9 -42 -11 -46 -52 -9 -34 30 -108 68 -160 84 -55 16 -33 -130 35
-234 43 -66 50 -101 21 -101 -49 0 -128 -53 -129 -87 -1 -39 208 -153 257
-140 13 3 11 5 -7 6 -15 0 -30 5 -35 10 -6 5 -33 16 -62 25 -64 21 -102 57
-101 97 1 16 6 29 12 29 6 0 4 4 -4 10 -12 7 -11 10 5 15 11 4 28 11 37 16 26
13 55 11 55 -5 0 -19 24 -76 32 -76 4 0 16 -8 27 -18 24 -22 107 -52 145 -52
15 0 31 -5 34 -10 4 -7 13 -6 26 1 11 5 32 9 47 6 26 -3 26 -4 -13 -21 -22
-10 -62 -22 -90 -26 -44 -7 -46 -8 -14 -9 20 0 60 6 88 16 49 16 52 15 66 -3
8 -10 15 -14 15 -8 0 5 -6 16 -12 23 -11 10 -10 15 3 24 17 13 22 47 7 47 -5
0 -19 -6 -31 -14 -80 -51 -307 23 -307 100 0 13 10 32 22 44 17 15 18 20 6 20
-20 0 -91 77 -116 127 -11 21 -23 59 -27 83 -5 40 -4 47 16 59 17 10 24 10 27
2 2 -6 8 -11 13 -11 4 0 6 8 2 18 -6 16 -5 16 14 0 11 -10 26 -18 34 -18 21 0
99 -75 101 -96 0 -11 2 -24 2 -31 1 -7 19 -30 40 -52 23 -23 36 -46 33 -54 -3
-8 0 -20 6 -26 8 -8 4 -11 -15 -11 -18 0 -48 17 -85 49 -73 61 -83 73 -127
145 -20 33 -36 56 -36 50 0 -34 91 -154 154 -202 31 -24 28 -44 -4 -24 -15 9
-18 9 -14 -1 4 -13 82 -35 142 -42 39 -4 142 -54 149 -72 3 -7 11 -13 19 -13
8 0 14 -4 14 -10 0 -5 -4 -10 -8 -10 -5 0 -9 -7 -9 -15 0 -14 10 -19 30 -16 4
0 7 -6 7 -15 0 -8 4 -13 9 -9 5 3 12 1 15 -4 9 -13 46 -1 46 15 0 26 22 10 48
-35 12 -20 11 -23 -7 -28 -12 -3 -21 -9 -21 -13 0 -11 -76 -11 -107 0 -26 9
-27 9 -9 -5 26 -20 105 -19 135 1 21 15 26 15 50 1 14 -8 49 -18 76 -21 28 -3
42 -3 33 0 -10 3 -18 10 -18 15 0 5 -13 9 -30 9 -16 0 -30 5 -30 10 0 6 -9 10
-20 10 -10 0 -24 9 -30 19 -14 27 -13 31 9 31 11 0 23 5 26 10 3 6 1 10 -4 10
-15 0 -14 20 2 20 14 1 65 70 85 115 15 34 24 125 12 125 -4 0 -10 9 -13 20
-8 33 54 109 118 144 27 14 28 16 5 11 -23 -5 -25 -3 -27 32 -5 107 -35 183
-71 183 -10 0 -34 -16 -54 -35 l-35 -35 -43 40 c-24 22 -45 40 -47 40 -2 0
-26 -11 -53 -25 -66 -34 -94 -33 -110 4 -6 16 -24 40 -39 55 l-27 26 -56 -47z
m8 -53 c-23 -59 -19 -73 6 -17 11 26 26 46 32 44 6 -2 16 3 22 11 9 13 14 12
32 -6 12 -12 22 -28 22 -36 0 -12 -27 -27 -55 -30 -5 -1 -29 -19 -52 -42 -30
-29 -43 -52 -48 -80 l-6 -39 14 36 c8 20 30 52 49 72 32 32 40 35 79 31 24 -3
53 -6 64 -7 31 -3 103 -59 116 -89 6 -16 15 -28 20 -28 5 0 9 -13 9 -30 0 -34
-5 -37 -26 -15 -13 12 -19 12 -50 -5 -19 -11 -43 -20 -54 -20 -11 0 -20 -4
-20 -10 0 -6 15 -8 36 -4 25 4 34 2 29 -5 -3 -6 -1 -11 4 -11 6 0 11 7 11 15
0 18 20 20 21 3 0 -10 2 -10 6 0 8 19 23 14 23 -8 0 -11 6 -20 14 -20 8 0 16
-6 19 -12 2 -7 2 -4 0 7 -3 11 -4 39 -3 62 0 26 -7 54 -20 75 -11 18 -20 47
-21 63 -1 17 -3 22 -6 13 -6 -24 -13 -23 -61 14 -41 32 -46 48 -13 48 10 0 24
7 31 15 7 8 20 15 30 15 14 0 17 -6 13 -22 -5 -23 -5 -23 10 -3 16 20 16 19
17 -7 0 -15 5 -30 11 -34 8 -4 9 1 5 17 -7 24 -7 24 9 4 9 -11 21 -19 26 -17
16 4 58 -49 69 -87 12 -44 13 -121 1 -139 -7 -12 -12 -12 -32 0 -13 7 -26 15
-29 18 -10 10 -30 10 -30 0 0 -5 6 -10 13 -10 7 0 25 -19 40 -42 15 -23 27
-35 27 -28 1 11 5 10 15 -4 32 -43 12 -144 -37 -195 -49 -49 -127 -77 -85 -31
10 12 9 12 -5 1 -9 -7 -22 -10 -28 -6 -5 3 -10 -1 -10 -9 0 -9 -4 -16 -10 -16
-5 0 -10 9 -10 19 0 15 -5 18 -21 14 -14 -4 -28 2 -42 19 -12 13 -18 18 -13
11 17 -26 -4 -26 -32 -1 -15 14 -34 23 -42 20 -11 -4 -10 -1 3 12 16 16 16 20
1 48 -9 17 -14 42 -11 57 3 15 2 33 -4 41 -6 11 -9 8 -9 -12 0 -18 -5 -28 -15
-28 -19 0 -19 -2 5 -45 25 -44 25 -56 3 -48 -26 10 -51 41 -78 98 -19 38 -25
67 -26 125 -1 52 -3 67 -9 50 -4 -14 -5 -45 -3 -70 4 -39 3 -42 -8 -25 -15 23
-25 187 -15 241 7 34 82 131 94 120 2 -3 -3 -23 -12 -46z m457 -17 c-5 -12 -2
-15 10 -10 12 4 21 -3 33 -29 20 -42 14 -88 -18 -152 -29 -58 -50 -67 -47 -20
3 44 -19 134 -37 149 -19 16 -18 23 9 53 25 29 60 36 50 9z"/>
<path d="M1594 2415 c3 -8 0 -15 -6 -15 -9 0 -9 -3 0 -12 13 -13 16 -85 6
-112 -9 -25 -24 -19 -24 9 0 18 -5 25 -19 25 -20 0 -35 25 -26 41 4 5 -1 6 -9
3 -17 -7 -22 -24 -7 -24 5 0 12 -17 16 -38 3 -20 9 -43 13 -49 7 -12 59 -18
126 -15 32 2 37 5 31 20 -5 9 -8 25 -9 35 0 9 -6 17 -13 17 -9 0 -13 17 -13
55 0 42 -3 55 -15 55 -8 0 -15 -7 -15 -15 0 -8 -7 -15 -15 -15 -17 0 -20 16
-5 25 12 7 4 25 -12 25 -5 0 -8 -7 -4 -15z"/>
<path d="M1855 2363 c-9 -21 -15 -60 -14 -90 3 -60 14 -69 73 -57 41 7 94 48
77 58 -6 4 -11 16 -11 26 0 10 -10 26 -21 34 -12 8 -27 25 -33 38 -6 13 -21
24 -33 26 -17 3 -26 -5 -38 -35z"/>
<path d="M6 2324 c-8 -21 -8 -334 0 -334 4 0 12 7 18 16 9 12 17 13 39 5 24
-9 27 -8 27 10 0 12 -7 35 -16 52 -9 18 -20 39 -24 47 -4 8 -2 27 4 42 8 20 6
40 -7 81 -9 29 -17 63 -17 75 0 26 -15 29 -24 6z"/>
<path d="M5061 2273 c1 -12 129 -118 246 -205 91 -67 251 -168 268 -168 16 0
0 28 -28 48 -17 12 -63 52 -102 88 -103 97 -158 137 -272 193 -106 53 -113 56
-112 44z"/>
<path d="M225 2185 c4 -27 11 -65 17 -82 5 -18 9 -65 9 -104 0 -83 -13 -104
-69 -112 -84 -11 -182 -44 -182 -61 0 -9 25 -5 95 13 88 22 114 25 203 22 97
-3 142 11 142 44 0 8 8 15 18 15 9 0 41 9 70 20 29 11 62 20 73 20 15 0 19 4
15 16 -3 9 -6 17 -6 20 0 2 -6 2 -12 0 -32 -9 -136 -39 -164 -47 -50 -15 -76
-12 -72 9 2 10 13 17 28 17 14 0 35 4 47 8 19 7 21 12 12 29 -8 14 -17 18 -33
14 -36 -9 -49 29 -25 73 10 19 16 38 13 43 -9 15 -116 9 -128 -7 -8 -11 -15
-12 -26 -4 -11 7 -11 12 -3 15 9 4 9 13 1 37 -18 55 -30 56 -23 2z"/>
<path d="M1700 1960 c-25 -4 -48 -6 -51 -4 -4 2 -12 -3 -19 -11 -7 -8 -17 -15
-23 -15 -6 0 -28 -16 -48 -36 -26 -25 -52 -39 -95 -49 -32 -7 -62 -11 -66 -9
-4 3 -20 -2 -35 -10 l-28 -15 40 5 c22 2 47 7 57 10 9 2 19 0 23 -6 4 -7 14
-5 28 5 12 8 27 15 33 15 11 0 28 -35 25 -52 -1 -5 3 -8 8 -8 14 0 30 83 18
91 -5 4 1 14 14 23 35 22 109 47 109 36 0 -6 7 -10 15 -10 23 0 18 -16 -15
-53 -30 -34 -39 -54 -20 -42 6 3 10 2 10 -4 0 -5 -21 -28 -47 -51 -29 -26 -35
-34 -16 -21 41 28 98 97 117 142 22 54 28 79 19 78 -4 -1 -28 -5 -53 -9z"/>
<path d="M4027 1933 c-8 -14 -20 -97 -19 -133 1 -19 -4 -43 -12 -55 -7 -11
-21 -44 -30 -72 -10 -29 -24 -53 -31 -53 -7 0 -16 -6 -18 -12 -4 -10 -6 -10
-6 -1 -1 7 -7 10 -15 7 -11 -4 -17 5 -22 33 l-8 38 -7 -30 c-12 -54 -10 -65
12 -65 18 0 20 -5 16 -26 -4 -23 -2 -25 22 -19 14 4 28 11 29 16 2 5 8 7 13 4
27 -17 178 32 216 70 8 8 25 15 38 15 13 0 26 4 29 8 3 5 38 14 78 21 40 7 98
20 128 27 30 8 79 21 108 28 64 16 76 26 34 26 -17 0 -34 -4 -37 -10 -10 -15
-35 -12 -35 5 0 8 -8 15 -17 15 -13 0 -14 -3 -5 -12 20 -20 14 -28 -24 -28
-28 0 -35 3 -31 15 4 8 2 17 -3 20 -6 4 -10 17 -10 30 0 27 -16 42 -23 23 -4
-9 -12 -5 -26 12 -20 25 -21 25 -21 3 0 -12 4 -24 9 -27 15 -10 19 -55 5 -60
-20 -8 -17 -24 4 -28 9 -2 -14 -8 -53 -12 -38 -5 -73 -12 -76 -18 -3 -5 -28
-10 -55 -11 l-49 -2 -3 55 c-3 63 -29 179 -44 198 -11 13 -54 17 -61 5z"/>
<path d="M7589 1818 c-1 -13 0 -35 1 -51 1 -23 -4 -30 -35 -43 -20 -8 -38 -21
-42 -30 -3 -9 -12 -12 -24 -9 -11 4 -19 2 -19 -4 0 -6 7 -11 15 -11 8 0 15 -4
15 -10 0 -17 60 -12 67 6 9 23 34 -55 27 -83 -7 -28 -24 -30 -24 -4 0 11 -4
23 -10 26 -5 3 -10 1 -10 -4 0 -6 -4 -11 -10 -11 -5 0 -9 3 -9 8 3 19 -2 26
-10 13 -7 -10 -4 -19 6 -26 18 -14 10 -51 -8 -39 -8 5 -10 -1 -6 -18 5 -17 2
-30 -9 -38 -8 -7 -12 -20 -9 -27 2 -8 0 -23 -5 -33 -8 -14 -6 -21 6 -28 10 -5
14 -14 9 -21 -5 -9 -12 -7 -26 8 -27 28 -51 27 -47 -1 2 -16 9 -22 21 -20 15
3 16 0 6 -17 -18 -27 4 -51 47 -51 18 0 35 -4 38 -9 8 -12 66 -20 72 -9 9 15
25 8 22 -9 -2 -10 4 -19 15 -21 17 -4 22 10 18 55 -1 12 8 28 20 37 17 11 19
18 11 28 -18 23 -26 89 -11 99 20 12 4 22 -24 15 -19 -4 -23 -11 -20 -30 3
-13 0 -27 -6 -30 -7 -5 -11 10 -11 44 0 50 1 51 27 48 23 -2 29 2 36 27 5 17
14 39 19 49 8 16 6 23 -9 36 -11 9 -23 32 -27 52 -4 20 -12 39 -19 41 -7 2 -9
8 -5 12 4 4 19 0 33 -9 14 -9 25 -12 25 -6 0 5 7 10 15 10 8 0 15 8 15 17 0
13 -3 14 -12 5 -17 -17 -47 -15 -54 3 -4 10 -13 13 -25 10 -15 -5 -19 -1 -19
15 0 47 -39 83 -41 38z"/>
<path d="M8260 1321 c0 -6 4 -12 9 -15 5 -3 14 -26 20 -50 6 -27 18 -47 28
-50 10 -3 26 -20 36 -37 16 -29 16 -33 2 -49 -20 -23 -19 -33 4 -27 12 3 22
-1 26 -11 8 -21 0 -25 -23 -13 -31 17 -49 13 -25 -4 12 -9 20 -22 17 -29 -3
-8 -1 -17 5 -21 6 -3 11 1 11 9 0 11 7 15 23 12 15 -2 21 -9 19 -23 -3 -19 34
-53 58 -53 17 0 11 24 -10 43 -29 25 -25 62 6 50 7 -3 16 -20 20 -39 7 -36 30
-46 37 -16 5 20 7 16 33 -71 19 -64 26 -73 43 -53 9 11 8 17 -4 29 -8 9 -15
23 -15 32 0 12 4 14 19 5 28 -14 28 -14 35 30 3 22 11 40 16 40 7 0 7 7 -1 21
-9 17 -18 20 -51 17 -39 -4 -40 -3 -34 27 4 19 3 25 -3 16 -15 -23 -42 -5 -39
26 2 22 -2 28 -22 33 -14 3 -25 12 -25 20 0 10 -10 15 -30 15 -38 0 -57 12
-53 34 3 20 -19 51 -36 51 -7 0 -27 13 -46 30 -37 31 -50 36 -50 21z"/>
<path d="M7960 1066 c-1 -25 26 -75 42 -79 10 -3 18 -13 18 -22 0 -12 -5 -15
-22 -10 -19 6 -21 5 -10 -6 18 -19 15 -36 -8 -42 -15 -4 -20 0 -20 14 0 10 -6
19 -13 19 -7 0 -19 6 -25 13 -17 16 -94 17 -110 0 -11 -11 -8 -14 17 -19 29
-6 31 -9 31 -50 0 -30 -5 -46 -17 -53 -14 -8 -11 -12 21 -25 41 -17 64 -13 46
9 -7 8 -7 15 -1 19 5 4 12 2 16 -4 4 -7 13 -6 27 1 24 13 41 -5 32 -34 -5 -16
-2 -18 15 -12 13 4 21 2 21 -5 0 -8 -14 -11 -40 -8 -22 2 -40 0 -40 -4 0 -11
31 -16 110 -17 41 -1 91 -4 110 -7 27 -4 31 -3 20 5 -13 10 -13 12 0 21 13 8
12 10 -2 10 -24 0 -23 8 3 29 30 24 17 58 -29 79 -21 9 -41 23 -45 30 -7 10
-12 11 -23 1 -12 -10 -18 -9 -32 5 -16 17 -16 18 7 11 23 -7 22 -4 -12 36 -20
24 -48 58 -61 74 -14 17 -26 26 -26 21z"/>
<path d="M5051 743 c-6 -16 -18 -61 -26 -102 -9 -41 -20 -80 -26 -87 -5 -6
-30 -15 -55 -19 -30 -4 -53 -15 -66 -31 -12 -13 -27 -24 -34 -24 -12 0 -30
-37 -22 -45 1 -2 33 11 70 28 36 18 70 33 75 34 4 1 22 8 40 15 27 10 35 10
50 -4 13 -12 29 -15 61 -11 23 3 42 8 42 11 0 14 -33 40 -45 36 -7 -3 -15 2
-19 12 -4 12 -2 15 9 10 10 -3 17 3 21 19 3 14 9 25 13 25 9 0 32 62 25 69 -3
3 -10 -2 -15 -12 -11 -19 -34 -24 -24 -4 4 6 -1 3 -9 -7 -9 -11 -16 -26 -16
-33 0 -16 -2 -16 -35 1 -16 9 -22 17 -15 21 8 5 8 11 -1 22 -10 12 -10 16 2
24 8 5 21 9 29 9 13 1 13 2 0 13 -8 7 -14 22 -12 35 5 30 -3 28 -17 -5z"/>
<path d="M7006 684 c-3 -9 -6 -30 -6 -48 0 -37 -52 -106 -80 -106 -31 0 -34
-20 -3 -21 15 -1 57 -4 93 -6 64 -4 148 -6 182 -4 14 1 16 12 15 74 l-2 72
-27 -3 c-16 -2 -28 1 -28 7 0 6 -19 11 -44 11 -35 0 -48 -5 -60 -22 -17 -24
-19 -20 -16 24 2 30 -15 46 -24 22z"/>
<path d="M3537 555 c-24 -29 -33 -34 -55 -28 -25 6 -26 5 -13 -11 21 -25 0
-66 -35 -66 -21 0 -25 4 -21 19 3 14 1 18 -9 14 -8 -3 -14 -9 -14 -14 0 -5
-10 -9 -23 -9 -18 0 -23 -5 -22 -27 0 -16 6 -34 13 -41 6 -7 12 -19 12 -26 0
-6 16 -18 35 -25 48 -17 47 -43 -1 -39 -62 5 -50 -24 19 -46 9 -3 17 -14 17
-25 0 -20 85 -101 106 -101 6 0 22 8 35 19 13 10 30 16 37 14 6 -3 12 0 12 7
0 6 5 8 10 5 14 -9 -8 -48 -24 -42 -10 4 -10 -3 -2 -29 6 -19 16 -34 22 -34 7
0 15 -11 18 -25 8 -30 26 -33 26 -4 0 16 5 20 28 17 19 -2 26 -8 24 -20 -2
-11 4 -19 13 -19 8 -1 27 -3 43 -5 15 -2 58 -5 95 -8 60 -5 68 -3 63 10 -3 9
3 27 16 42 19 25 20 21 2 -23 -14 -34 61 -5 97 38 22 26 32 31 63 29 20 -2 36
2 36 8 0 5 -7 10 -15 10 -8 0 -15 7 -15 15 0 8 8 15 18 15 14 0 15 2 2 10 -8
5 -25 10 -36 10 -12 0 -27 7 -34 15 -6 8 -21 13 -32 12 -26 -3 -34 17 -15 34
12 12 12 17 1 34 -13 20 -21 49 -24 90 -1 15 -3 16 -7 5 -4 -8 -12 -21 -20
-28 -11 -11 -13 -7 -13 25 0 48 -46 110 -74 100 -9 -4 -15 -11 -12 -16 3 -4
-3 -16 -14 -26 -18 -16 -20 -16 -20 -2 0 10 -4 17 -9 17 -5 0 -7 -9 -4 -21 4
-12 11 -18 20 -15 44 17 63 18 63 2 0 -9 -7 -19 -16 -23 -9 -3 -12 -9 -7 -12
10 -7 43 -69 43 -81 0 -12 -28 -20 -46 -13 -12 4 -14 14 -9 39 3 21 2 34 -5
34 -5 0 -10 -7 -10 -15 0 -19 -9 -19 -29 -1 -22 19 -61 30 -61 17 0 -19 -38
-12 -45 9 -3 11 -17 23 -31 26 -27 7 -31 19 -9 28 8 3 15 17 15 30 0 28 25 46
65 46 20 0 26 4 23 18 -4 17 -10 18 -40 7 -13 -5 -18 -2 -18 9 0 10 9 16 25
16 31 0 33 16 3 24 -40 10 -56 7 -61 -14 -4 -16 -14 -20 -46 -20 -23 0 -41 5
-41 10 0 6 7 10 15 10 8 0 15 4 15 9 0 11 -29 23 -40 16 -4 -3 -10 2 -14 10
-9 24 -29 17 -59 -20z"/>
<path d="M3234 376 c-19 -19 -34 -30 -34 -25 0 19 -28 8 -33 -12 -4 -16 -11
-20 -26 -16 -30 7 -26 -2 19 -48 39 -39 51 -65 29 -65 -5 0 -7 -4 -4 -10 3 -5
17 2 31 17 20 21 29 25 42 17 11 -7 27 -8 48 -1 25 8 33 16 37 41 6 36 0 44
-33 49 -19 3 -26 11 -28 31 -2 15 2 34 9 42 25 31 -23 14 -57 -20z"/>
<path d="M1512 274 c-7 -8 -17 -12 -22 -9 -4 3 -6 -3 -3 -13 3 -13 -4 -20 -28
-27 -41 -13 -58 -37 -40 -59 10 -12 31 -16 77 -16 50 0 64 -3 64 -15 0 -8 9
-15 19 -15 11 0 27 -3 37 -7 12 -4 15 -2 12 8 -3 8 -11 13 -17 11 -16 -3 -13
9 6 23 9 7 13 17 9 23 -11 18 -54 14 -65 -5 -9 -17 -11 -17 -27 -1 -22 22 -15
29 33 37 52 9 53 41 3 55 -19 5 -37 13 -40 17 -3 4 -11 0 -18 -7z"/>
<path d="M1925 260 c-3 -5 -15 -10 -26 -10 -20 0 -20 0 -1 -21 16 -17 18 -26
10 -57 -5 -20 -11 -50 -14 -66 -5 -34 -30 -76 -44 -76 -6 0 -10 -4 -10 -9 0
-14 53 -20 74 -9 13 7 21 6 27 -3 8 -12 11 -12 18 1 12 18 5 31 -14 23 -27
-10 -16 27 10 39 18 8 24 17 19 27 -3 9 -8 48 -9 86 -2 39 -4 73 -4 78 -1 11
-29 9 -36 -3z"/>
</g>
</svg>
