<svg version="1.0" xmlns="http://www.w3.org/2000/svg"
 width="1280.000000pt" height="1280.000000pt" viewBox="0 0 1280.000000 1280.000000"
 preserveAspectRatio="xMidYMid meet">

<g transform="translate(0.000000,1280.000000) scale(0.100000,-0.100000)"
fill="#000000" stroke="none">
<path d="M5979 8995 c44 -50 39 -57 -8 -11 l-39 38 -53 -28 c-32 -17 -100 -76
-170 -145 -102 -102 -121 -117 -158 -123 -82 -13 -155 -65 -121 -86 9 -6 26 2
49 21 35 29 61 37 61 20 0 -5 -12 -29 -26 -55 -14 -25 -23 -50 -19 -56 9 -15
32 -12 39 5 3 8 14 15 24 15 12 0 32 24 61 75 23 41 47 75 52 75 14 0 11 -12
-20 -81 -15 -35 -36 -89 -45 -119 -10 -30 -20 -62 -23 -70 -3 -8 -7 -19 -8
-25 -5 -23 -37 -142 -45 -170 -25 -88 -34 -166 -34 -320 -1 -162 0 -174 28
-257 17 -49 40 -97 53 -110 l23 -21 0 114 c1 257 52 476 135 585 22 28 23 33
9 45 -12 10 -17 8 -30 -9 -24 -34 -37 -27 -29 16 13 75 56 190 124 335 21 45
41 92 45 104 4 11 14 27 23 35 15 12 16 8 9 -47 -3 -33 -18 -115 -32 -183 -25
-121 -26 -125 -70 -166 -24 -23 -44 -47 -44 -52 0 -6 10 -21 21 -33 12 -13 18
-26 12 -30 -13 -8 -56 -134 -88 -256 -23 -85 -27 -126 -30 -270 l-4 -170 9
133 c14 210 36 312 107 507 23 60 56 114 113 178 66 75 84 57 27 -28 -38 -57
-67 -113 -67 -129 0 -6 13 12 28 39 77 138 163 238 185 216 5 -5 -9 -37 -30
-72 -56 -93 -130 -269 -114 -269 4 0 14 19 22 43 37 114 113 252 134 243 7 -2
25 9 41 25 57 60 59 29 4 -72 -99 -183 -141 -274 -135 -297 3 -14 2 -21 -4
-18 -8 5 -35 -53 -54 -119 -9 -30 -37 -281 -37 -331 0 -54 -17 -58 -25 -6 -11
65 -13 68 -14 22 0 -25 6 -79 14 -120 9 -41 24 -118 33 -171 10 -53 24 -104
31 -113 8 -9 11 -19 7 -23 -3 -3 -6 -1 -6 5 0 7 -5 12 -10 12 -6 0 -8 -11 -4
-25 4 -15 2 -25 -5 -25 -26 0 -73 138 -105 310 -13 69 -24 112 -25 95 0 -30
29 -198 47 -267 10 -37 54 -133 91 -198 11 -19 35 -67 53 -106 l34 -71 37 32
c36 31 38 36 31 72 -5 29 -21 52 -67 96 l-60 58 -9 237 c-5 130 -7 254 -5 274
4 31 2 36 -12 31 -15 -6 -15 -5 0 13 9 10 19 46 23 79 14 131 46 222 147 426
55 110 107 203 115 206 26 10 36 -10 25 -56 -11 -52 7 -52 24 0 12 35 28 42
33 15 3 -15 -42 -157 -98 -306 -37 -99 -52 -145 -43 -136 9 9 79 196 114 305
17 52 34 101 38 110 27 47 13 -108 -24 -264 -5 -20 -4 -27 3 -20 8 8 31 112
58 268 3 20 10 37 15 37 9 0 14 -26 29 -135 l9 -70 -3 73 c-2 40 0 75 5 77 4
3 15 -15 25 -40 9 -25 19 -44 21 -41 2 2 -3 23 -12 47 -9 24 -20 56 -25 71
-18 57 33 43 71 -19 13 -21 26 -40 29 -43 3 -3 20 -36 37 -75 35 -76 47 -125
58 -223 4 -35 10 -61 13 -58 12 13 -22 196 -51 266 -17 41 -34 79 -39 84 -4 6
3 21 17 36 17 17 27 41 30 71 l4 44 -10 -37 c-12 -42 -23 -46 -58 -22 -20 15
-23 22 -17 60 3 24 12 60 21 80 13 32 17 35 32 23 12 -11 17 -11 20 -2 8 23
45 63 53 58 5 -3 0 -26 -11 -52 -11 -25 -18 -51 -16 -57 2 -6 14 19 27 56 23
64 55 116 66 106 2 -3 0 -34 -5 -69 -6 -35 -13 -95 -16 -134 -3 -38 -8 -91
-10 -117 -3 -26 0 -50 5 -53 6 -3 10 -12 10 -18 -1 -8 -5 -6 -13 3 -7 9 -29
29 -50 45 -32 23 -40 26 -48 14 -13 -20 -12 -22 21 -44 57 -38 113 -145 145
-280 25 -105 22 -121 -39 -182 -59 -59 -93 -68 -88 -23 1 19 -2 17 -14 -12
-10 -23 -28 -42 -49 -52 -39 -19 -95 -21 -95 -4 0 7 -7 3 -15 -9 -9 -13 -33
-27 -54 -33 -33 -8 -38 -14 -34 -31 5 -16 11 -19 30 -15 23 6 22 4 -17 -71
-36 -70 -78 -218 -65 -231 5 -5 5 -5 29 93 9 39 26 90 38 115 22 46 84 120 99
120 15 0 10 -25 -10 -47 -26 -28 -73 -122 -68 -136 2 -7 11 4 19 23 33 74 132
187 158 178 5 -1 -15 -41 -45 -88 -74 -116 -70 -125 6 -11 58 85 79 107 79 79
0 -6 -16 -39 -35 -74 -31 -55 -81 -212 -70 -222 2 -2 15 34 29 80 14 46 35 98
46 117 26 42 44 30 30 -19 -12 -43 -13 -63 -1 -56 5 3 12 26 15 50 4 24 14 50
22 57 8 6 19 31 25 56 17 67 29 61 30 -14 l1 -68 12 70 c10 55 14 65 19 45 13
-46 37 -224 37 -275 0 -75 18 -42 22 40 1 39 -1 112 -6 164 -6 69 -5 92 3 87
17 -11 43 -65 62 -131 11 -37 18 -50 19 -35 1 24 1 25 16 5 23 -31 37 0 18 43
-17 43 -17 43 1 36 8 -4 15 -15 15 -25 0 -11 12 -37 26 -58 20 -31 24 -46 19
-75 -8 -38 3 -47 25 -21 16 19 6 70 -26 147 -27 65 -29 78 -11 78 12 0 68 -90
95 -154 7 -16 15 -26 19 -23 3 3 -9 36 -26 73 -17 37 -29 69 -26 72 3 3 16 0
30 -6 17 -8 35 -33 54 -76 30 -65 60 -101 48 -57 -11 45 18 14 58 -61 22 -41
45 -73 51 -71 5 2 18 -23 29 -54 23 -75 32 -50 10 29 -11 40 -13 64 -7 70 7 7
14 3 21 -11 7 -12 18 -21 26 -21 8 0 15 -6 15 -12 0 -7 4 -19 9 -27 8 -12 12
-12 25 -2 13 11 14 17 2 46 -13 30 -12 37 12 90 l26 57 -48 44 c-27 24 -45 44
-40 44 5 0 27 -18 50 -41 l42 -41 33 49 c55 81 117 149 177 195 31 23 59 46
62 49 8 10 187 99 199 99 6 0 11 4 11 9 0 22 -24 22 -75 1 -30 -12 -61 -20
-68 -17 -10 4 -16 34 -20 100 -5 92 -6 97 -39 127 -24 22 -27 28 -10 20 12 -6
22 -15 22 -20 0 -6 5 -10 10 -10 11 0 8 27 -21 195 -27 155 -32 170 -55 168
-10 -1 -13 0 -6 3 6 3 12 13 12 23 0 22 -63 127 -98 164 -55 58 -131 52 -221
-17 -85 -65 -85 -66 -46 -103 l34 -32 32 52 c24 37 34 47 37 35 2 -10 8 -18
13 -18 5 0 9 -12 9 -27 1 -25 2 -24 15 12 8 22 15 41 15 43 0 2 5 0 11 -4 8
-5 10 -39 6 -113 -3 -76 -2 -95 4 -66 16 68 17 70 38 43 11 -13 21 -42 24 -64
3 -33 4 -30 5 16 3 84 32 109 47 40 6 -29 7 -29 33 -13 l27 17 -27 -30 c-26
-28 -28 -36 -27 -110 2 -78 2 -78 8 -22 7 68 25 93 46 64 35 -47 31 -205 -8
-346 -30 -107 -91 -263 -124 -315 -26 -40 -80 -91 -89 -83 -2 3 11 38 30 79
71 157 138 403 134 496 l-1 38 -4 -35 c-16 -147 -70 -339 -138 -486 -32 -69
-49 -92 -58 -77 -9 16 14 164 33 215 11 28 18 54 16 56 -2 2 -7 -6 -11 -17
-11 -36 -23 -23 -35 37 -7 31 -16 70 -21 86 -15 47 -11 73 22 137 16 33 29 65
27 71 -2 5 -14 -13 -28 -41 -24 -51 -33 -60 -45 -40 -5 7 -13 5 -25 -6 -16
-15 -16 -19 3 -93 16 -61 20 -111 21 -242 1 -160 0 -167 -26 -223 l-28 -58
-40 32 c-41 33 -43 41 -19 106 5 12 4 25 0 28 -5 2 -12 -10 -15 -28 -3 -19
-12 -41 -19 -50 -11 -15 -15 -15 -57 4 -24 11 -46 22 -48 23 -3 4 11 153 23
249 3 21 1 37 -5 37 -5 0 -10 -18 -10 -39 0 -42 -17 -184 -26 -213 -7 -22 -33
-23 -80 -3 l-36 15 7 137 c12 220 9 310 -14 434 -17 95 -19 122 -10 143 9 20
10 35 1 63 -17 57 2 61 28 6 13 -26 36 -66 51 -88 47 -68 77 -186 81 -313 2
-62 6 -112 11 -112 4 0 7 42 7 94 0 98 -18 204 -44 268 -9 21 -16 45 -16 54 0
16 2 16 20 -1 22 -20 26 -14 10 16 -6 11 -8 24 -5 29 7 12 45 -31 68 -77 24
-46 67 -200 67 -239 0 -19 5 -34 10 -34 6 0 10 4 10 9 0 23 -32 160 -47 203
-9 26 -14 51 -10 54 13 13 37 -19 78 -100 38 -77 66 -104 62 -61 -3 35 -29
116 -36 113 -3 -2 -21 19 -39 46 -18 27 -37 55 -42 62 -6 7 -5 23 4 43 17 42
45 38 45 -7 0 -17 1 -32 2 -32 1 0 16 25 33 56 l32 55 -28 30 c-15 16 -32 29
-37 29 -12 0 -43 -35 -65 -72 -9 -15 -22 -30 -30 -33 -15 -6 -89 52 -183 143
-44 42 -58 50 -62 38 -4 -9 -12 -16 -18 -16 -7 0 -5 8 6 20 17 19 17 21 -21
62 -21 24 -41 45 -46 46 -5 2 -39 -12 -77 -32 -38 -20 -111 -54 -163 -76 -126
-56 -189 -99 -182 -125 4 -17 2 -16 -15 5 -11 13 -19 29 -18 35 2 10 -47 13
-92 4 -23 -4 -27 2 -50 69 -14 40 -38 86 -52 101 -14 15 -23 33 -21 41 5 14
-11 7 -40 -18 -25 -21 -23 -7 2 18 11 11 20 25 20 31 0 15 -136 149 -151 149
-6 0 3 -16 20 -35z m76 -84 c-6 -5 -25 10 -25 20 0 5 6 4 14 -3 8 -7 12 -15
11 -17z m41 -39 c-4 -3 -14 2 -24 12 -16 18 -16 18 6 6 13 -6 21 -14 18 -18z
m-76 -54 c0 -14 5 -19 18 -16 19 5 19 5 22 -126 1 -40 -1 -82 -4 -93 -6 -20
-76 -50 -93 -40 -15 9 4 227 21 246 9 10 16 28 16 40 0 12 4 19 10 16 6 -3 10
-15 10 -27z m-250 -19 c-12 -23 -19 -43 -16 -46 2 -3 14 13 26 36 20 40 48 58
37 24 -3 -10 -31 -92 -62 -182 -30 -90 -53 -166 -50 -169 3 -3 -2 -13 -11 -23
-10 -11 -15 -28 -12 -43 3 -14 1 -24 -4 -23 -17 4 -104 -380 -124 -547 -6 -50
-9 -57 -19 -43 -29 40 -24 280 11 474 19 111 103 362 161 481 43 87 53 101 71
102 9 0 6 -12 -8 -41z m383 -72 c9 -30 17 -65 17 -80 0 -29 -32 -57 -66 -57
-20 0 -21 6 -27 102 -3 57 -3 106 -1 109 2 4 17 1 32 -7 21 -10 33 -27 45 -67z
m-208 1 c-17 -213 -17 -211 -43 -235 -27 -25 -42 -22 -42 7 0 51 43 225 62
251 12 16 23 29 25 29 1 0 1 -24 -2 -52z m816 -113 c16 16 29 36 29 44 0 61
70 -158 100 -314 22 -113 40 -305 28 -305 -4 0 -8 -9 -8 -20 0 -36 -18 -21
-59 48 -22 37 -49 80 -60 96 -11 17 -18 33 -16 36 2 4 -2 49 -10 101 -15 97
-19 227 -9 267 5 16 10 20 19 12 9 -7 12 -2 13 23 l1 32 -33 -36 -33 -35 -6
-139 c-7 -141 -18 -178 -40 -140 -35 59 -23 287 21 375 l27 55 3 -64 3 -64 30
28z m-1185 -2 c-10 -10 -19 5 -10 18 6 11 8 11 12 0 2 -7 1 -15 -2 -18z m897
-41 c-16 -68 -20 -77 -35 -80 -9 -2 -25 12 -38 33 -21 34 -21 37 -5 54 10 12
30 19 51 19 32 0 33 -2 27 -26z m270 -338 c16 -14 26 -28 24 -30 -2 -3 -19 9
-37 26 -18 16 -28 30 -23 30 4 0 21 -12 36 -26z m-30 -26 c35 -47 77 -159 87
-231 l9 -62 -2 73 c-2 39 0 72 3 72 3 0 17 -21 29 -47 24 -48 40 -174 27 -208
-5 -14 -8 -14 -31 1 -19 13 -25 25 -26 58 -2 30 -3 33 -6 14 -5 -35 -13 -35
-46 0 -24 25 -27 36 -27 95 0 50 -8 89 -35 164 -19 54 -35 99 -35 101 0 1 7 2
14 2 8 0 26 -15 39 -32z m112 -448 c3 -5 -1 -10 -9 -10 -9 0 -16 5 -16 10 0 6
4 10 9 10 6 0 13 -4 16 -10z m370 -199 c3 -5 1 -12 -5 -16 -5 -3 -10 1 -10 9
0 18 6 21 15 7z"/>
<path d="M5364 8582 c-44 -81 -57 -148 -58 -297 -1 -140 9 -219 25 -194 5 8 9
9 9 3 0 -5 -4 -14 -10 -20 -9 -9 17 -150 39 -207 6 -16 11 -35 11 -42 0 -13
-76 -65 -94 -65 -4 0 -49 40 -100 89 -156 148 -272 216 -510 297 -95 32 -141
44 -144 36 -2 -7 -8 -12 -13 -12 -6 0 -7 5 -4 10 3 6 1 10 -5 10 -7 0 -10 -7
-6 -15 3 -8 -1 -21 -10 -29 -23 -23 -36 -157 -24 -253 12 -95 50 -231 88 -318
45 -102 147 -263 231 -364 57 -68 74 -106 59 -130 -9 -15 -9 -28 0 -59 21 -71
20 -72 -58 -72 -67 0 -190 -33 -261 -70 -34 -18 -34 -18 -15 -39 14 -15 24
-17 59 -10 61 12 275 11 298 -1 12 -7 19 -21 19 -41 l0 -31 -47 8 c-66 12
-206 11 -275 -2 -46 -9 -58 -8 -58 2 0 7 6 15 13 18 6 4 2 4 -10 2 -31 -6 -39
10 -13 24 19 10 19 12 5 27 -22 21 -50 6 -117 -63 -59 -61 -88 -102 -88 -127
0 -43 94 -148 193 -216 44 -30 51 -32 64 -18 12 11 13 19 4 36 -14 25 -11 26
36 6 20 -8 38 -13 41 -11 2 3 -18 14 -45 26 -27 11 -62 38 -81 60 -18 22 -32
40 -30 40 2 0 42 -13 88 -29 92 -32 300 -84 308 -77 4 5 -11 9 -156 46 -46 11
-104 29 -130 39 -26 10 -56 21 -67 25 -19 7 -19 8 4 21 l25 13 -32 7 c-18 3
-32 11 -32 16 0 11 33 11 140 0 47 -6 135 -15 195 -21 159 -16 167 -17 200
-46 17 -15 54 -45 83 -67 31 -24 49 -44 44 -49 -9 -9 -185 5 -239 18 -17 5
-24 3 -20 -3 9 -15 111 -31 237 -38 79 -5 126 -13 187 -35 81 -29 82 -29 105
-10 l23 18 -38 7 c-20 4 -40 11 -43 16 -9 14 44 10 84 -7 l37 -15 -33 -16
c-36 -17 -35 -23 9 -38 16 -5 29 -14 29 -20 1 -29 -306 -10 -506 30 -69 14
-134 24 -143 23 -15 -4 124 -35 279 -63 115 -21 344 -29 420 -15 69 13 230 5
230 -11 0 -28 -201 -69 -377 -76 -85 -4 -130 -9 -126 -16 12 -19 323 7 448 39
17 4 61 20 99 36 38 15 80 28 93 28 18 0 24 4 19 15 -5 13 -2 14 15 4 14 -7
50 -8 106 -4 64 6 84 5 79 -4 -11 -16 -232 -120 -280 -131 -23 -5 -97 -16
-166 -25 -69 -8 -154 -20 -190 -25 -49 -8 -92 -7 -170 3 -77 11 -109 11 -119
3 -11 -8 -13 -8 -8 1 8 12 -25 24 -105 38 -21 4 -42 13 -48 20 -9 11 10 12
100 8 79 -4 110 -2 110 6 0 8 -23 11 -67 10 -90 -2 -147 7 -273 43 -147 42
-195 63 -268 115 -51 36 -66 42 -78 33 -20 -18 -8 -29 97 -96 94 -59 276 -144
363 -169 28 -8 114 -24 191 -36 254 -38 481 -25 664 38 113 38 151 60 145 81
-5 13 -4 14 4 3 8 -11 14 -11 33 -1 21 12 25 10 49 -21 66 -89 171 -166 270
-199 56 -19 82 -22 186 -18 l122 4 102 51 102 50 107 -53 c130 -66 190 -78
341 -71 180 8 319 57 458 162 65 49 67 52 53 73 -6 10 -26 -1 -82 -43 -41 -31
-117 -77 -169 -103 -94 -47 -96 -47 -202 -49 -59 -1 -110 2 -113 7 -3 5 32 20
77 35 177 57 300 134 426 265 61 64 79 88 184 239 29 41 53 70 55 65 2 -6 -6
-36 -17 -68 -14 -42 -16 -55 -6 -47 25 21 28 -6 7 -54 -24 -55 -73 -127 -125
-183 -36 -40 -38 -44 -23 -59 11 -11 20 -13 29 -6 7 5 35 16 63 23 28 8 65 28
87 48 21 19 38 29 38 24 0 -6 -10 -17 -22 -23 -13 -7 -18 -14 -11 -16 15 -5
158 66 232 116 32 22 83 63 112 90 42 38 51 52 42 62 -9 9 -27 -2 -80 -48 -99
-87 -200 -150 -273 -169 -72 -18 -91 -21 -96 -13 -12 21 18 43 101 74 48 18
95 40 103 49 10 10 -10 5 -53 -14 -80 -34 -110 -38 -101 -14 3 9 6 18 6 20 0
3 33 20 74 38 92 42 207 109 243 141 16 14 55 51 88 83 32 31 47 43 32 26 -19
-21 -24 -33 -17 -40 15 -15 -56 -86 -157 -159 -46 -32 -81 -60 -79 -63 3 -2
38 19 80 47 80 55 189 158 252 241 35 45 54 61 54 43 0 -8 -46 -70 -76 -103
-88 -95 -102 -116 -93 -130 8 -12 18 -6 52 31 54 59 176 221 210 280 38 65 80
179 80 216 0 18 4 30 8 28 4 -3 10 2 13 11 8 20 8 114 0 114 -3 0 -27 -7 -55
-16 -50 -17 -60 -28 -34 -38 8 -3 15 -11 15 -18 0 -6 -12 0 -27 15 -27 25 -30
26 -103 17 -41 -5 -97 -15 -123 -21 -26 -6 -51 -8 -54 -5 -4 3 3 19 15 34 12
15 36 55 53 90 25 51 29 66 18 78 -10 12 -9 13 3 9 23 -9 68 124 97 288 7 37
22 74 40 99 16 22 27 46 24 54 -3 8 0 14 5 14 13 0 82 112 82 134 0 13 -12 16
-68 16 l-68 0 -16 86 c-9 47 -18 88 -21 90 -2 3 -17 0 -33 -6 -16 -6 -132 -25
-259 -41 -276 -35 -336 -46 -387 -66 -38 -15 -47 -38 -15 -38 34 0 24 -15 -50
-70 -94 -71 -199 -171 -252 -239 -43 -56 -114 -186 -106 -194 8 -8 34 29 42
58 9 35 95 154 162 224 31 32 101 92 155 133 55 41 107 83 115 92 9 9 12 11 7
4 -12 -18 2 -16 38 6 34 21 156 40 156 24 0 -5 -37 -36 -82 -69 -89 -63 -293
-262 -382 -372 -56 -70 -184 -267 -251 -385 -38 -70 -54 -75 -55 -16 0 31 49
178 79 236 23 47 25 53 12 53 -4 0 -24 -36 -44 -81 -20 -44 -41 -78 -46 -75
-5 4 -12 20 -16 36 -8 34 -12 36 -35 15 -15 -14 -16 -20 -4 -53 22 -63 17
-219 -11 -334 -14 -55 -34 -116 -46 -135 -21 -33 -21 -34 -3 -56 10 -12 20
-23 20 -25 3 -5 184 137 259 202 329 284 448 394 487 451 12 17 -37 -27 -108
-96 -71 -70 -142 -137 -158 -150 -16 -13 -72 -62 -125 -108 -191 -165 -337
-278 -348 -267 -8 7 26 79 61 130 11 16 21 48 21 70 3 81 199 436 316 573 23
26 96 105 162 175 147 155 317 284 293 221 -4 -9 14 3 39 25 35 33 52 42 80
42 28 0 34 -3 28 -14 -4 -7 -64 -76 -131 -152 -68 -77 -171 -202 -230 -279
-134 -178 -185 -238 -362 -430 -107 -116 -133 -147 -76 -95 26 25 109 115 184
201 164 186 162 183 237 284 158 212 355 435 385 435 10 0 21 7 24 16 3 8 11
12 16 9 8 -5 7 -11 -1 -21 -8 -10 -8 -14 0 -14 16 0 14 -20 -4 -40 -9 -10 -31
-44 -50 -76 l-35 -59 40 45 c22 25 40 49 40 53 0 13 87 97 99 97 22 0 10 -35
-41 -114 -48 -75 -126 -182 -156 -215 -7 -7 -10 -16 -7 -19 3 -3 6 -3 8 -1 1
2 27 36 58 74 30 39 73 95 96 125 71 92 100 123 107 112 10 -16 -79 -211 -140
-309 -30 -47 -51 -90 -47 -96 3 -5 2 -7 -4 -4 -5 3 -41 -35 -78 -86 -223 -297
-374 -449 -632 -635 -135 -97 -203 -141 -264 -169 -52 -25 -169 -57 -176 -49
-7 7 49 77 93 116 l37 32 -21 21 c-12 11 -23 19 -25 16 -20 -28 -91 -114 -126
-152 -31 -33 -49 -46 -62 -42 -9 3 -20 1 -24 -5 -11 -18 -87 -70 -102 -70 -25
0 -13 15 67 84 78 67 200 206 200 228 0 6 -12 -7 -26 -28 -34 -52 -155 -175
-224 -228 -55 -43 -97 -68 -145 -86 -36 -14 -33 14 3 29 16 7 64 49 108 93 77
80 78 80 14 24 -74 -65 -91 -59 -32 11 22 27 55 72 75 101 38 56 101 206 94
225 -2 7 -12 -13 -22 -42 -34 -102 -64 -156 -145 -256 -118 -146 -193 -186
-119 -65 38 64 104 218 96 226 -2 3 -19 -34 -37 -81 -39 -100 -95 -195 -116
-195 -10 0 -13 6 -10 18 6 19 23 120 30 172 29 225 36 307 36 438 0 98 -4 152
-10 152 -6 0 -15 10 -20 23 -5 12 -9 15 -9 7 -1 -36 -14 -520 -16 -571 -1 -30
-4 -59 -7 -65 -3 -5 -11 -41 -17 -81 -6 -39 -15 -83 -21 -98 -17 -44 -12 -67
23 -104 17 -19 23 -29 12 -21 -11 8 -27 23 -36 33 -11 11 -23 15 -35 10 -14
-5 -16 -3 -11 11 5 13 -2 27 -24 47 -18 16 -30 32 -27 34 3 3 13 -4 23 -15 10
-11 21 -20 25 -20 7 0 -12 178 -29 275 -30 173 -54 360 -55 441 0 51 -5 90
-10 87 -14 -9 1 -181 39 -451 29 -200 34 -256 25 -267 -7 -8 -16 -12 -21 -9
-5 3 -9 -4 -9 -16 0 -12 -4 -19 -9 -15 -5 3 -16 -3 -23 -12 -7 -10 -27 -29
-43 -43 l-30 -25 28 31 28 32 -20 38 c-12 21 -21 44 -21 50 0 6 -9 23 -21 38
-11 14 -18 26 -15 26 2 0 -15 42 -39 93 -46 99 -99 243 -117 316 -6 25 -14 87
-18 136 l-7 90 -1 -77 c-2 -78 11 -152 49 -273 23 -74 94 -242 112 -264 6 -7
12 -20 13 -28 2 -8 14 -39 28 -69 30 -63 30 -64 14 -63 -11 0 -68 66 -211 246
-21 26 -52 74 -68 107 -17 32 -33 55 -36 52 -12 -11 59 -137 123 -217 35 -45
64 -90 64 -99 0 -9 5 -21 12 -28 17 -17 0 -29 -20 -14 -9 7 -30 20 -47 30 -87
50 -214 207 -189 232 7 7 25 -11 58 -55 26 -36 50 -65 53 -65 6 0 -32 66 -81
140 -20 30 -39 65 -42 78 -8 30 -14 28 -54 -13 l-35 -36 23 -40 c27 -46 23
-59 -10 -36 -41 29 -53 41 -102 107 -64 87 -135 230 -184 372 -22 65 -42 115
-45 112 -9 -9 63 -206 113 -309 26 -55 73 -135 104 -178 31 -43 56 -82 56 -86
0 -5 9 -11 20 -14 22 -6 28 -27 7 -27 -21 0 -165 157 -213 232 -73 114 -135
252 -158 352 l-7 28 -43 -43 c-24 -24 -57 -55 -72 -69 -16 -13 3 9 43 50 l72
75 -6 47 c-3 28 -13 54 -24 64 -11 10 -21 15 -23 13 -1 -2 0 -32 3 -67 4 -35
3 -65 -1 -68 -10 -7 -36 57 -59 146 -17 67 -25 80 -69 121 -28 25 -50 50 -50
55 0 5 4 5 8 -1 4 -5 25 -26 46 -45 l39 -35 -7 30 c-4 23 -20 275 -27 450 -2
48 34 253 55 310 19 54 21 65 9 69 -8 4 -16 6 -18 6 -8 0 -45 -113 -58 -181
-20 -101 -31 -229 -17 -209 5 8 10 10 10 4 0 -6 -7 -17 -15 -24 -11 -9 -15
-33 -15 -86 0 -43 -4 -74 -10 -74 -5 0 -10 2 -10 4 0 2 -7 43 -16 92 -10 50
-17 140 -17 204 0 123 17 196 69 289 13 24 21 47 18 52 -12 20 -31 6 -60 -49z
m-486 -593 c45 -38 100 -94 123 -124 23 -30 46 -55 51 -55 5 0 7 -4 4 -9 -3
-4 9 -26 27 -47 19 -21 72 -91 120 -155 112 -150 156 -199 246 -276 92 -79
141 -144 141 -190 0 -54 -35 -44 -118 32 -38 36 -75 65 -81 65 -6 0 -11 4 -11
9 0 5 -30 38 -66 72 -61 59 -276 316 -319 383 -11 16 -21 24 -23 17 -6 -18
233 -316 338 -421 111 -112 164 -158 241 -211 43 -29 58 -45 63 -70 3 -18 4
-34 2 -36 -2 -2 -43 6 -91 18 -74 19 -100 31 -165 80 -59 44 -81 54 -89 46 -9
-9 -11 -8 -6 3 4 11 -13 32 -52 65 -153 132 -363 355 -363 386 0 6 -7 9 -14 6
-9 -4 -13 -1 -10 7 3 7 -28 66 -68 132 -39 65 -89 150 -110 188 -49 89 -51
119 -4 79 17 -16 17 -14 -3 15 -28 40 -22 50 16 26 l28 -18 -18 21 c-10 12
-14 24 -9 27 15 9 175 -166 264 -291 18 -24 34 -40 36 -34 4 13 -62 102 -171
230 -25 30 -35 50 -31 63 3 10 1 18 -5 18 -6 0 -11 6 -11 13 0 31 60 3 138
-64z m-218 -165 c196 -366 346 -542 669 -781 9 -7 -7 -13 -42 -15 -40 -3 -44
-7 -25 -26 9 -9 9 -12 0 -12 -7 0 -12 3 -12 8 0 4 -12 15 -26 26 -25 18 -26
18 -51 -5 l-25 -24 79 -11 c74 -11 237 -66 478 -162 86 -35 288 -96 433 -132
57 -15 44 -30 -25 -30 -154 0 -395 54 -567 128 -61 26 -115 47 -121 47 -5 1
-23 9 -39 20 -34 23 -259 114 -266 108 -2 -2 2 -8 10 -13 29 -19 285 -125 294
-122 5 2 16 -4 25 -12 22 -19 196 -92 268 -112 159 -44 294 -64 431 -64 69 0
102 -15 87 -40 -8 -12 -109 -13 -230 -1 -166 17 -325 24 -325 14 0 -11 232
-32 457 -40 140 -5 165 -9 179 -24 16 -18 15 -20 -21 -35 -20 -8 -74 -24 -119
-36 -73 -18 -101 -20 -281 -15 -110 4 -220 10 -245 16 -25 5 -61 12 -81 15
-62 10 -221 66 -289 103 -88 48 -175 110 -237 172 -29 28 -54 51 -57 51 -3 0
-23 -17 -46 -38 l-41 -37 32 -58 c17 -32 27 -62 23 -66 -8 -8 -81 -3 -209 14
-27 4 -77 9 -110 11 -55 5 -135 31 -135 45 0 3 22 19 48 36 61 38 151 49 264
32 l80 -12 44 44 c29 29 41 46 34 53 -6 6 -10 16 -10 23 0 9 10 7 33 -7 62
-38 222 -117 289 -144 74 -29 301 -96 326 -96 33 0 -5 18 -73 34 -177 44 -309
96 -480 189 -46 26 -79 56 -71 65 4 3 28 -4 54 -16 33 -16 40 -17 22 -4 -13 9
-36 27 -50 40 l-25 23 25 -4 c14 -3 36 -8 50 -12 23 -6 24 -5 8 8 -25 20 -22
28 8 21 21 -5 33 1 70 39 l44 46 -71 47 c-96 63 -171 135 -271 256 -46 56 -91
110 -100 120 -10 10 -18 20 -18 23 0 3 0 8 0 13 0 4 -15 23 -33 42 -17 20 -33
42 -35 50 -2 8 -19 40 -37 70 -62 104 -97 182 -85 190 7 5 9 20 5 43 -9 45 1
90 18 84 7 -2 50 -75 97 -163z m375 100 c61 -44 80 -53 87 -42 8 10 9 9 4 -4
-3 -12 13 -33 55 -69 66 -57 93 -100 104 -168 4 -24 14 -59 21 -77 16 -38 18
-64 5 -64 -8 0 -135 161 -222 280 -22 30 -67 85 -100 122 -32 37 -59 69 -59
72 0 17 35 0 105 -50z m3499 -182 c-33 -88 -40 -120 -12 -59 18 38 25 46 41
41 11 -4 23 -1 28 7 5 8 9 9 9 3 0 -6 -7 -17 -15 -24 -8 -7 -15 -24 -15 -39 0
-43 -27 -134 -60 -205 -17 -36 -29 -70 -25 -76 3 -5 0 -8 -7 -5 -8 3 -22 -11
-36 -35 -41 -72 -171 -236 -272 -342 -84 -89 -97 -108 -85 -118 12 -10 22 -6
52 18 51 40 146 86 229 112 38 12 99 32 136 45 43 16 70 21 74 14 3 -6 4 -11
3 -13 -2 -1 -26 -18 -54 -37 -111 -78 -327 -199 -354 -199 -6 0 -11 9 -11 20
0 19 -2 20 -36 5 -45 -19 -48 -19 -40 1 6 16 -9 44 -23 44 -4 0 -16 -8 -27
-17 -77 -70 -131 -101 -195 -112 -36 -6 -69 -11 -74 -11 -14 0 20 33 123 118
57 46 100 87 97 90 -3 3 -22 -10 -43 -30 -70 -66 -245 -198 -271 -204 -14 -3
-48 -12 -76 -19 -77 -21 -125 -26 -124 -12 0 7 41 41 91 77 161 114 345 265
340 279 -3 8 0 11 6 7 30 -18 290 271 422 468 59 88 73 112 101 166 18 33 38
60 46 60 10 0 9 -10 -7 -40 -24 -47 -41 -90 -36 -90 6 0 85 136 96 165 5 14
14 24 20 20 5 -3 -1 -33 -16 -73z m136 55 c0 -2 -10 -12 -21 -23 -22 -19 -22
-19 -10 4 10 18 31 31 31 19z m-4089 -99 c7 -13 26 -41 43 -62 16 -22 31 -45
32 -53 2 -11 17 -33 86 -128 84 -115 220 -262 299 -325 52 -40 98 -77 104 -82
21 -18 -14 -30 -68 -24 -53 7 -59 11 -160 109 -145 140 -288 350 -342 502 -10
28 -22 54 -27 60 -12 14 -10 25 7 25 8 0 20 -10 26 -22z m3899 -353 c0 -23
-66 -142 -97 -176 -49 -53 -132 -123 -139 -116 -6 6 216 297 228 297 4 0 8 -2
8 -5z m290 -241 c0 -3 -7 -1 -15 6 -8 7 -15 17 -15 22 0 5 7 3 15 -6 8 -8 15
-18 15 -22z m-3066 -89 c22 -41 36 -78 33 -81 -15 -15 -61 33 -89 92 -32 69
-32 110 0 81 10 -9 35 -50 56 -92z m2936 17 c0 -21 -190 -208 -254 -251 -89
-60 -222 -123 -250 -119 -18 3 -21 9 -18 42 2 22 10 55 18 74 11 28 12 38 2
51 -10 12 -7 12 8 -2 21 -17 24 -16 130 37 60 31 147 80 194 111 47 30 88 55
93 55 11 0 8 -14 -5 -29 -11 -11 -9 -12 8 -3 11 6 26 18 34 26 13 17 40 22 40
8z m-61 -158 c-69 -98 -215 -264 -234 -264 -3 0 -36 -20 -74 -44 -107 -69
-211 -113 -211 -88 0 4 10 40 23 81 l22 74 53 18 c110 37 249 120 345 205 52
45 104 99 116 120 15 25 25 34 32 27 7 -7 -17 -49 -72 -129z m147 73 c-13 -17
-42 -48 -63 -67 -97 -87 -101 -86 -13 3 52 53 96 97 98 97 2 0 -8 -15 -22 -33z
m-3014 -68 c237 -69 414 -139 356 -139 -25 0 -232 55 -323 86 -88 29 -225 90
-225 98 0 11 20 6 192 -45z m-842 6 c0 -25 0 -25 -99 -25 -104 0 -134 11 -79
29 53 16 70 19 126 20 49 1 52 0 52 -24z m1045 -35 c-24 -26 -32 -18 -9 9 10
11 20 18 23 16 2 -3 -4 -14 -14 -25z m178 -44 c3 -8 3 -17 0 -20 -8 -7 -43 12
-43 24 0 15 37 12 43 -4z m-1063 -51 c80 -83 286 -201 425 -244 39 -12 84 -26
100 -31 28 -9 165 -29 237 -34 18 -2 97 -4 176 -5 84 0 142 -5 142 -11 0 -21
-68 -44 -142 -48 -47 -3 -75 -8 -72 -14 4 -7 0 -7 -12 0 -11 5 -73 13 -139 16
-282 17 -546 116 -706 266 -48 46 -59 61 -60 90 -2 63 3 65 51 15z m3510 11
c0 -2 -8 -10 -17 -17 -16 -13 -17 -12 -4 4 13 16 21 21 21 13z m-4060 -16 c0
-5 -7 -10 -15 -10 -8 0 -15 5 -15 10 0 6 7 10 15 10 8 0 15 -4 15 -10z m3431
-37 c-5 -10 -31 -43 -58 -73 -96 -111 -185 -221 -181 -225 2 -2 60 63 128 145
69 82 133 152 143 155 38 14 34 -9 -14 -85 l-23 -35 35 33 c35 32 49 39 49 24
0 -16 -124 -207 -182 -280 -32 -40 -58 -70 -58 -66 0 4 -15 -7 -32 -26 -42
-42 -166 -125 -237 -156 -145 -65 -254 -69 -391 -16 -8 3 21 9 64 13 159 16
325 91 436 195 38 37 70 71 70 77 0 6 -33 -22 -72 -63 -82 -82 -174 -133 -313
-171 -66 -18 -95 -21 -168 -15 l-87 6 -37 -38 c-36 -38 -37 -25 0 15 11 13 18
25 16 27 -2 3 -26 13 -53 23 -26 10 -47 23 -47 28 2 11 47 8 73 -6 9 -5 47 -8
85 -8 l68 2 -66 7 c-37 5 -75 12 -85 18 -11 5 -24 8 -29 6 -6 -2 -35 20 -64
50 l-54 55 59 -16 c69 -18 256 -14 289 5 17 11 13 12 -25 7 -86 -12 -159 -10
-171 3 -10 10 -5 12 28 12 25 0 48 6 58 16 8 9 45 23 81 31 82 19 77 28 -6 13
-64 -12 -110 -7 -110 10 0 6 -6 10 -14 10 -19 0 -28 26 -13 38 7 6 48 12 92
14 65 3 92 9 145 35 130 64 256 135 285 161 16 15 23 18 15 8 -14 -18 -13 -19
10 -13 46 12 160 20 160 11 0 -5 -32 -39 -72 -76 -93 -86 -82 -89 14 -3 65 58
98 78 98 59 0 -3 -19 -29 -42 -58 l-43 -51 75 65 c41 36 77 67 80 70 18 20 68
49 83 50 14 0 16 -4 8 -17z m-3426 -3 c-3 -5 -13 -10 -21 -10 -8 0 -12 5 -9
10 3 6 13 10 21 10 8 0 12 -4 9 -10z m2925 -50 c0 -5 -2 -10 -4 -10 -3 0 -8 5
-11 10 -3 6 -1 10 4 10 6 0 11 -4 11 -10z m24 -19 c6 -9 -118 -85 -208 -127
-74 -35 -179 -30 -118 5 9 6 11 11 5 11 -19 0 -16 17 5 23 9 3 49 17 87 31 39
14 99 32 134 40 35 8 66 17 69 20 8 9 20 7 26 -3z m-2290 -96 c8 -8 19 -15 25
-15 6 0 11 -4 11 -10 0 -16 -13 -12 -45 15 -16 13 -25 24 -18 25 6 0 18 -7 27
-15z m91 -55 c3 -5 1 -10 -4 -10 -6 0 -11 5 -11 10 0 6 2 10 4 10 3 0 8 -4 11
-10z m1215 -3 c0 -2 -15 -16 -32 -33 l-33 -29 29 33 c28 30 36 37 36 29z
m-1145 -29 c6 -6 0 -8 -19 -6 -16 2 -31 9 -34 17 -3 10 2 11 19 6 13 -4 29
-12 34 -17z m965 2 c0 -9 -31 -30 -44 -30 -12 0 -6 28 7 33 20 9 37 8 37 -3z
m-90 -50 c0 -5 -7 -10 -16 -10 -8 0 -12 5 -9 10 3 6 10 10 16 10 5 0 9 -4 9
-10z m194 -2 c-4 -7 -16 -19 -26 -26 -10 -7 -18 -20 -18 -29 0 -8 -11 -36 -25
-62 -33 -58 -90 -100 -136 -99 -19 1 -28 3 -22 5 10 4 9 12 -3 36 -16 30 -16
32 8 51 67 55 132 96 137 88 3 -6 24 3 46 19 46 32 49 34 39 17z m441 -66 c-3
-3 -6 -3 -7 -1 -2 2 -16 20 -33 39 l-30 35 37 -34 c21 -19 36 -37 33 -39z
m-99 -29 c3 -35 11 -66 17 -70 6 -4 8 4 3 21 -8 34 1 66 19 66 7 0 27 -28 43
-62 17 -35 39 -75 48 -90 17 -26 17 -28 0 -47 -10 -11 -31 -24 -46 -30 -37
-13 -54 6 -85 95 -29 83 -40 144 -30 181 9 39 22 13 31 -64z m199 76 c4 -6 5
-13 1 -16 -8 -9 -76 7 -76 17 0 14 67 13 75 -1z m-518 -52 c-6 -59 -55 -153
-106 -201 l-31 -30 -25 24 c-14 13 -25 27 -25 32 0 4 20 26 45 49 25 23 55 58
66 78 70 117 84 127 76 48z m-556 23 c11 0 17 -4 14 -10 -8 -13 -95 -13 -95
-1 0 11 30 20 48 15 8 -2 23 -4 33 -4z m-128 -7 c-7 -2 -19 -2 -25 0 -7 3 -2
5 12 5 14 0 19 -2 13 -5z m962 -88 c3 -27 20 -83 36 -123 16 -41 29 -75 29
-77 0 -7 -54 -15 -70 -10 -30 9 -42 66 -35 153 12 147 24 165 40 57z m-66 -77
c6 -57 14 -115 17 -129 5 -22 2 -27 -18 -32 -32 -9 -76 -9 -81 1 -4 6 25 171
50 282 5 25 5 25 13 3 5 -12 13 -68 19 -125z m-139 93 c0 -38 -68 -203 -90
-216 -14 -9 -49 1 -73 19 -18 14 -17 17 20 63 21 27 49 72 62 101 21 45 28 52
53 52 21 0 28 -5 28 -19z m51 -16 c12 8 11 -8 -6 -110 -19 -108 -28 -125 -64
-125 -50 0 -55 20 -21 94 17 37 41 93 53 124 16 43 22 52 25 34 2 -12 8 -20
13 -17z m609 -230 c42 -48 41 -47 -20 10 -35 33 -69 65 -77 72 -7 6 -13 15
-13 18 0 11 60 -44 110 -100z"/>
<path d="M4784 8001 c20 -22 26 -25 26 -13 0 4 -10 13 -22 21 -23 14 -23 14
-4 -8z"/>
<path d="M5095 6920 c3 -5 11 -10 16 -10 6 0 7 5 4 10 -3 6 -11 10 -16 10 -6
0 -7 -4 -4 -10z"/>
<path d="M5645 6620 c3 -5 11 -10 16 -10 6 0 7 5 4 10 -3 6 -11 10 -16 10 -6
0 -7 -4 -4 -10z"/>
<path d="M8461 7565 c-29 -65 -26 -71 5 -12 14 27 23 51 21 54 -3 2 -15 -17
-26 -42z"/>
<path d="M8425 7489 c-4 -6 -5 -12 -2 -15 2 -3 7 2 10 11 7 17 1 20 -8 4z"/>
<path d="M8366 7390 c-72 -116 -219 -281 -341 -383 -16 -14 -28 -28 -25 -31 9
-8 174 149 243 232 72 88 172 231 165 238 -3 2 -22 -23 -42 -56z"/>
<path d="M7428 6423 c-27 -14 -46 -28 -45 -30 5 -4 97 47 97 53 0 6 -1 5 -52
-23z"/>
<path d="M7255 6346 c-33 -11 -52 -22 -43 -24 10 -2 41 8 70 21 64 30 54 31
-27 3z"/>
<path d="M6893 6273 c14 -14 37 -18 115 -20 l97 -1 -79 9 c-44 4 -93 13 -109
19 -41 14 -44 13 -24 -7z"/>
<path d="M7406 8439 c-22 -68 -27 -91 -22 -96 6 -6 10 3 25 61 10 37 7 66 -3
35z"/>
<path d="M7472 8315 c0 -16 2 -22 5 -12 2 9 2 23 0 30 -3 6 -5 -1 -5 -18z"/>
<path d="M6430 8278 c0 -5 7 -50 16 -100 16 -92 15 -247 -2 -293 -6 -17 -5
-18 7 -7 30 28 21 341 -11 392 -5 8 -10 12 -10 8z"/>
<path d="M7462 8250 c0 -14 2 -19 5 -12 2 6 2 18 0 25 -3 6 -5 1 -5 -13z"/>
<path d="M5796 8113 c-33 -140 -51 -336 -38 -423 9 -63 10 -61 11 60 2 188 27
359 66 453 4 10 3 17 -3 17 -6 0 -22 -48 -36 -107z"/>
<path d="M6363 8080 c-8 -90 -22 -167 -41 -232 -16 -54 -26 -98 -22 -98 10 0
58 165 70 246 6 38 10 104 8 145 -3 70 -4 67 -15 -61z"/>
<path d="M7451 8194 c0 -11 3 -14 6 -6 3 7 2 16 -1 19 -3 4 -6 -2 -5 -13z"/>
<path d="M7441 8144 c0 -11 3 -14 6 -6 3 7 2 16 -1 19 -3 4 -6 -2 -5 -13z"/>
<path d="M5897 8143 c-8 -13 -36 -134 -47 -203 -5 -36 -9 -105 -8 -155 l1 -90
8 115 c8 121 21 204 46 283 13 43 13 72 0 50z"/>
<path d="M7195 7958 c0 -97 3 -169 7 -160 9 22 8 223 -1 287 -4 31 -7 -19 -6
-127z"/>
<path d="M6252 8075 c-17 -60 -62 -272 -62 -290 0 -37 18 -1 24 47 4 29 18 99
32 156 24 98 29 171 6 87z"/>
<path d="M6111 7942 c-6 -12 -11 -27 -11 -34 0 -7 7 0 15 16 9 16 13 31 11 33
-2 3 -9 -4 -15 -15z"/>
<path d="M6067 7803 c-15 -49 -29 -110 -32 -138 l-4 -50 14 60 c8 33 24 93 36
133 12 40 19 75 17 78 -3 2 -17 -35 -31 -83z"/>
<path d="M6180 7710 c0 -30 -23 -70 -60 -105 -17 -16 -38 -42 -46 -57 -17 -34
-17 -103 0 -143 15 -33 14 -35 42 55 23 77 51 127 74 140 28 15 26 -2 -10 -78
-23 -50 -60 -152 -60 -169 0 -2 4 -3 9 -3 5 0 12 17 16 38 7 41 50 142 60 142
4 0 4 -26 1 -57 -4 -32 -3 -71 2 -88 8 -27 9 -24 15 30 3 33 15 87 27 119 24
72 24 69 0 61 -12 -4 -20 -2 -20 5 0 7 9 23 20 37 11 14 20 36 20 49 0 22 -1
23 -35 8 -31 -13 -36 -13 -41 0 -3 8 -3 20 1 26 3 5 1 10 -4 10 -6 0 -11 -9
-11 -20z"/>
<path d="M8197 7618 c-8 -13 -40 -51 -71 -86 -31 -34 -56 -66 -56 -70 1 -4 13
7 28 24 15 17 51 59 80 93 30 33 50 61 44 61 -5 0 -16 -10 -25 -22z"/>
<path d="M6868 7525 c2 -14 6 -25 8 -25 2 0 4 11 4 25 0 14 -4 25 -9 25 -4 0
-6 -11 -3 -25z"/>
<path d="M5670 7506 c0 -8 4 -17 9 -20 5 -4 7 3 4 14 -6 23 -13 26 -13 6z"/>
<path d="M6386 7466 c-9 -30 -16 -62 -15 -73 0 -10 7 2 14 27 7 25 18 57 24
73 6 15 6 27 1 27 -5 0 -16 -24 -24 -54z"/>
<path d="M7030 7510 c1 -8 7 -28 16 -45 l14 -30 -5 35 c-5 35 -25 67 -25 40z"/>
<path d="M7117 7493 c-4 -6 2 -34 12 -64 11 -30 24 -87 29 -127 13 -89 27
-111 18 -27 -8 76 -51 232 -59 218z"/>
<path d="M5992 7371 c-6 -18 -14 -64 -18 -104 l-6 -72 42 -40 42 -40 -6 30
c-5 29 -9 95 -7 123 2 32 21 -3 22 -41 1 -83 16 -84 18 -1 1 77 0 82 -25 99
-14 9 -31 30 -38 47 l-13 30 -11 -31z"/>
<path d="M6938 7280 c3 -75 -11 -211 -33 -320 -3 -14 2 -6 10 18 8 24 19 77
25 118 12 87 14 274 3 274 -5 0 -7 -40 -5 -90z"/>
<path d="M6358 7315 c-7 -47 6 -178 28 -283 17 -81 83 -278 119 -354 12 -26
19 -49 15 -50 -4 -2 -3 -14 2 -27 7 -19 11 -22 21 -12 9 9 9 14 -1 20 -7 4
-10 15 -6 24 3 10 1 23 -5 31 -18 21 -106 270 -131 371 -13 52 -26 139 -29
205 -5 82 -8 104 -13 75z"/>
<path d="M6654 7279 c3 -34 6 -186 7 -338 1 -186 4 -265 10 -241 12 47 0 640
-14 640 -6 0 -7 -23 -3 -61z"/>
<path d="M7085 7202 c0 -65 -3 -137 -7 -162 l-7 -45 14 50 c14 53 20 261 8
268 -5 3 -8 -47 -8 -111z"/>
<path d="M6113 7213 c8 -96 29 -190 48 -207 9 -8 10 -6 5 9 -18 49 -36 156
-36 218 0 44 -4 67 -11 67 -9 0 -10 -24 -6 -87z"/>
<path d="M7274 7265 c3 -22 6 -76 7 -120 l2 -80 8 65 c8 68 3 135 -13 160 -6
10 -7 2 -4 -25z"/>
<path d="M7178 7203 c-2 -5 -1 -30 3 -58 l6 -50 1 58 c2 52 -2 69 -10 50z"/>
<path d="M7171 7074 c0 -11 3 -14 6 -6 3 7 2 16 -1 19 -3 4 -6 -2 -5 -13z"/>
<path d="M7265 7023 c-3 -21 -17 -64 -30 -95 -12 -32 -21 -58 -19 -58 16 0 74
174 61 186 -2 3 -8 -12 -12 -33z"/>
<path d="M7110 6909 c-7 -11 -10 -23 -7 -25 2 -2 9 7 15 21 14 30 7 33 -8 4z"/>
<path d="M6886 6894 c-4 -14 -5 -29 -2 -31 3 -3 8 7 12 21 3 15 4 29 1 32 -2
3 -8 -7 -11 -22z"/>
<path d="M6999 6723 c-13 -16 -12 -17 4 -4 9 7 17 15 17 17 0 8 -8 3 -21 -13z"/>
<path d="M4660 6430 c8 -5 20 -10 25 -10 6 0 3 5 -5 10 -8 5 -19 10 -25 10 -5
0 -3 -5 5 -10z"/>
<path d="M4798 6383 c7 -3 16 -2 19 1 4 3 -2 6 -13 5 -11 0 -14 -3 -6 -6z"/>
<path d="M3925 5039 c-120 -27 -190 -177 -136 -294 16 -36 94 -113 267 -268
53 -47 74 -92 74 -155 0 -141 -180 -221 -295 -130 -34 26 -64 91 -65 138 -2
63 -19 2 -19 -70 -1 -74 11 -91 78 -115 200 -70 372 29 371 214 -1 68 -29 118
-112 196 -230 218 -237 225 -248 266 -21 75 12 144 84 179 37 17 56 21 91 15
51 -7 100 -44 118 -87 11 -28 12 -26 14 35 l2 64 -77 11 c-86 14 -91 14 -147
1z"/>
<path d="M6985 4900 c-17 -57 -318 -697 -338 -718 -11 -12 -35 -26 -51 -31
-22 -7 3 -9 89 -9 92 0 114 2 92 10 -44 16 -44 47 0 151 l40 92 165 3 166 2
36 -87 c42 -100 44 -141 6 -160 -21 -11 -6 -13 100 -11 69 0 115 3 103 5 -37
7 -76 55 -112 139 -32 72 -167 371 -228 504 -14 30 -33 73 -43 95 -17 39 -17
39 -25 15z m79 -296 c36 -88 66 -163 66 -167 0 -4 -65 -7 -145 -7 -80 0 -145
4 -145 9 0 4 27 73 61 152 33 79 65 155 70 168 6 14 13 21 19 15 5 -5 38 -81
74 -170z"/>
<path d="M4377 4885 l31 -13 4 -274 c5 -309 6 -317 82 -392 57 -58 125 -80
236 -80 104 1 184 28 237 82 66 67 67 77 73 380 5 273 5 274 29 293 l23 19
-78 -1 c-65 0 -75 -2 -56 -11 12 -6 25 -21 28 -33 3 -12 4 -138 2 -281 -3
-247 -4 -261 -26 -302 -27 -51 -84 -94 -147 -112 -57 -16 -152 -8 -202 17 -45
21 -98 89 -113 141 -5 21 -10 146 -10 288 0 256 2 274 40 287 8 3 -30 6 -85 6
-93 0 -98 -1 -68 -14z"/>
<path d="M5277 4892 c13 -4 32 -15 43 -24 19 -17 20 -29 20 -348 0 -319 -1
-331 -20 -348 -11 -9 -30 -20 -43 -24 -12 -3 92 -5 232 -5 l254 2 28 75 c35
91 36 97 5 45 -14 -23 -43 -51 -68 -65 -40 -23 -53 -25 -178 -25 l-135 0 -2
332 c-2 317 -1 332 18 356 10 14 29 28 42 30 12 2 -32 4 -98 5 -66 0 -110 -3
-98 -6z"/>
<path d="M5961 4893 c15 -2 35 -13 45 -25 18 -19 19 -43 19 -348 0 -305 -1
-329 -19 -348 -10 -12 -30 -23 -45 -25 -14 -2 26 -5 89 -5 88 -1 110 1 95 10
-45 24 -45 25 -45 381 l0 339 103 -4 c162 -5 218 -45 225 -161 9 -133 -75
-215 -223 -218 l-50 -1 45 -15 c50 -16 154 -12 192 8 49 24 99 84 113 133 18
59 18 79 4 129 -14 53 -60 100 -121 128 -49 22 -67 24 -253 25 -110 1 -188 0
-174 -3z"/>
<path d="M7455 4891 c54 -13 69 -28 133 -128 35 -54 92 -143 128 -198 l64
-100 0 -141 c0 -153 -1 -157 -57 -174 -19 -5 14 -8 97 -8 69 0 115 3 103 6
-13 4 -32 15 -43 24 -18 16 -20 30 -20 152 l0 134 114 173 c136 208 159 236
211 254 39 14 37 14 -75 15 -106 0 -113 -1 -92 -16 12 -8 22 -24 22 -35 0 -18
-168 -308 -195 -337 -10 -11 -19 -3 -46 45 -19 32 -42 72 -51 88 -10 17 -30
53 -44 80 -15 28 -35 62 -45 77 -24 34 -24 53 1 78 l20 20 -127 -1 c-76 -1
-116 -4 -98 -8z"/>
<path d="M8343 4890 c56 -17 56 -17 57 -371 0 -325 0 -326 -22 -346 -13 -12
-32 -23 -43 -26 -11 -3 36 -5 105 -4 69 0 113 2 99 4 -60 9 -60 9 -60 373 1
349 1 352 46 370 12 6 -25 9 -95 9 -79 -1 -106 -3 -87 -9z"/>
<path d="M8788 4890 c12 -5 22 -16 22 -24 0 -14 -99 -138 -223 -279 l-59 -67
37 -43 c21 -23 94 -102 162 -174 111 -118 130 -134 176 -148 28 -8 69 -15 91
-14 l41 1 -35 8 c-24 6 -52 27 -89 67 -180 193 -301 328 -299 334 2 4 62 69
133 144 72 76 132 141 133 146 6 14 63 42 102 50 21 4 -14 7 -90 7 -84 1 -118
-2 -102 -8z"/>
<path d="M9150 4890 c60 -15 60 -12 60 -370 0 -326 0 -327 -22 -347 -13 -12
-34 -23 -48 -26 -14 -2 31 -5 100 -5 120 -1 124 -1 95 15 -16 9 -33 21 -37 27
-9 14 -11 648 -2 671 4 10 21 23 38 31 28 12 19 13 -94 13 -87 -1 -114 -4 -90
-9z"/>
</g>
</svg>
